<svg xmlns="http://www.w3.org/2000/svg" width="45" height="47" viewBox="0 0 45 47"><g><path d="M27.786 2.382c-.03-.56.508-1.153.823-1.533.315-.381.584-.677 1.112-.838.529-.16.686.576.244.781-.838.327-.736 1.578-1.488 1.95-.31.165-.656-.014-.691-.36zm-3.993 6.204c.097-.386.457-.852.686-1.278.274-.511.503-.937.863-1.403.23-.426.834-.111.605.315-.274.51-.416.982-.69 1.493-.143.47-.285.942-.686 1.278-.356.25-.788.025-.778-.405zM20.746 15.5c.147-.687.467-1.283.7-1.924.23-.426.417-.982.646-1.408.183-.34.701-.071.518.27-.508 1.153-.406 2.405-1.173 3.422-.27.295-.874-.02-.691-.36zm-1.482 7.293c-.34-.395-.453-1.216-.483-1.778.055-.515.111-1.03.426-1.412.137-.256.66-.2.564.185-.142.47-.152.902-.076 1.377.076.476.371.956.315 1.472-.01.431-.492.506-.746.156zm3.263 8.13c-.564-.184-.894-1.01-1.19-1.49-.248-.567-.452-1.217-.655-1.868-.076-.476.538-.592.66-.201.336.61.626 1.307 1.093 1.877.34.395.727.705.758 1.266.035.346-.361.466-.666.416zm2.586 1.566c-.167-.305.188-.556.402-.336.635.876 1.636 1.07 2.495 1.736.345.18.025.776-.366.681-1.128-.37-1.982-1.25-2.53-2.081zm7.008 3.214c-.346-.18-.071-.691.274-.511.955.28 2.007.173 2.967.238.656.014.676 1.005.02.991-1.137.061-2.357-.138-3.261-.718zm6.61-2.224c.569-.031 1.097-.192 1.544-.613.27-.296.457-.852.854-.972.178-.125.437.01.518.27.203.65-.554 1.237-1.041 1.528-.534.376-1.149.492-1.804.478-.523-.055-.595-.746-.071-.691zm5.07-5.534c.091-.17.228-.426.233-.641-.173-.09-.3-.265-.208-.436.05-.3.325-.812.59-.892.395-.12.65.23.599.53a5.991 5.991 0 0 1-.61 1.754c-.228.426-.833.11-.604-.315zm-.504-6.475c.187-.556.243-1.072-.138-1.598-.295-.48-.94-.926-1.103-1.446-.208-.436.412-.767.757-.587.346.18.64.66.895 1.011.213.22.38.525.503.916.203.651.056 1.337-.31 2.019-.315.38-.787.025-.604-.315zm-5.357-4.643c-.29-.696-1.113-1.016-1.763-1.246a.528.528 0 0 1-.295-.48c.005-.216.05-.3.229-.426a.545.545 0 0 1 .569-.03c.732.49 1.595.94 1.88 1.85.122.391-.406.552-.62.332zm-8.496-3.118c-.259-.135-.208-.435-.07-.691.36-.466 1.056-.322 1.488-.097.564.185 1.036.54 1.509.896.26.135.03.56-.229.425l-1.432-.42c-.392-.094-.788.027-1.266-.113zm-5.99.04c.762-.802 2.474-1.108 3.51-.569.26.135.031.561-.228.426-1.042-.324-1.976.388-2.947.754-.396.121-.605-.315-.335-.61zm-7.875 3.964c.894-.842 1.956-1.379 2.931-1.96.356-.252.65.229.295.48-.889.626-1.783 1.469-2.713 1.965-.355.25-.823-.32-.513-.485zm-4.155 7.536c.29-1.157 1.097-2.044 1.214-3.292.096-.385.752-.37.742.06.015 1.207-.37 2.75-1.265 3.592-.223.21-.655-.014-.691-.36zm-3.738 8.407c-.234-1.212.447-2.274 1.168-3.206.223-.21.569-.03.518.27l-.426 1.413c-.188.556-.244 1.072-.386 1.543-.097.385-.844.541-.874-.02zm-3.652 6.6c-.412-1.087.756-2.44 1.646-3.067.4-.336.955.28.553.616-.4.335-.848.756-1.036 1.313-.096.385-.106.816-.29 1.157-.141.47-.705.286-.873-.02zM.966 46.177C.793 42.382.533 38.54.009 34.78c-.072-.69 1.026-.882 1.23-.232.884 3.295 1.108 6.79 1.51 10.16 1.062-.536 2.256-1.113 3.363-1.735.93-.496 1.82-1.124 2.871-1.23.787-.025.986.84.625 1.307-.853.972-2.484 1.54-3.678 2.117s-2.434 1.24-3.714 1.771c-.574.246-1.174-.284-1.25-.76z"/></g></svg>