<svg xmlns="http://www.w3.org/2000/svg" width="40" height="44" viewBox="0 0 40 44"><defs><clipPath id="6cgpa"><path fill="#fff" d="M28.696.858v3.953c0 .475-.39.86-.87.86a.865.865 0 0 1-.87-.86V.858c0-.474.39-.86.87-.86s.87.386.87.86zm-20 26.813c0 .474-.39.86-.87.86a.865.865 0 0 1-.87-.86c0-.474.39-.86.87-.86s.87.386.87.86zm28.976.667a3.39 3.39 0 0 1 .589 1.91c0 1.513-.984 2.779-2.322 3.244.37.55.583 1.21.583 1.913 0 1.512-.985 2.782-2.328 3.246.371.546.589 1.204.589 1.91 0 1.896-1.56 3.438-3.479 3.438h-9.351c-4.068 0-5.74-.431-8.776-1.215-.378-.098-.788-.204-1.23-.315a2.613 2.613 0 0 1-2.382 1.53H.87a.865.865 0 0 1-.87-.86V22.515c0-.473.39-.859.87-.859h8.696c1.068 0 1.988.639 2.391 1.549 5.33-1.31 12.392-4.363 12.392-9.8v-.858c0-1.896 1.56-3.438 3.478-3.438 1.888 0 3.431 1.499 3.476 3.355.027.185.046.48.061.988.079 2.666-.328 5.66-1.333 8.204h6.492c1.917 0 3.478 1.542 3.478 3.438 0 1.512-.985 2.78-2.328 3.245zm-27.237-4.105c0-.474-.39-.859-.87-.859H1.74V42.28h7.826c.48 0 .87-.386.87-.859zm27.826.86c0-.948-.78-1.719-1.74-1.719H25.218a.865.865 0 0 1-.87-.86c0-.473.39-.859.87-.859h2.928c1.892-4.152 1.42-8.736 1.42-9.109v-.003a1.732 1.732 0 0 0-1.739-1.716c-.959 0-1.74.771-1.74 1.72v.858c0 6.42-7.62 10.037-13.912 11.518v15.829c.524.132 1.004.256 1.442.369 2.991.772 4.493 1.16 8.337 1.16h9.351c.96 0 1.74-.772 1.74-1.72 0-.947-.78-1.719-1.74-1.719h-2.608a.865.865 0 0 1-.87-.859c0-.474.39-.859.87-.859h4.347c.96 0 1.74-.77 1.74-1.719 0-.97-.792-1.719-1.74-1.719h-2.608a.865.865 0 0 1-.87-.86c0-.473.39-.858.87-.858h4.348c.96 0 1.739-.77 1.739-1.72a1.73 1.73 0 0 0-1.74-1.718h-2.608a.865.865 0 0 1-.87-.859c0-.474.39-.86.87-.86h4.348c.96 0 1.739-.77 1.739-1.718zM8.695 31.109v6.874c0 .475-.389.86-.869.86a.865.865 0 0 1-.87-.86V31.11c0-.475.39-.86.87-.86s.87.385.87.86zM21.74 11.687c0 .474-.39.86-.87.86h-3.478a.865.865 0 0 1-.87-.86c0-.475.39-.86.87-.86h3.478c.48 0 .87.385.87.86zm17.391 0c0 .474-.39.86-.87.86h-3.477a.865.865 0 0 1-.87-.86c0-.475.39-.86.87-.86h3.478c.48 0 .87.385.87.86zm-3.31-6.685l-2.46 2.43a.877.877 0 0 1-1.23 0 .853.853 0 0 1 0-1.215l2.46-2.43a.878.878 0 0 1 1.23 0c.339.335.339.88 0 1.215zm-12.298 2.43a.877.877 0 0 1-1.23 0l-2.46-2.43a.852.852 0 0 1 0-1.215.878.878 0 0 1 1.23 0l2.46 2.43c.34.336.34.88 0 1.216z"/></clipPath></defs><g><g><path fill="#ff314e" d="M28.696.858v3.953c0 .475-.39.86-.87.86a.865.865 0 0 1-.87-.86V.858c0-.474.39-.86.87-.86s.87.386.87.86zm-20 26.813c0 .474-.39.86-.87.86a.865.865 0 0 1-.87-.86c0-.474.39-.86.87-.86s.87.386.87.86zm28.976.667a3.39 3.39 0 0 1 .589 1.91c0 1.513-.984 2.779-2.322 3.244.37.55.583 1.21.583 1.913 0 1.512-.985 2.782-2.328 3.246.371.546.589 1.204.589 1.91 0 1.896-1.56 3.438-3.479 3.438h-9.351c-4.068 0-5.74-.431-8.776-1.215-.378-.098-.788-.204-1.23-.315a2.613 2.613 0 0 1-2.382 1.53H.87a.865.865 0 0 1-.87-.86V22.515c0-.473.39-.859.87-.859h8.696c1.068 0 1.988.639 2.391 1.549 5.33-1.31 12.392-4.363 12.392-9.8v-.858c0-1.896 1.56-3.438 3.478-3.438 1.888 0 3.431 1.499 3.476 3.355.027.185.046.48.061.988.079 2.666-.328 5.66-1.333 8.204h6.492c1.917 0 3.478 1.542 3.478 3.438 0 1.512-.985 2.78-2.328 3.245zm-27.237-4.105c0-.474-.39-.859-.87-.859H1.74V42.28h7.826c.48 0 .87-.386.87-.859zm27.826.86c0-.948-.78-1.719-1.74-1.719H25.218a.865.865 0 0 1-.87-.86c0-.473.39-.859.87-.859h2.928c1.892-4.152 1.42-8.736 1.42-9.109v-.003a1.732 1.732 0 0 0-1.739-1.716c-.959 0-1.74.771-1.74 1.72v.858c0 6.42-7.62 10.037-13.912 11.518v15.829c.524.132 1.004.256 1.442.369 2.991.772 4.493 1.16 8.337 1.16h9.351c.96 0 1.74-.772 1.74-1.72 0-.947-.78-1.719-1.74-1.719h-2.608a.865.865 0 0 1-.87-.859c0-.474.39-.859.87-.859h4.347c.96 0 1.74-.77 1.74-1.719 0-.97-.792-1.719-1.74-1.719h-2.608a.865.865 0 0 1-.87-.86c0-.473.39-.858.87-.858h4.348c.96 0 1.739-.77 1.739-1.72a1.73 1.73 0 0 0-1.74-1.718h-2.608a.865.865 0 0 1-.87-.859c0-.474.39-.86.87-.86h4.348c.96 0 1.739-.77 1.739-1.718zM8.695 31.109v6.874c0 .475-.389.86-.869.86a.865.865 0 0 1-.87-.86V31.11c0-.475.39-.86.87-.86s.87.385.87.86zM21.74 11.687c0 .474-.39.86-.87.86h-3.478a.865.865 0 0 1-.87-.86c0-.475.39-.86.87-.86h3.478c.48 0 .87.385.87.86zm17.391 0c0 .474-.39.86-.87.86h-3.477a.865.865 0 0 1-.87-.86c0-.475.39-.86.87-.86h3.478c.48 0 .87.385.87.86zm-3.31-6.685l-2.46 2.43a.877.877 0 0 1-1.23 0 .853.853 0 0 1 0-1.215l2.46-2.43a.878.878 0 0 1 1.23 0c.339.335.339.88 0 1.215zm-12.298 2.43a.877.877 0 0 1-1.23 0l-2.46-2.43a.852.852 0 0 1 0-1.215.878.878 0 0 1 1.23 0l2.46 2.43c.34.336.34.88 0 1.216z"/><path fill="none" stroke="#fff" stroke-miterlimit="50" stroke-width=".4" d="M28.696.858v3.953c0 .475-.39.86-.87.86a.865.865 0 0 1-.87-.86V.858c0-.474.39-.86.87-.86s.87.386.87.86zm-20 26.813c0 .474-.39.86-.87.86a.865.865 0 0 1-.87-.86c0-.474.39-.86.87-.86s.87.386.87.86zm28.976.667a3.39 3.39 0 0 1 .589 1.91c0 1.513-.984 2.779-2.322 3.244.37.55.583 1.21.583 1.913 0 1.512-.985 2.782-2.328 3.246.371.546.589 1.204.589 1.91 0 1.896-1.56 3.438-3.479 3.438h-9.351c-4.068 0-5.74-.431-8.776-1.215-.378-.098-.788-.204-1.23-.315a2.613 2.613 0 0 1-2.382 1.53H.87a.865.865 0 0 1-.87-.86V22.515c0-.473.39-.859.87-.859h8.696c1.068 0 1.988.639 2.391 1.549 5.33-1.31 12.392-4.363 12.392-9.8v-.858c0-1.896 1.56-3.438 3.478-3.438 1.888 0 3.431 1.499 3.476 3.355.027.185.046.48.061.988.079 2.666-.328 5.66-1.333 8.204h6.492c1.917 0 3.478 1.542 3.478 3.438 0 1.512-.985 2.78-2.328 3.245zm-27.237-4.105c0-.474-.39-.859-.87-.859H1.74V42.28h7.826c.48 0 .87-.386.87-.859zm27.826.86c0-.948-.78-1.719-1.74-1.719H25.218a.865.865 0 0 1-.87-.86c0-.473.39-.859.87-.859h2.928c1.892-4.152 1.42-8.736 1.42-9.109v-.003a1.732 1.732 0 0 0-1.739-1.716c-.959 0-1.74.771-1.74 1.72v.858c0 6.42-7.62 10.037-13.912 11.518v15.829c.524.132 1.004.256 1.442.369 2.991.772 4.493 1.16 8.337 1.16h9.351c.96 0 1.74-.772 1.74-1.72 0-.947-.78-1.719-1.74-1.719h-2.608a.865.865 0 0 1-.87-.859c0-.474.39-.859.87-.859h4.347c.96 0 1.74-.77 1.74-1.719 0-.97-.792-1.719-1.74-1.719h-2.608a.865.865 0 0 1-.87-.86c0-.473.39-.858.87-.858h4.348c.96 0 1.739-.77 1.739-1.72a1.73 1.73 0 0 0-1.74-1.718h-2.608a.865.865 0 0 1-.87-.859c0-.474.39-.86.87-.86h4.348c.96 0 1.739-.77 1.739-1.718zM8.695 31.109v6.874c0 .475-.389.86-.869.86a.865.865 0 0 1-.87-.86V31.11c0-.475.39-.86.87-.86s.87.385.87.86zM21.74 11.687c0 .474-.39.86-.87.86h-3.478a.865.865 0 0 1-.87-.86c0-.475.39-.86.87-.86h3.478c.48 0 .87.385.87.86zm17.391 0c0 .474-.39.86-.87.86h-3.477a.865.865 0 0 1-.87-.86c0-.475.39-.86.87-.86h3.478c.48 0 .87.385.87.86zm-3.31-6.685l-2.46 2.43a.877.877 0 0 1-1.23 0 .853.853 0 0 1 0-1.215l2.46-2.43a.878.878 0 0 1 1.23 0c.339.335.339.88 0 1.215zm-12.298 2.43a.877.877 0 0 1-1.23 0l-2.46-2.43a.852.852 0 0 1 0-1.215.878.878 0 0 1 1.23 0l2.46 2.43c.34.336.34.88 0 1.216z" clip-path="url(&quot;#6cgpa&quot;)"/></g></g></svg>