<svg xmlns="http://www.w3.org/2000/svg" width="41" height="50" viewBox="0 0 41 50"><g><g><path d="M41 21.426c0 .429-.345.777-.77.777h-4.584l-.416 1.312c-.002 4.244-.891 10.691-2.854 14.978l-4.432 9.68a2.676 2.676 0 0 1-2.759 1.816c-1.357-.113-2.46-1.348-2.46-2.755 0-.07.009-.142.028-.21.855-3.097 2.562-11.817.211-14.947-.578-.77-1.37-1.143-2.419-1.143-1.076 0-1.884.381-2.47 1.167-2.357 3.153-.607 11.877.266 14.973.02.07.029.14.029.213 0 .729-.282 1.413-.795 1.926a2.652 2.652 0 0 1-1.888.785h-.025c-1.139-.01-2.149-.764-2.528-1.878L8.722 38.5c-1.967-4.29-2.858-10.743-2.861-14.985l-.416-1.312H.77a.774.774 0 0 1-.77-.777c0-.43.345-.778.77-.778h11.226v-.84H.769a.774.774 0 0 1-.77-.777c0-.43.345-.778.77-.778h3.426l-1.767-5.577A9.87 9.87 0 0 1 1.993 9.5c.135-5.249 4.465-9.503 9.66-9.503H11.823c2.11.01 4.055 1.13 5.203 2.998a4.111 4.111 0 0 0 3.52 1.98c1.443 0 2.76-.74 3.522-1.98 1.147-1.867 3.092-2.988 5.202-2.997h.125c5.217-.024 9.568 4.238 9.704 9.502a9.862 9.862 0 0 1-.433 3.17l-1.768 5.582h3.333c.426 0 .77.348.77.778 0 .43-.344.778-.77.778h-4.388-6.851v.839h11.24c.424 0 .769.348.769.778zM5.81 18.253h6.185v-5.682c0-.43.344-.778.77-.778h5.358c.423 0 .767.345.77.773l.002.424h3.145v-.42c0-.429.345-.777.77-.777h5.411c.425 0 .77.348.77.778v5.682h6.29l1.916-6.052c.263-.853.386-1.75.362-2.66-.114-4.412-3.753-7.987-8.121-7.987h-.162c-1.577.007-3.036.853-3.902 2.262a5.639 5.639 0 0 1-4.828 2.716 5.639 5.639 0 0 1-4.83-2.716c-.865-1.409-2.324-2.255-3.901-2.261l-.125-.001C7.31 1.531 3.646 5.117 3.532 9.54c-.024.911.099 1.808.364 2.667l1.915 6.047zm17.77 8.436v.42h3.871v-13.76H23.58v.418l-.002.026v9.423c0 .43-.344.779-.77.779a.774.774 0 0 1-.77-.779v-8.67H18.9V25.91h3.91c.425 0 .77.348.77.778zm-10.046-13.34v13.76h3.826V13.772l-.002-.423zm-1.54 8.854H7.063l.187.592c.69.247 2.4.817 4.746 1.319zm22.035 0h-5.038v1.924c.16-.035.32-.068.48-.104a.769.769 0 0 1 .918.59.778.778 0 0 1-.586.929c-.27.06-.54.116-.812.172v2.172c0 .43-.345.778-.77.778H22.81a.774.774 0 0 1-.77-.778v-.42H18.9v.42c0 .43-.345.778-.77.778h-5.366a.774.774 0 0 1-.77-.778v-2.184a41.826 41.826 0 0 1-4.577-1.206c.123 4.037.977 9.588 2.702 13.35l4.43 9.66a.765.765 0 0 1 .033.086c.16.497.61.847 1.094.851h.01a1.15 1.15 0 0 0 1.14-1.062c-.36-1.324-3.139-11.99.02-16.216.885-1.186 2.13-1.787 3.7-1.787 1.542 0 2.769.592 3.645 1.76 3.154 4.198.43 14.867.077 16.186.046.561.514 1.07 1.044 1.115a1.141 1.141 0 0 0 1.184-.795c.01-.029.02-.057.033-.085l4.45-9.718c1.883-4.114 2.726-10.366 2.712-14.435 0-.08.012-.171.036-.248z"/></g></g></svg>