<svg xmlns="http://www.w3.org/2000/svg" width="12" height="12" viewBox="0 0 12 12"><g><g><path fill="#1bb610" d="M12 6a5.872 5.872 0 0 1-.804 3.012 5.977 5.977 0 0 1-2.184 2.184A5.872 5.872 0 0 1 6 12a5.872 5.872 0 0 1-3.012-.804A5.976 5.976 0 0 1 .804 9.012 5.871 5.871 0 0 1-.001 6a5.87 5.87 0 0 1 .805-3.012A5.975 5.975 0 0 1 2.988.804 5.871 5.871 0 0 1 6-.001C7.09 0 8.093.267 9.012.804a5.976 5.976 0 0 1 2.184 2.184c.536.919.805 1.923.805 3.012zm-1.968-1.266a.486.486 0 0 0-.14-.36l-.712-.703a.48.48 0 0 0-.351-.148.48.48 0 0 0-.352.148l-3.188 3.18-1.766-1.765a.481.481 0 0 0-.352-.149.481.481 0 0 0-.351.149l-.711.703a.487.487 0 0 0-.141.36c0 .14.047.257.14.35l2.83 2.83a.48.48 0 0 0 .35.148c.142 0 .261-.05.36-.149l4.243-4.242a.476.476 0 0 0 .14-.352z"/></g></g></svg>