<svg xmlns="http://www.w3.org/2000/svg" width="31" height="50" viewBox="0 0 31 50"><g><g><path d="M20.106 48.073a3.037 3.037 0 0 1-2.84 1.925h-3.53a3.038 3.038 0 0 1-2.84-1.925.98.98 0 0 1 .538-1.27.962.962 0 0 1 1.256.543c.166.419.587.7 1.047.7h3.529c.46 0 .88-.281 1.046-.7a.962.962 0 0 1 1.257-.543.98.98 0 0 1 .537 1.27zm9.882-2.413l-2.068 2.673a4.29 4.29 0 0 1-3.394 1.66 4.23 4.23 0 0 1-2.135-.577c-1.842-1.074-2.63-3.387-1.836-5.38l1.255-3.149a4.802 4.802 0 0 1 2.13-2.423V36.27a.479.479 0 0 0-.475-.48H7.537a.479.479 0 0 0-.475.48v2.06h8.922a.97.97 0 0 1 .966.975c0 .54-.432.977-.966.977H8.898c.111.193.21.395.294.605l1.255 3.148c.795 1.994.006 4.307-1.836 5.381a4.23 4.23 0 0 1-2.135.577 4.289 4.289 0 0 1-3.393-1.66l-2.07-2.673a4.859 4.859 0 0 1-.925-3.888 4.815 4.815 0 0 1 2.287-3.251 4.828 4.828 0 0 1-.605-.594A4.897 4.897 0 0 1 .66 34.029a12.36 12.36 0 0 1 2.773-6.154 12.222 12.222 0 0 1 3.982-3.105c-1.86-2.006-3-4.7-3-7.66 0-6.085 4.823-11.054 10.809-11.203.023-.002.046-.004.07-.004.609 0 1.18-.24 1.611-.675.43-.435.668-1.014.668-1.629a1.64 1.64 0 0 0-1.63-1.647c-.338 0-.639.097-.846.273a.726.726 0 0 0-.265.576c0 .54-.433.977-.966.977a.972.972 0 0 1-.966-.977c0-.811.338-1.546.952-2.069.555-.473 1.298-.734 2.09-.734 1.965 0 3.563 1.615 3.563 3.601a4.25 4.25 0 0 1-.979 2.728C23.174 7.66 26.59 11.99 26.59 17.11c0 2.959-1.14 5.653-3 7.659 1.52.74 2.877 1.796 3.981 3.105a12.356 12.356 0 0 1 2.774 6.155 4.895 4.895 0 0 1-1.112 3.897 4.83 4.83 0 0 1-.605.594 4.817 4.817 0 0 1 2.287 3.25 4.858 4.858 0 0 1-.926 3.89zM15.501 26.366c5.049 0 9.156-4.152 9.156-9.255 0-5.104-4.108-9.255-9.156-9.255-5.048 0-9.155 4.151-9.155 9.255 0 5.103 4.107 9.255 9.155 9.255zM5.694 39.979a2.805 2.805 0 0 0-2.343.228 2.862 2.862 0 0 0-1.366 1.937 2.888 2.888 0 0 0 .55 2.312l2.07 2.673a2.356 2.356 0 0 0 3.04.597 2.412 2.412 0 0 0 1.01-2.96L7.4 41.617a2.849 2.849 0 0 0-1.706-1.639zm18.744-7.119v1.185a2.438 2.438 0 0 1 1.435 2.225v1.38a2.869 2.869 0 0 0 1.895-.997c.548-.644.79-1.494.665-2.332-.553-3.717-3.004-6.787-6.445-8.126a10.946 10.946 0 0 1-6.487 2.124c-2.42 0-4.661-.789-6.486-2.124-3.441 1.339-5.893 4.41-6.446 8.126a2.93 2.93 0 0 0 .665 2.332 2.869 2.869 0 0 0 1.896.996V36.27c0-.994.593-1.851 1.441-2.229v-1.18c0-.54.433-.977.966-.977.534 0 .966.437.966.976v.976h14.002v-.976c0-.54.433-.976.966-.976.534 0 .967.437.967.976zm4.58 9.284a2.862 2.862 0 0 0-1.367-1.937 2.808 2.808 0 0 0-2.342-.228 2.85 2.85 0 0 0-1.707 1.639l-1.255 3.147a2.412 2.412 0 0 0 1.01 2.96c1.013.591 2.32.335 3.041-.597l2.069-2.672a2.888 2.888 0 0 0 .55-2.312zm-8.23-2.84a.99.99 0 0 1-.283.691.964.964 0 0 1-.683.287.964.964 0 0 1-.683-.287.988.988 0 0 1 0-1.38.968.968 0 0 1 .683-.287c.254 0 .503.105.683.287a.99.99 0 0 1 .283.69zM18.307 21.82a3.582 3.582 0 0 1-5.612 0 .983.983 0 0 1 .143-1.373.959.959 0 0 1 1.358.144 1.667 1.667 0 0 0 2.61 0 .958.958 0 0 1 1.359-.144c.414.34.478.954.142 1.373zm-5.247-4.018a.957.957 0 0 1-1.366 0 .314.314 0 0 0-.447 0 .958.958 0 0 1-1.366 0 .983.983 0 0 1 0-1.38 2.233 2.233 0 0 1 3.179 0c.377.38.377 1 0 1.38zm8.061 0a.958.958 0 0 1-1.366 0 .314.314 0 0 0-.446 0 .957.957 0 0 1-1.367 0 .983.983 0 0 1 0-1.38 2.233 2.233 0 0 1 3.18 0c.376.38.376 1 0 1.38z"/></g></g></svg>