<svg xmlns="http://www.w3.org/2000/svg" width="44" height="44" viewBox="0 0 44 44"><defs><clipPath id="yf1aa"><path fill="#fff" d="M44 7.217c0 3.981-3.238 7.22-7.219 7.22-3.98 0-7.219-3.239-7.219-7.22 0-3.98 3.239-7.218 7.22-7.218C40.761-.001 44 3.238 44 7.217zm-1.719 0c0-3.032-2.467-5.5-5.5-5.5a5.506 5.506 0 0 0-5.5 5.5c0 3.034 2.467 5.5 5.5 5.5s5.5-2.466 5.5-5.5zm-14.867 6.36a.866.866 0 0 1-.252.608.866.866 0 0 1-.607.251.866.866 0 0 1-.608-.251.866.866 0 0 1-.252-.608c0-.226.092-.448.252-.608a.865.865 0 0 1 .608-.251c.226 0 .447.091.607.251.16.16.252.382.252.608zm7.82 4.226v4.712a.86.86 0 0 1-.86.859H11a.86.86 0 0 1-.86-.86v-8.937a.86.86 0 0 1 .86-.86h11a.86.86 0 1 1 0 1.72H11.86v7.218h21.655v-3.852a.86.86 0 1 1 1.72 0zm0 13.65a.859.859 0 0 1-.86.858H24.77a.859.859 0 1 1 0-1.718h9.605a.86.86 0 0 1 .86.86zm0-4.47a.86.86 0 0 1-.86.86H24.77a.86.86 0 0 1 0-1.719h9.605c.474 0 .86.384.86.859zm0 8.938a.86.86 0 0 1-.86.86H24.77a.86.86 0 0 1 0-1.72h9.605a.86.86 0 0 1 .86.86zm-13.77-8.938v8.938a.86.86 0 0 1-.859.86H11a.86.86 0 0 1 0-1.72h8.746v-7.218h-3.944a.86.86 0 0 1 0-1.719h4.803c.475 0 .86.384.86.859zm17.895-8.809v7.418a.86.86 0 0 1-1.719 0v-7.418a.86.86 0 0 1 1.72 0zm0 10.872a.867.867 0 0 1-.251.607.865.865 0 0 1-.608.252.866.866 0 0 1-.608-.252.867.867 0 0 1-.252-.607c0-.226.092-.448.252-.608a.867.867 0 0 1 .608-.252c.226 0 .448.092.608.252.16.16.251.382.251.608zm0 3.84v8.535a2.582 2.582 0 0 1-2.578 2.578H8.594a2.582 2.582 0 0 1-2.555-2.232c-.015.014-.023-.008-.023-.077v-5.77c0-.265.122-.515.331-.678l5.532-4.3c.414-.322.605-.84.5-1.353a1.35 1.35 0 0 0-.65-.905 1.348 1.348 0 0 0-1.108-.119l-3.482 1.126a.859.859 0 1 1-.529-1.635l3.482-1.126a3.09 3.09 0 0 1 2.5.269 3.09 3.09 0 0 1 1.47 2.043 3.065 3.065 0 0 1-1.128 3.057l-5.2 4.042v5.08c0 .474.386.86.86.86H36.78a.86.86 0 0 0 .86-.86v-8.534a.86.86 0 1 1 1.718 0zM27.013 6.703a.86.86 0 0 1-.86.86H8.593a.86.86 0 0 0-.859.859v17.17a.86.86 0 1 1-1.718 0v-3.533L1.719 28.58v14.56a.86.86 0 0 1-1.72 0V28.322a.86.86 0 0 1 .143-.473l5.874-8.915V8.42a2.58 2.58 0 0 1 2.578-2.578h17.56a.86.86 0 0 1 .859.86zm13.025-.265l-2.821 2.821a.857.857 0 0 1-1.215 0l-1.41-1.41a.86.86 0 0 1 1.214-1.216l.803.803 2.214-2.213a.86.86 0 0 1 1.215 1.215z"/></clipPath></defs><g><g><path fill="#ff2e4e" d="M44 7.217c0 3.981-3.238 7.22-7.219 7.22-3.98 0-7.219-3.239-7.219-7.22 0-3.98 3.239-7.218 7.22-7.218C40.761-.001 44 3.238 44 7.217zm-1.719 0c0-3.032-2.467-5.5-5.5-5.5a5.506 5.506 0 0 0-5.5 5.5c0 3.034 2.467 5.5 5.5 5.5s5.5-2.466 5.5-5.5zm-14.867 6.36a.866.866 0 0 1-.252.608.866.866 0 0 1-.607.251.866.866 0 0 1-.608-.251.866.866 0 0 1-.252-.608c0-.226.092-.448.252-.608a.865.865 0 0 1 .608-.251c.226 0 .447.091.607.251.16.16.252.382.252.608zm7.82 4.226v4.712a.86.86 0 0 1-.86.859H11a.86.86 0 0 1-.86-.86v-8.937a.86.86 0 0 1 .86-.86h11a.86.86 0 1 1 0 1.72H11.86v7.218h21.655v-3.852a.86.86 0 1 1 1.72 0zm0 13.65a.859.859 0 0 1-.86.858H24.77a.859.859 0 1 1 0-1.718h9.605a.86.86 0 0 1 .86.86zm0-4.47a.86.86 0 0 1-.86.86H24.77a.86.86 0 0 1 0-1.719h9.605c.474 0 .86.384.86.859zm0 8.938a.86.86 0 0 1-.86.86H24.77a.86.86 0 0 1 0-1.72h9.605a.86.86 0 0 1 .86.86zm-13.77-8.938v8.938a.86.86 0 0 1-.859.86H11a.86.86 0 0 1 0-1.72h8.746v-7.218h-3.944a.86.86 0 0 1 0-1.719h4.803c.475 0 .86.384.86.859zm17.895-8.809v7.418a.86.86 0 0 1-1.719 0v-7.418a.86.86 0 0 1 1.72 0zm0 10.872a.867.867 0 0 1-.251.607.865.865 0 0 1-.608.252.866.866 0 0 1-.608-.252.867.867 0 0 1-.252-.607c0-.226.092-.448.252-.608a.867.867 0 0 1 .608-.252c.226 0 .448.092.608.252.16.16.251.382.251.608zm0 3.84v8.535a2.582 2.582 0 0 1-2.578 2.578H8.594a2.582 2.582 0 0 1-2.555-2.232c-.015.014-.023-.008-.023-.077v-5.77c0-.265.122-.515.331-.678l5.532-4.3c.414-.322.605-.84.5-1.353a1.35 1.35 0 0 0-.65-.905 1.348 1.348 0 0 0-1.108-.119l-3.482 1.126a.859.859 0 1 1-.529-1.635l3.482-1.126a3.09 3.09 0 0 1 2.5.269 3.09 3.09 0 0 1 1.47 2.043 3.065 3.065 0 0 1-1.128 3.057l-5.2 4.042v5.08c0 .474.386.86.86.86H36.78a.86.86 0 0 0 .86-.86v-8.534a.86.86 0 1 1 1.718 0zM27.013 6.703a.86.86 0 0 1-.86.86H8.593a.86.86 0 0 0-.859.859v17.17a.86.86 0 1 1-1.718 0v-3.533L1.719 28.58v14.56a.86.86 0 0 1-1.72 0V28.322a.86.86 0 0 1 .143-.473l5.874-8.915V8.42a2.58 2.58 0 0 1 2.578-2.578h17.56a.86.86 0 0 1 .859.86zm13.025-.265l-2.821 2.821a.857.857 0 0 1-1.215 0l-1.41-1.41a.86.86 0 0 1 1.214-1.216l.803.803 2.214-2.213a.86.86 0 0 1 1.215 1.215z"/><path fill="none" stroke="#fff" stroke-miterlimit="50" stroke-width=".4" d="M44 7.217c0 3.981-3.238 7.22-7.219 7.22-3.98 0-7.219-3.239-7.219-7.22 0-3.98 3.239-7.218 7.22-7.218C40.761-.001 44 3.238 44 7.217zm-1.719 0c0-3.032-2.467-5.5-5.5-5.5a5.506 5.506 0 0 0-5.5 5.5c0 3.034 2.467 5.5 5.5 5.5s5.5-2.466 5.5-5.5zm-14.867 6.36a.866.866 0 0 1-.252.608.866.866 0 0 1-.607.251.866.866 0 0 1-.608-.251.866.866 0 0 1-.252-.608c0-.226.092-.448.252-.608a.865.865 0 0 1 .608-.251c.226 0 .447.091.607.251.16.16.252.382.252.608zm7.82 4.226v4.712a.86.86 0 0 1-.86.859H11a.86.86 0 0 1-.86-.86v-8.937a.86.86 0 0 1 .86-.86h11a.86.86 0 1 1 0 1.72H11.86v7.218h21.655v-3.852a.86.86 0 1 1 1.72 0zm0 13.65a.859.859 0 0 1-.86.858H24.77a.859.859 0 1 1 0-1.718h9.605a.86.86 0 0 1 .86.86zm0-4.47a.86.86 0 0 1-.86.86H24.77a.86.86 0 0 1 0-1.719h9.605c.474 0 .86.384.86.859zm0 8.938a.86.86 0 0 1-.86.86H24.77a.86.86 0 0 1 0-1.72h9.605a.86.86 0 0 1 .86.86zm-13.77-8.938v8.938a.86.86 0 0 1-.859.86H11a.86.86 0 0 1 0-1.72h8.746v-7.218h-3.944a.86.86 0 0 1 0-1.719h4.803c.475 0 .86.384.86.859zm17.895-8.809v7.418a.86.86 0 0 1-1.719 0v-7.418a.86.86 0 0 1 1.72 0zm0 10.872a.867.867 0 0 1-.251.607.865.865 0 0 1-.608.252.866.866 0 0 1-.608-.252.867.867 0 0 1-.252-.607c0-.226.092-.448.252-.608a.867.867 0 0 1 .608-.252c.226 0 .448.092.608.252.16.16.251.382.251.608zm0 3.84v8.535a2.582 2.582 0 0 1-2.578 2.578H8.594a2.582 2.582 0 0 1-2.555-2.232c-.015.014-.023-.008-.023-.077v-5.77c0-.265.122-.515.331-.678l5.532-4.3c.414-.322.605-.84.5-1.353a1.35 1.35 0 0 0-.65-.905 1.348 1.348 0 0 0-1.108-.119l-3.482 1.126a.859.859 0 1 1-.529-1.635l3.482-1.126a3.09 3.09 0 0 1 2.5.269 3.09 3.09 0 0 1 1.47 2.043 3.065 3.065 0 0 1-1.128 3.057l-5.2 4.042v5.08c0 .474.386.86.86.86H36.78a.86.86 0 0 0 .86-.86v-8.534a.86.86 0 1 1 1.718 0zM27.013 6.703a.86.86 0 0 1-.86.86H8.593a.86.86 0 0 0-.859.859v17.17a.86.86 0 1 1-1.718 0v-3.533L1.719 28.58v14.56a.86.86 0 0 1-1.72 0V28.322a.86.86 0 0 1 .143-.473l5.874-8.915V8.42a2.58 2.58 0 0 1 2.578-2.578h17.56a.86.86 0 0 1 .859.86zm13.025-.265l-2.821 2.821a.857.857 0 0 1-1.215 0l-1.41-1.41a.86.86 0 0 1 1.214-1.216l.803.803 2.214-2.213a.86.86 0 0 1 1.215 1.215z" clip-path="url(&quot;#yf1aa&quot;)"/></g></g></svg>