<svg xmlns="http://www.w3.org/2000/svg" width="58" height="50" viewBox="0 0 58 50"><g><g><path d="M13.136 15.988l-1.87.097a32.161 32.161 0 0 1-.04-1.62v-.315h1.87v.316c0 .509.015 1.015.04 1.522zm4.613 14.45l-1.574 1.02a31.718 31.718 0 0 1-4.75-13.429l1.86-.214a29.832 29.832 0 0 0 4.464 12.622zM35.529 6.48A11.56 11.56 0 0 1 29 8.49c-2.34 0-4.597-.695-6.528-2.01l1.047-1.563A9.71 9.71 0 0 0 29 6.602a9.704 9.704 0 0 0 5.483-1.687zM14.968 38.677v1.887c-3.61 0-6.549 2.964-6.549 6.604H6.55c0-3.64-2.94-6.604-6.55-6.604v-1.887c3.61 0 6.55-2.962 6.55-6.604h1.87c0 3.642 2.939 6.604 6.549 6.604zm-3.84.944a8.497 8.497 0 0 1-3.644-3.675 8.497 8.497 0 0 1-3.644 3.675 8.493 8.493 0 0 1 3.644 3.675 8.494 8.494 0 0 1 3.643-3.675zM58 14.15v1.886c-3.61 0-6.549 2.963-6.549 6.604h-1.87c0-.033-.005-.066-.004-.098A35.636 35.636 0 0 1 44.973 33.5a33.404 33.404 0 0 0-4.261 9.934l-1.019 4.108a3.213 3.213 0 0 1-3.118 2.457 3.204 3.204 0 0 1-3.18-2.761l-2.098-14.112A2.317 2.317 0 0 0 29 31.13c-1.16 0-2.126.84-2.299 1.996l-2.098 14.112a3.203 3.203 0 0 1-3.179 2.76 3.213 3.213 0 0 1-3.118-2.456l-1.018-4.108a33.417 33.417 0 0 0-4.26-9.934 35.346 35.346 0 0 1-5.544-19.034v-2.488c0-6.606 5.328-11.98 11.878-11.98 2.321 0 4.503.634 6.31 1.83a6.058 6.058 0 0 0 6.656 0c1.808-1.196 3.989-1.83 6.31-1.83 4.913 0 9.25 3.104 11.022 7.548h1.791c0 3.64 2.939 6.604 6.549 6.604zm-9.64 4.664c-1.188-1.678-3.131-2.778-5.328-2.778V14.15c2.333 0 4.38-1.242 5.54-3.1l-.04-.614c-.7-4.842-4.96-8.55-9.895-8.55-1.954 0-3.78.525-5.282 1.52A7.751 7.751 0 0 1 29 4.715a7.757 7.757 0 0 1-4.357-1.31c-1.5-.995-3.326-1.52-5.28-1.52-5.52 0-10.008 4.527-10.008 10.092v2.488c0 6.4 1.813 12.63 5.245 18.013A35.26 35.26 0 0 1 19.1 42.977l1.02 4.108c.15.605.686 1.027 1.303 1.027.67 0 1.23-.486 1.329-1.155l2.098-14.111c.31-2.088 2.056-3.603 4.149-3.603 2.092 0 3.838 1.515 4.149 3.603l2.098 14.111a1.339 1.339 0 0 0 2.63.128l1.02-4.108A35.303 35.303 0 0 1 43.4 32.48a33.693 33.693 0 0 0 4.96-13.665zm5.8-3.72a8.5 8.5 0 0 1-3.644-3.676 8.5 8.5 0 0 1-3.644 3.675 8.49 8.49 0 0 1 3.644 3.674 8.49 8.49 0 0 1 3.644-3.674z"/></g></g></svg>