<svg xmlns="http://www.w3.org/2000/svg" width="30" height="30" viewBox="0 0 30 30"><g><g><path fill="#009ee8" d="M25.605 4.393C28.315 7.113 30 10.86 30 15a15 15 0 0 1-15.005 15c-4.14 0-7.888-1.684-10.599-4.393A14.94 14.94 0 0 1 0 15 14.94 14.94 0 0 1 4.394 4.393 14.955 14.955 0 0 1 14.994 0c4.141 0 7.89 1.683 10.611 4.393zm-2.963 9.788c.45 0 .807.37.807.819 0 .45-.357.819-.807.819h-7.648a.819.819 0 0 1-.703-.415l-.012-.012-.011-.023v-.012l-.012-.023-.012-.023v-.012l-.011-.023-.012-.012v-.023l-.011-.023v-.012l-.012-.023v-.047l-.012-.011v-9.89c0-.45.358-.808.808-.808.45 0 .819.358.819.807v8.947zM14.994 1.638c-3.69 0-7.035 1.486-9.457 3.908A13.369 13.369 0 0 0 1.627 15c0 3.69 1.499 7.033 3.91 9.454a13.33 13.33 0 0 0 9.457 3.909 13.33 13.33 0 0 0 9.458-3.909A13.33 13.33 0 0 0 28.374 15c0-3.69-1.5-7.033-3.922-9.454a13.33 13.33 0 0 0-9.458-3.908z"/></g></g></svg>