<svg xmlns="http://www.w3.org/2000/svg" width="12" height="11" viewBox="0 0 12 11"><g><path d="M11.998 2.27v4.616c0 1.059-.7 1.948-1.646 2.2L9.27 10.677a.733.733 0 0 1-.606.325.733.733 0 0 1-.606-.33l-1.023-1.52H2.192C.982 9.152.001 8.14.001 6.886V2.269C0 1.015.982.001 2.192.001H9.81c1.21 0 2.19 1.014 2.19 2.268zM4.76 4.577a.726.726 0 0 0-.714-.738.726.726 0 0 0-.715.738c0 .407.32.738.715.738.395 0 .714-.33.714-.738zm1.956 0a.726.726 0 0 0-.714-.738.726.726 0 0 0-.715.738c0 .407.32.738.715.738.394 0 .714-.33.714-.738zm1.956 0a.726.726 0 0 0-.714-.738.726.726 0 0 0-.715.738c0 .407.32.738.715.738.394 0 .714-.33.714-.738z"/></g></svg>