<svg xmlns="http://www.w3.org/2000/svg" width="40" height="40" viewBox="0 0 40 40"><g><g><path fill="#1e9ce5" d="M39.193 4.654c-.35.351-1.357 1.14-2.728 2.084.053.265.082.538.082.818v9.49a4.765 4.765 0 0 1-1.405 3.39l-18.968 18.97a2.023 2.023 0 0 1-1.435.593c-.52 0-1.04-.198-1.436-.594L.595 26.697A2.017 2.017 0 0 1 0 25.26c0-.542.211-1.052.595-1.436L19.562 4.856a4.763 4.763 0 0 1 3.391-1.404h9.49c1.51 0 2.831.821 3.544 2.04 1.205-.842 2.045-1.509 2.29-1.754.273-.273.425-.635.426-1.02a1.409 1.409 0 0 0-1.417-1.423h-.006a1.443 1.443 0 0 0-1.02.427c-.13.13-.412.454-.753.865a.648.648 0 0 1-.997-.828c.218-.263.616-.735.834-.954a2.73 2.73 0 0 1 1.93-.806 2.698 2.698 0 0 1 1.932.794c.514.515.796 1.2.793 1.93a2.729 2.729 0 0 1-.806 1.931zm-3.942 12.392v-9.49-.006c-.701.456-1.461.926-2.252 1.386.237.906.003 1.91-.706 2.62-.53.53-1.227.795-1.924.795a2.713 2.713 0 0 1-1.925-.796 2.726 2.726 0 0 1 0-3.85 2.725 2.725 0 0 1 3.937.092c.909-.53 1.766-1.069 2.532-1.575a2.81 2.81 0 0 0-2.47-1.473h-9.49c-.934 0-1.813.363-2.474 1.024L1.51 24.742a.73.73 0 0 0 0 1.039L14.22 38.488a.735.735 0 0 0 1.039 0l18.968-18.968a3.477 3.477 0 0 0 1.025-2.475zm-5.173-7.994c.375-.19.747-.385 1.114-.584a1.422 1.422 0 0 0-1.831.154 1.428 1.428 0 0 0 0 2.016c.556.556 1.46.556 2.016 0a1.42 1.42 0 0 0 .416-1.023 39.58 39.58 0 0 1-1.133.594.648.648 0 0 1-.582-1.158zm-10.12 4.795v13.686a.648.648 0 1 1-1.297 0V13.847a.648.648 0 1 1 1.296 0zm-2.815 6.843c0 .728-.283 1.41-.797 1.925-.53.53-1.228.796-1.925.796a2.714 2.714 0 0 1-1.924-.796 2.725 2.725 0 0 1 0-3.85 2.725 2.725 0 0 1 3.849 0c.514.515.797 1.198.797 1.925zm-1.296 0a1.421 1.421 0 0 0-1.426-1.425 1.428 1.428 0 0 0-1.008 2.433 1.427 1.427 0 0 0 2.434-1.008zm10.275 1.925c-.531.53-1.228.796-1.925.796a2.714 2.714 0 0 1-1.925-.796 2.725 2.725 0 0 1 0-3.85 2.725 2.725 0 0 1 3.85 0 2.725 2.725 0 0 1 0 3.85zm-.917-2.933a1.422 1.422 0 0 0-1.008-.417 1.428 1.428 0 0 0-1.008 2.433c.556.556 1.46.556 2.016 0a1.428 1.428 0 0 0 0-2.016z"/></g></g></svg>