<svg xmlns="http://www.w3.org/2000/svg" width="26" height="30" viewBox="0 0 26 30"><g><path d="M25.72 29.533a1.27 1.27 0 0 1-.982.467H1.287c-.38 0-.738-.17-.983-.467a1.334 1.334 0 0 1-.285-1.07L.447 25.9c.04-.239.263-.4.496-.359a.439.439 0 0 1 .352.507l-.429 2.564a.436.436 0 0 0 .42.51h23.452a.435.435 0 0 0 .42-.51l-1.298-7.77a1.328 1.328 0 0 0-.917-1.06l-3.238-1v2.332c1.018.207 1.788 1.127 1.788 2.229 0 1.253-.997 2.273-2.223 2.273s-2.223-1.02-2.223-2.273c0-1.105.775-2.028 1.798-2.231v-2.595l-1.477-.456c-.134.29-.4.916-.929 2.266a371.1 371.1 0 0 0-1.84 4.837c-.424 1.132-.834 2.24-1.185 3.196a.43.43 0 0 1-.402.285.43.43 0 0 1-.402-.285 584.02 584.02 0 0 0-1.2-3.237 370.202 370.202 0 0 0-1.826-4.799c-.528-1.348-.794-1.973-.928-2.263l-1.477.456v1.131a2.134 2.134 0 0 1 1.6 1.287c.093.221.149.456.167.696l.313 4.107c.024.31-.081.617-.287.845a1.085 1.085 0 0 1-.802.359h-.536a.435.435 0 0 1-.43-.44c0-.242.193-.439.43-.439h.536a.232.232 0 0 0 .17-.076.242.242 0 0 0 .062-.18l-.313-4.108a1.286 1.286 0 0 0-1.3-1.208h-.08a1.301 1.301 0 0 0-1.294 1.208l-.313 4.107a.242.242 0 0 0 .06.18.23.23 0 0 0 .172.077h.535c.238 0 .43.197.43.439 0 .243-.192.44-.43.44h-.535c-.304 0-.596-.131-.802-.359a1.136 1.136 0 0 1-.287-.845l.313-4.107a2.162 2.162 0 0 1 1.761-1.98v-.869l-3.238 1a1.328 1.328 0 0 0-.917 1.06l-.527 3.156a.43.43 0 0 1-.496.359.439.439 0 0 1-.35-.507l.526-3.156c.14-.836.72-1.509 1.516-1.754l3.501-1.08c.135-1.616 1.22-2.984 2.71-3.468a7.19 7.19 0 0 1-.308-.373c-.833-1.082-1.278-2.275-1.392-3.09h-.27c-.702 0-1.274-.584-1.274-1.302v-.668c0-.48.264-.914.66-1.14v-4.36c0-1.907 1.518-3.459 3.383-3.459h6.338c1.865 0 3.383 1.552 3.383 3.459v.69c0 .243-.193.44-.43.44a.435.435 0 0 1-.43-.44v-.69c0-1.422-1.131-2.58-2.523-2.58H9.843c-1.391 0-2.523 1.158-2.523 2.58v4.558a2.612 2.612 0 0 1 .77.266v-3.54c0-.978.778-1.774 1.735-1.774h1.186c.409 0 .808.146 1.125.41l.117.098c.213.179.483.277.76.277.275 0 .545-.098.759-.277l.116-.098a1.76 1.76 0 0 1 1.126-.41H16.2c.956 0 1.734.796 1.734 1.774v3.54a2.435 2.435 0 0 1 .77-.266V6.214c0-.244.193-.44.43-.44.238 0 .43.197.43.44v1.605c.397.225.66.66.66 1.14v.667c0 .718-.571 1.303-1.274 1.303h-.27c-.113.814-.559 2.007-1.392 3.089a7.324 7.324 0 0 1-.307.373c.647.21 1.235.591 1.702 1.114.584.653.935 1.48 1.007 2.353l3.501 1.08a2.197 2.197 0 0 1 1.516 1.755l1.298 7.77c.064.383-.04.773-.285 1.07zM18.71 8.91v1.14h.24a.42.42 0 0 0 .415-.425v-.668a.425.425 0 0 0-.03-.155.436.436 0 0 1-.21.05c-.003 0-.186 0-.415.058zm-11.395 1.14V8.91c-.229-.058-.412-.057-.415-.057a.435.435 0 0 1-.21-.051.426.426 0 0 0-.03.155v.668a.42.42 0 0 0 .414.424zm2.096 3.424a5.72 5.72 0 0 0 1.069 1.073c.652.493 1.492.871 2.532.871s1.88-.378 2.533-.871a5.716 5.716 0 0 0 1.068-1.073c.804-1.045 1.237-2.29 1.237-2.933V9.39a.585.585 0 0 1-.404-.022.616.616 0 0 1-.371-.57V4.743a.887.887 0 0 0-.875-.895h-1.186a.91.91 0 0 0-.582.212l-.116.097c-.367.307-.83.476-1.304.476-.474 0-.937-.169-1.304-.476l-.116-.097a.91.91 0 0 0-.581-.212H9.825a.887.887 0 0 0-.876.895v4.055c0 .25-.146.474-.371.57a.588.588 0 0 1-.404.021v1.154c0 .642.434 1.888 1.237 2.933zm5.98 2.921v-.708a4.872 4.872 0 0 1-2.379.61 4.872 4.872 0 0 1-2.38-.61v.708c0 .416-.156.882-.435 1.244l2.815 2.152 2.815-2.152a2.113 2.113 0 0 1-.435-1.244zm-5.618 0v-1.278c-1.28.194-2.282 1.199-2.533 2.461l1.485-.458a1.152 1.152 0 0 1 .755.03c.173-.194.293-.479.293-.755zm.944 4.463l.422-.183.006-.002 1.011-.44-2.42-1.85.034.083.07.17v.002l.142.349.01.024.012.03.034.084.031.079.022.056.084.21.014.035.047.12.018.046.05.127.014.033.184.472.004.01.062.16.011.03.065.167.002.005.071.184zm1.13 1.528l-.656-.779-.16.07c.123.32.25.657.384 1.01l.256.678zm1.914 2.557L13.36 22.7h-.696l-.4 2.245c.272.73.518 1.395.712 1.92a.44.44 0 0 1 .044.073c.199-.536.455-1.228.741-1.993zm.242-3.696l-.99-.43-.991.43.481.572h1.018zm.99.43l-.16-.07-.655.779.175.98.256-.679.384-1.01zm1.296-3.293l-2.421 1.85 1.012.44.005.001.422.184.072-.186.001-.003.065-.167.012-.03.061-.159.006-.015.182-.465.014-.036.05-.126.018-.048.048-.12.014-.037.092-.23.012-.03.036-.089.028-.071.015-.036.011-.03.063-.154.004-.011.069-.168.009-.022.066-.16.034-.082zm2.497-.805c-.248-1.274-1.247-2.269-2.535-2.463v1.28c0 .275.12.56.293.753a1.15 1.15 0 0 1 .754-.03l.001.001zm.484 4.368c-.752 0-1.364.625-1.364 1.394 0 .769.612 1.395 1.364 1.395.752 0 1.364-.626 1.364-1.395s-.612-1.394-1.364-1.394z"/></g></svg>