<svg xmlns="http://www.w3.org/2000/svg" width="18" height="11" viewBox="0 0 18 11"><g><path d="M17.83 5.064a.746.746 0 0 1 0 .872C15.534 9.07 12.42 11 8.986 11c-3.433 0-6.547-1.93-8.845-5.066a.746.746 0 0 1 0-.872C2.438 1.927 5.552-.002 8.985-.002c3.434 0 6.548 1.93 8.846 5.066zm-5.073.688c.144-2.345-1.739-4.273-4.018-4.126-1.882.12-3.408 1.687-3.525 3.62C5.07 7.59 6.952 9.518 9.232 9.372c1.878-.125 3.404-1.691 3.525-3.62zm-3.64 1.83c-1.227.08-2.242-.959-2.16-2.22.062-1.041.885-1.883 1.9-1.951 1.228-.08 2.242.96 2.161 2.22-.066 1.045-.89 1.887-1.9 1.951z"/></g></svg>