<svg xmlns="http://www.w3.org/2000/svg" width="41" height="44" viewBox="0 0 41 44"><defs><clipPath id="vyj5a"><path fill="#fff" d="M30.063 27.866h-4.4a.733.733 0 0 1 0-1.466h4.4a.734.734 0 0 1 0 1.466zm0-17.6h7.333c.405 0 .733.329.733.734v14.666a.734.734 0 0 1-1.466 0V11.733h-6.6a3.67 3.67 0 0 1-3.666-3.667V4.4a.734.734 0 0 1 1.466 0v3.666c0 1.213.987 2.2 2.2 2.2zm.733 8.067a.734.734 0 0 1-.733.733h-5.866a.733.733 0 0 1 0-1.466h5.866c.405 0 .733.328.733.733zm-9.532.733h-4.4a.734.734 0 0 1 0-1.466h4.4a.733.733 0 0 1 0 1.466zM16.864 22h1.467a.733.733 0 0 1 0 1.466h-1.466a.733.733 0 0 1 0-1.466zm-.733-8.067c0-.405.329-.734.734-.734h7.332a.734.734 0 0 1 0 1.467h-7.332a.734.734 0 0 1-.734-.733zm4.4 8.8c0-.405.328-.733.733-.733h7.333a.734.734 0 0 1 0 1.466h-7.333a.733.733 0 0 1-.733-.733zm6.6 8.067a.733.733 0 0 1 0 1.466h-1.467a.733.733 0 0 1 0-1.466zm-3.667-3.667a.733.733 0 0 1-.733.733h-5.866a.733.733 0 0 1 0-1.466h5.866c.404 0 .733.328.733.733zm0 4.4a.733.733 0 0 1-.733.733h-5.866a.733.733 0 0 1 0-1.466h5.866c.404 0 .733.328.733.733zm16.725 2.644l-9.607 9.608a.735.735 0 0 1-.519.215h-4.4a.734.734 0 0 1-.732-.734v-4.4c0-.194.077-.381.214-.518l9.607-9.609c1.126-1.124 2.843-1.127 3.97 0l1.467 1.467c1.168 1.17 1.168 2.802 0 3.97zm-12.755 3.956l1.163 1.163 6.37-6.371-1.163-1.163zm2.326 4.4l-3.363-3.363v3.363zm7.407-7.408l-1.163-1.163-6.37 6.37 1.162 1.164zm1.985-3.882l-1.467-1.466c-.582-.582-1.317-.58-1.896 0l-.948.948 3.363 3.363.948-.949c.593-.593.593-1.302 0-1.896zM23.464 43.266a.734.734 0 0 1-.733.734H3.666A3.67 3.67 0 0 1 0 40.333V3.667A3.67 3.67 0 0 1 3.666 0H27.13a.73.73 0 0 1 .519.215l7.332 7.333a.733.733 0 1 1-1.037 1.037l-7.117-7.119H3.666c-1.213 0-2.2.987-2.2 2.2v36.667c0 1.213.987 2.2 2.2 2.2h19.065c.404 0 .733.329.733.733zm0-7.333a.733.733 0 0 1-.733.733h-5.866a.733.733 0 0 1 0-1.466h5.866c.404 0 .733.328.733.733zm-10.266-17.6a.733.733 0 0 1-.733.733h-4.4a.734.734 0 0 1-.733-.733v-4.4c0-.405.329-.733.734-.733h4.4c.404 0 .732.328.732.733zm-1.466-3.667H8.799V17.6h2.933zm-4.4 21.267v-4.4c0-.405.329-.733.734-.733h4.399c.405 0 .733.328.733.733v4.4a.733.733 0 0 1-.733.733h-4.4a.733.733 0 0 1-.733-.733zM8.8 35.2h2.933v-2.934H8.799zm-1.252-9.015a.732.732 0 1 1 1.037-1.037l.834.834 2.437-3.656a.733.733 0 1 1 1.22.814l-2.933 4.4a.728.728 0 0 1-.61.326.734.734 0 0 1-.518-.215z"/></clipPath></defs><g><g><path fill="#ff314e" d="M30.063 27.866h-4.4a.733.733 0 0 1 0-1.466h4.4a.734.734 0 0 1 0 1.466zm0-17.6h7.333c.405 0 .733.329.733.734v14.666a.734.734 0 0 1-1.466 0V11.733h-6.6a3.67 3.67 0 0 1-3.666-3.667V4.4a.734.734 0 0 1 1.466 0v3.666c0 1.213.987 2.2 2.2 2.2zm.733 8.067a.734.734 0 0 1-.733.733h-5.866a.733.733 0 0 1 0-1.466h5.866c.405 0 .733.328.733.733zm-9.532.733h-4.4a.734.734 0 0 1 0-1.466h4.4a.733.733 0 0 1 0 1.466zM16.864 22h1.467a.733.733 0 0 1 0 1.466h-1.466a.733.733 0 0 1 0-1.466zm-.733-8.067c0-.405.329-.734.734-.734h7.332a.734.734 0 0 1 0 1.467h-7.332a.734.734 0 0 1-.734-.733zm4.4 8.8c0-.405.328-.733.733-.733h7.333a.734.734 0 0 1 0 1.466h-7.333a.733.733 0 0 1-.733-.733zm6.6 8.067a.733.733 0 0 1 0 1.466h-1.467a.733.733 0 0 1 0-1.466zm-3.667-3.667a.733.733 0 0 1-.733.733h-5.866a.733.733 0 0 1 0-1.466h5.866c.404 0 .733.328.733.733zm0 4.4a.733.733 0 0 1-.733.733h-5.866a.733.733 0 0 1 0-1.466h5.866c.404 0 .733.328.733.733zm16.725 2.644l-9.607 9.608a.735.735 0 0 1-.519.215h-4.4a.734.734 0 0 1-.732-.734v-4.4c0-.194.077-.381.214-.518l9.607-9.609c1.126-1.124 2.843-1.127 3.97 0l1.467 1.467c1.168 1.17 1.168 2.802 0 3.97zm-12.755 3.956l1.163 1.163 6.37-6.371-1.163-1.163zm2.326 4.4l-3.363-3.363v3.363zm7.407-7.408l-1.163-1.163-6.37 6.37 1.162 1.164zm1.985-3.882l-1.467-1.466c-.582-.582-1.317-.58-1.896 0l-.948.948 3.363 3.363.948-.949c.593-.593.593-1.302 0-1.896zM23.464 43.266a.734.734 0 0 1-.733.734H3.666A3.67 3.67 0 0 1 0 40.333V3.667A3.67 3.67 0 0 1 3.666 0H27.13a.73.73 0 0 1 .519.215l7.332 7.333a.733.733 0 1 1-1.037 1.037l-7.117-7.119H3.666c-1.213 0-2.2.987-2.2 2.2v36.667c0 1.213.987 2.2 2.2 2.2h19.065c.404 0 .733.329.733.733zm0-7.333a.733.733 0 0 1-.733.733h-5.866a.733.733 0 0 1 0-1.466h5.866c.404 0 .733.328.733.733zm-10.266-17.6a.733.733 0 0 1-.733.733h-4.4a.734.734 0 0 1-.733-.733v-4.4c0-.405.329-.733.734-.733h4.4c.404 0 .732.328.732.733zm-1.466-3.667H8.799V17.6h2.933zm-4.4 21.267v-4.4c0-.405.329-.733.734-.733h4.399c.405 0 .733.328.733.733v4.4a.733.733 0 0 1-.733.733h-4.4a.733.733 0 0 1-.733-.733zM8.8 35.2h2.933v-2.934H8.799zm-1.252-9.015a.732.732 0 1 1 1.037-1.037l.834.834 2.437-3.656a.733.733 0 1 1 1.22.814l-2.933 4.4a.728.728 0 0 1-.61.326.734.734 0 0 1-.518-.215z"/><path fill="none" stroke="#fff" stroke-miterlimit="50" stroke-width=".2" d="M30.063 27.866h-4.4a.733.733 0 0 1 0-1.466h4.4a.734.734 0 0 1 0 1.466zm0-17.6h7.333c.405 0 .733.329.733.734v14.666a.734.734 0 0 1-1.466 0V11.733h-6.6a3.67 3.67 0 0 1-3.666-3.667V4.4a.734.734 0 0 1 1.466 0v3.666c0 1.213.987 2.2 2.2 2.2zm.733 8.067a.734.734 0 0 1-.733.733h-5.866a.733.733 0 0 1 0-1.466h5.866c.405 0 .733.328.733.733zm-9.532.733h-4.4a.734.734 0 0 1 0-1.466h4.4a.733.733 0 0 1 0 1.466zM16.864 22h1.467a.733.733 0 0 1 0 1.466h-1.466a.733.733 0 0 1 0-1.466zm-.733-8.067c0-.405.329-.734.734-.734h7.332a.734.734 0 0 1 0 1.467h-7.332a.734.734 0 0 1-.734-.733zm4.4 8.8c0-.405.328-.733.733-.733h7.333a.734.734 0 0 1 0 1.466h-7.333a.733.733 0 0 1-.733-.733zm6.6 8.067a.733.733 0 0 1 0 1.466h-1.467a.733.733 0 0 1 0-1.466zm-3.667-3.667a.733.733 0 0 1-.733.733h-5.866a.733.733 0 0 1 0-1.466h5.866c.404 0 .733.328.733.733zm0 4.4a.733.733 0 0 1-.733.733h-5.866a.733.733 0 0 1 0-1.466h5.866c.404 0 .733.328.733.733zm16.725 2.644l-9.607 9.608a.735.735 0 0 1-.519.215h-4.4a.734.734 0 0 1-.732-.734v-4.4c0-.194.077-.381.214-.518l9.607-9.609c1.126-1.124 2.843-1.127 3.97 0l1.467 1.467c1.168 1.17 1.168 2.802 0 3.97zm-12.755 3.956l1.163 1.163 6.37-6.371-1.163-1.163zm2.326 4.4l-3.363-3.363v3.363zm7.407-7.408l-1.163-1.163-6.37 6.37 1.162 1.164zm1.985-3.882l-1.467-1.466c-.582-.582-1.317-.58-1.896 0l-.948.948 3.363 3.363.948-.949c.593-.593.593-1.302 0-1.896zM23.464 43.266a.734.734 0 0 1-.733.734H3.666A3.67 3.67 0 0 1 0 40.333V3.667A3.67 3.67 0 0 1 3.666 0H27.13a.73.73 0 0 1 .519.215l7.332 7.333a.733.733 0 1 1-1.037 1.037l-7.117-7.119H3.666c-1.213 0-2.2.987-2.2 2.2v36.667c0 1.213.987 2.2 2.2 2.2h19.065c.404 0 .733.329.733.733zm0-7.333a.733.733 0 0 1-.733.733h-5.866a.733.733 0 0 1 0-1.466h5.866c.404 0 .733.328.733.733zm-10.266-17.6a.733.733 0 0 1-.733.733h-4.4a.734.734 0 0 1-.733-.733v-4.4c0-.405.329-.733.734-.733h4.4c.404 0 .732.328.732.733zm-1.466-3.667H8.799V17.6h2.933zm-4.4 21.267v-4.4c0-.405.329-.733.734-.733h4.399c.405 0 .733.328.733.733v4.4a.733.733 0 0 1-.733.733h-4.4a.733.733 0 0 1-.733-.733zM8.8 35.2h2.933v-2.934H8.799zm-1.252-9.015a.732.732 0 1 1 1.037-1.037l.834.834 2.437-3.656a.733.733 0 1 1 1.22.814l-2.933 4.4a.728.728 0 0 1-.61.326.734.734 0 0 1-.518-.215z" clip-path="url(&quot;#vyj5a&quot;)"/></g></g></svg>