<svg xmlns="http://www.w3.org/2000/svg" width="15" height="15" viewBox="0 0 15 15"><g><g><path fill="#009de8" d="M14.926 8.373a.417.417 0 0 1-.438.367l-.093-.002c-.662 0-1.277.408-1.532 1.017a1.664 1.664 0 0 0 .42 1.87.417.417 0 0 1 .044.57 7.468 7.468 0 0 1-1.21 1.2.418.418 0 0 1-.566-.047c-.446-.49-1.238-.675-1.855-.423a1.667 1.667 0 0 0-1.024 1.6.417.417 0 0 1-.37.43 7.43 7.43 0 0 1-1.685-.005.416.416 0 0 1-.368-.438 1.664 1.664 0 0 0-1.013-1.628c-.617-.26-1.419-.076-1.867.42a.416.416 0 0 1-.57.046 7.446 7.446 0 0 1-1.184-1.2.417.417 0 0 1 .045-.566A1.67 1.67 0 0 0 2.08 9.73a1.642 1.642 0 0 0-1.54-1.028c-.215 0-.468-.157-.492-.369a7.528 7.528 0 0 1 .004-1.706.407.407 0 0 1 .432-.368c.732 0 1.37-.397 1.63-1.014a1.664 1.664 0 0 0-.42-1.871.418.418 0 0 1-.044-.57 7.446 7.446 0 0 1 1.211-1.2.417.417 0 0 1 .565.048c.446.49 1.242.673 1.854.423a1.669 1.669 0 0 0 1.025-1.6.417.417 0 0 1 .371-.43A7.469 7.469 0 0 1 8.36.05c.22.025.38.217.367.438A1.666 1.666 0 0 0 9.74 2.116c.62.26 1.421.075 1.867-.42a.416.416 0 0 1 .57-.046c.435.35.834.753 1.186 1.2a.417.417 0 0 1-.046.565 1.672 1.672 0 0 0-.419 1.855 1.663 1.663 0 0 0 1.55 1.028c.213 0 .459.158.482.37a7.52 7.52 0 0 1-.003 1.705zm-4.928-.857c0-1.38-1.12-2.502-2.498-2.502a2.502 2.502 0 0 0 0 5.003 2.502 2.502 0 0 0 2.498-2.501z"/></g></g></svg>