<svg xmlns="http://www.w3.org/2000/svg" width="44" height="44" viewBox="0 0 44 44"><g><g><path fill="#ff2e4e" d="M15.615 31.814c0 6.255-7.11 11.817-7.413 12.05a.645.645 0 0 1-.789 0C7.111 43.632 0 38.07 0 31.815c0-1.4.377-2.774 1.09-3.973a.644.644 0 0 1 1.108.656c-.595 1-.91 2.147-.91 3.317 0 4.838 5.052 9.468 6.519 10.71 1.466-1.243 6.52-5.88 6.52-10.71 0-3.586-2.925-6.504-6.52-6.504a6.456 6.456 0 0 0-4.06 1.415.645.645 0 0 1-.906-.102.642.642 0 0 1 .103-.903 7.844 7.844 0 0 1 4.863-1.696c4.305 0 7.808 3.495 7.808 7.79zm-4.306 0a3.501 3.501 0 0 1-7.003 0 3.501 3.501 0 0 1 7.003 0zm-1.289 0a2.213 2.213 0 0 0-4.426 0 2.213 2.213 0 0 0 4.426 0zM44 17.013c0 1.6-.495 3.3-1.47 5.05a.645.645 0 0 1-1.126-.623c.868-1.558 1.308-3.048 1.308-4.426 0-3.383-2.758-6.135-6.148-6.135-3.39 0-6.148 2.752-6.148 6.135 0 4.542 4.734 8.908 6.148 10.11.684-.579 2.141-1.894 3.46-3.607a.645.645 0 0 1 .903-.119c.282.217.335.62.119.902-1.896 2.461-4 4.098-4.088 4.166a.643.643 0 0 1-.789 0c-.071-.056-1.772-1.377-3.495-3.43-2.354-2.805-3.547-5.504-3.547-8.022 0-4.092 3.336-7.42 7.437-7.42 4.1 0 7.436 3.328 7.436 7.419zm-4.083 0a3.353 3.353 0 1 1-6.706 0 3.354 3.354 0 0 1 6.706 0zm-1.288 0a2.065 2.065 0 0 0-4.13 0 2.065 2.065 0 0 0 4.13 0zM13.147 6.815a3.112 3.112 0 0 1-6.223 0 3.112 3.112 0 0 1 6.223 0zm-1.288.001a1.824 1.824 0 0 0-3.647 0 1.823 1.823 0 0 0 3.647 0zm5.008 0c0 2.308-1.092 4.779-3.244 7.344a22.979 22.979 0 0 1-3.193 3.133.646.646 0 0 1-.789 0c-.096-.074-2.38-1.852-4.208-4.45a.642.642 0 1 1 1.054-.738c1.278 1.816 2.833 3.236 3.548 3.846 1.327-1.134 5.543-5.06 5.543-9.135 0-3.05-2.486-5.53-5.542-5.53-3.057 0-5.543 2.48-5.543 5.53 0 .992.254 2.054.755 3.157a.643.643 0 1 1-1.173.53c-.578-1.27-.87-2.51-.87-3.687C3.205 3.056 6.269 0 10.035 0c3.767 0 6.831 3.057 6.832 6.816zm2.17 14.27a.645.645 0 0 1-.849.33l-.786-.343a.642.642 0 1 1 .516-1.178l.787.344a.642.642 0 0 1 .332.846zm12.591 5.491a.645.645 0 0 1-.848.332l-.787-.344a.642.642 0 1 1 .516-1.177l.787.343a.643.643 0 0 1 .332.846zm-15.74-6.865a.644.644 0 0 1-.847.332l-.787-.344a.642.642 0 1 1 .516-1.177l.787.343a.642.642 0 0 1 .332.846zm-3.147-1.373a.645.645 0 0 1-.848.332l-.787-.343a.642.642 0 1 1 .516-1.178l.787.343a.642.642 0 0 1 .332.846zm22.035 9.611a.645.645 0 0 1-.848.331l-.787-.343a.642.642 0 1 1 .516-1.177l.787.343a.642.642 0 0 1 .333.846zm-6.295-2.746a.645.645 0 0 1-.849.331l-.787-.343a.642.642 0 1 1 .516-1.177l.787.343a.642.642 0 0 1 .333.846zm-3.148-1.373a.645.645 0 0 1-.849.332l-.787-.344a.642.642 0 1 1 .516-1.178l.787.344c.326.142.475.52.333.846zm-3.148-1.373a.645.645 0 0 1-.849.332l-.786-.344a.642.642 0 1 1 .515-1.177l.787.343a.643.643 0 0 1 .333.846zM11.433 43.07l-.758.403a.643.643 0 0 1-.606-1.134l.758-.403a.642.642 0 1 1 .606 1.134zm3.032-1.612l-.758.403a.645.645 0 0 1-.871-.265.643.643 0 0 1 .265-.87l.758-.402a.644.644 0 0 1 .872.265.641.641 0 0 1-.266.869zm3.032-1.612l-.758.403a.644.644 0 0 1-.606-1.135l.758-.402a.642.642 0 1 1 .606 1.134zm15.159-8.062l-.758.404a.644.644 0 0 1-.606-1.135l.758-.403a.642.642 0 1 1 .606 1.134zm3.031-1.612l-.758.403a.644.644 0 0 1-.871-.265.642.642 0 0 1 .266-.87l.757-.403a.642.642 0 1 1 .606 1.134zm-6.063 3.224l-.758.404a.645.645 0 0 1-.871-.265.642.642 0 0 1 .265-.87l.758-.403a.645.645 0 0 1 .871.265.642.642 0 0 1-.265.87zm-9.096 4.837l-.757.403a.644.644 0 0 1-.872-.265.642.642 0 0 1 .266-.869l.758-.403a.642.642 0 1 1 .606 1.135zm6.064-3.224l-.758.403a.644.644 0 0 1-.606-1.134l.758-.404a.642.642 0 1 1 .606 1.134zM23.56 36.62l-.758.403a.644.644 0 0 1-.871-.265.642.642 0 0 1 .266-.87l.757-.402a.642.642 0 1 1 .606 1.134z"/></g></g></svg>