<svg xmlns="http://www.w3.org/2000/svg" width="41" height="40" viewBox="0 0 41 40"><defs><clipPath id="m48fa"><path fill="#fff" d="M40.975 36.549a.84.84 0 0 1-.229.335l-.007.007-3.134 2.734a.83.83 0 0 1-1.178-.084.846.846 0 0 1 .084-1.187l1.44-1.258H4.806v2.062a.838.838 0 0 1-.836.841.838.838 0 0 1-.836-.84v-2.063H.836A.839.839 0 0 1 0 36.254c0-.464.374-.84.836-.84h2.297V3.123l-1.248 1.45a.832.832 0 0 1-1.18.086.846.846 0 0 1-.083-1.188L3.338.317a.832.832 0 0 1 1.262 0l2.716 3.155a.846.846 0 0 1-.084 1.188.83.83 0 0 1-1.179-.085L4.805 3.123v7.57L7.47 6.488a.832.832 0 0 1 1.481.142l5.258 13.338 4.966-7.599a.832.832 0 0 1 1.49.197l5.422 16.38 4.893-4.928a.831.831 0 0 1 1.09-.08l5.849 4.376c.37.277.447.804.172 1.177a.832.832 0 0 1-1.169.174l-4.548-3.403a.85.85 0 0 1 .033.23v1.01a.839.839 0 0 1-.836.842.839.839 0 0 1-.835-.841v-.858l-4.179 4.209v1.025a.839.839 0 0 1-.835.84.839.839 0 0 1-.835-.84v-1.01c0-.06.006-.118.017-.174l-5.28-15.953-4.769 7.296a.884.884 0 0 1 .004.079v1.01a.838.838 0 0 1-.835.84.839.839 0 0 1-.836-.84v-1.01c0-.05.005-.097.013-.144L8.001 8.78l-3.197 5.042v21.592H7.34v-.168c0-.465.374-.842.836-.842.461 0 .835.377.835.842v.168h4.178v-.168c0-.465.375-.842.836-.842.461 0 .835.377.835.842v.168h4.178v-.168c0-.465.374-.842.836-.842.461 0 .836.377.836.842v.168h4.177v-.168c0-.465.375-.842.836-.842.461 0 .836.377.836.842v.168h4.178v-.168c0-.465.374-.842.835-.842.461 0 .836.377.836.842v.168h5.544l-1.44-1.257a.846.846 0 0 1-.084-1.188.832.832 0 0 1 1.178-.084l3.134 2.734c.263.23.357.602.236.93zm-8.568-5.68v1.01a.839.839 0 0 1-.836.841.838.838 0 0 1-.835-.841v-1.01c0-.465.374-.842.835-.842.461 0 .836.377.836.842zm-11.698 0v1.01a.839.839 0 0 1-.836.841.838.838 0 0 1-.836-.841v-1.01c0-.465.374-.842.836-.842.461 0 .836.377.836.842zm0-7.743a.838.838 0 0 1-.836.842.838.838 0 0 1-.836-.842v-1.01c0-.464.374-.84.836-.84.461 0 .836.376.836.84zm0 4.377a.839.839 0 0 1-.836.841.839.839 0 0 1-.836-.842v-1.01c0-.464.374-.84.836-.84.461 0 .836.376.836.84zm-5.85 0a.839.839 0 0 1-.835.841.839.839 0 0 1-.836-.842v-1.01c0-.464.374-.84.836-.84.461 0 .835.376.835.84zm0 3.366v1.01a.839.839 0 0 1-.835.841.839.839 0 0 1-.836-.841v-1.01c0-.465.374-.842.836-.842.461 0 .835.377.835.842zm-5.849 0v1.01a.838.838 0 0 1-.835.841.839.839 0 0 1-.836-.841v-1.01c0-.465.374-.842.836-.842.461 0 .835.377.835.842zm0-12.119a.838.838 0 0 1-.835.842.839.839 0 0 1-.836-.842v-1.01c0-.464.374-.84.836-.84.461 0 .835.376.835.84zm0 8.753a.839.839 0 0 1-.835.841.839.839 0 0 1-.836-.842v-1.01c0-.464.374-.84.836-.84.461 0 .835.376.835.84zm0-13.129a.839.839 0 0 1-.835.842.839.839 0 0 1-.836-.842v-1.01c0-.464.374-.841.836-.841.461 0 .835.377.835.842zm0 7.743v1.01a.838.838 0 0 1-.835.84.838.838 0 0 1-.836-.84v-1.01c0-.465.374-.842.836-.842.461 0 .835.377.835.842z"/></clipPath></defs><g><g><path fill="#ff314e" d="M40.975 36.549a.84.84 0 0 1-.229.335l-.007.007-3.134 2.734a.83.83 0 0 1-1.178-.084.846.846 0 0 1 .084-1.187l1.44-1.258H4.806v2.062a.838.838 0 0 1-.836.841.838.838 0 0 1-.836-.84v-2.063H.836A.839.839 0 0 1 0 36.254c0-.464.374-.84.836-.84h2.297V3.123l-1.248 1.45a.832.832 0 0 1-1.18.086.846.846 0 0 1-.083-1.188L3.338.317a.832.832 0 0 1 1.262 0l2.716 3.155a.846.846 0 0 1-.084 1.188.83.83 0 0 1-1.179-.085L4.805 3.123v7.57L7.47 6.488a.832.832 0 0 1 1.481.142l5.258 13.338 4.966-7.599a.832.832 0 0 1 1.49.197l5.422 16.38 4.893-4.928a.831.831 0 0 1 1.09-.08l5.849 4.376c.37.277.447.804.172 1.177a.832.832 0 0 1-1.169.174l-4.548-3.403a.85.85 0 0 1 .033.23v1.01a.839.839 0 0 1-.836.842.839.839 0 0 1-.835-.841v-.858l-4.179 4.209v1.025a.839.839 0 0 1-.835.84.839.839 0 0 1-.835-.84v-1.01c0-.06.006-.118.017-.174l-5.28-15.953-4.769 7.296a.884.884 0 0 1 .004.079v1.01a.838.838 0 0 1-.835.84.839.839 0 0 1-.836-.84v-1.01c0-.05.005-.097.013-.144L8.001 8.78l-3.197 5.042v21.592H7.34v-.168c0-.465.374-.842.836-.842.461 0 .835.377.835.842v.168h4.178v-.168c0-.465.375-.842.836-.842.461 0 .835.377.835.842v.168h4.178v-.168c0-.465.374-.842.836-.842.461 0 .836.377.836.842v.168h4.177v-.168c0-.465.375-.842.836-.842.461 0 .836.377.836.842v.168h4.178v-.168c0-.465.374-.842.835-.842.461 0 .836.377.836.842v.168h5.544l-1.44-1.257a.846.846 0 0 1-.084-1.188.832.832 0 0 1 1.178-.084l3.134 2.734c.263.23.357.602.236.93zm-8.568-5.68v1.01a.839.839 0 0 1-.836.841.838.838 0 0 1-.835-.841v-1.01c0-.465.374-.842.835-.842.461 0 .836.377.836.842zm-11.698 0v1.01a.839.839 0 0 1-.836.841.838.838 0 0 1-.836-.841v-1.01c0-.465.374-.842.836-.842.461 0 .836.377.836.842zm0-7.743a.838.838 0 0 1-.836.842.838.838 0 0 1-.836-.842v-1.01c0-.464.374-.84.836-.84.461 0 .836.376.836.84zm0 4.377a.839.839 0 0 1-.836.841.839.839 0 0 1-.836-.842v-1.01c0-.464.374-.84.836-.84.461 0 .836.376.836.84zm-5.85 0a.839.839 0 0 1-.835.841.839.839 0 0 1-.836-.842v-1.01c0-.464.374-.84.836-.84.461 0 .835.376.835.84zm0 3.366v1.01a.839.839 0 0 1-.835.841.839.839 0 0 1-.836-.841v-1.01c0-.465.374-.842.836-.842.461 0 .835.377.835.842zm-5.849 0v1.01a.838.838 0 0 1-.835.841.839.839 0 0 1-.836-.841v-1.01c0-.465.374-.842.836-.842.461 0 .835.377.835.842zm0-12.119a.838.838 0 0 1-.835.842.839.839 0 0 1-.836-.842v-1.01c0-.464.374-.84.836-.84.461 0 .835.376.835.84zm0 8.753a.839.839 0 0 1-.835.841.839.839 0 0 1-.836-.842v-1.01c0-.464.374-.84.836-.84.461 0 .835.376.835.84zm0-13.129a.839.839 0 0 1-.835.842.839.839 0 0 1-.836-.842v-1.01c0-.464.374-.841.836-.841.461 0 .835.377.835.842zm0 7.743v1.01a.838.838 0 0 1-.835.84.838.838 0 0 1-.836-.84v-1.01c0-.465.374-.842.836-.842.461 0 .835.377.835.842z"/><path fill="none" stroke="#fff" stroke-miterlimit="50" stroke-width=".2" d="M40.975 36.549a.84.84 0 0 1-.229.335l-.007.007-3.134 2.734a.83.83 0 0 1-1.178-.084.846.846 0 0 1 .084-1.187l1.44-1.258H4.806v2.062a.838.838 0 0 1-.836.841.838.838 0 0 1-.836-.84v-2.063H.836A.839.839 0 0 1 0 36.254c0-.464.374-.84.836-.84h2.297V3.123l-1.248 1.45a.832.832 0 0 1-1.18.086.846.846 0 0 1-.083-1.188L3.338.317a.832.832 0 0 1 1.262 0l2.716 3.155a.846.846 0 0 1-.084 1.188.83.83 0 0 1-1.179-.085L4.805 3.123v7.57L7.47 6.488a.832.832 0 0 1 1.481.142l5.258 13.338 4.966-7.599a.832.832 0 0 1 1.49.197l5.422 16.38 4.893-4.928a.831.831 0 0 1 1.09-.08l5.849 4.376c.37.277.447.804.172 1.177a.832.832 0 0 1-1.169.174l-4.548-3.403a.85.85 0 0 1 .033.23v1.01a.839.839 0 0 1-.836.842.839.839 0 0 1-.835-.841v-.858l-4.179 4.209v1.025a.839.839 0 0 1-.835.84.839.839 0 0 1-.835-.84v-1.01c0-.06.006-.118.017-.174l-5.28-15.953-4.769 7.296a.884.884 0 0 1 .004.079v1.01a.838.838 0 0 1-.835.84.839.839 0 0 1-.836-.84v-1.01c0-.05.005-.097.013-.144L8.001 8.78l-3.197 5.042v21.592H7.34v-.168c0-.465.374-.842.836-.842.461 0 .835.377.835.842v.168h4.178v-.168c0-.465.375-.842.836-.842.461 0 .835.377.835.842v.168h4.178v-.168c0-.465.374-.842.836-.842.461 0 .836.377.836.842v.168h4.177v-.168c0-.465.375-.842.836-.842.461 0 .836.377.836.842v.168h4.178v-.168c0-.465.374-.842.835-.842.461 0 .836.377.836.842v.168h5.544l-1.44-1.257a.846.846 0 0 1-.084-1.188.832.832 0 0 1 1.178-.084l3.134 2.734c.263.23.357.602.236.93zm-8.568-5.68v1.01a.839.839 0 0 1-.836.841.838.838 0 0 1-.835-.841v-1.01c0-.465.374-.842.835-.842.461 0 .836.377.836.842zm-11.698 0v1.01a.839.839 0 0 1-.836.841.838.838 0 0 1-.836-.841v-1.01c0-.465.374-.842.836-.842.461 0 .836.377.836.842zm0-7.743a.838.838 0 0 1-.836.842.838.838 0 0 1-.836-.842v-1.01c0-.464.374-.84.836-.84.461 0 .836.376.836.84zm0 4.377a.839.839 0 0 1-.836.841.839.839 0 0 1-.836-.842v-1.01c0-.464.374-.84.836-.84.461 0 .836.376.836.84zm-5.85 0a.839.839 0 0 1-.835.841.839.839 0 0 1-.836-.842v-1.01c0-.464.374-.84.836-.84.461 0 .835.376.835.84zm0 3.366v1.01a.839.839 0 0 1-.835.841.839.839 0 0 1-.836-.841v-1.01c0-.465.374-.842.836-.842.461 0 .835.377.835.842zm-5.849 0v1.01a.838.838 0 0 1-.835.841.839.839 0 0 1-.836-.841v-1.01c0-.465.374-.842.836-.842.461 0 .835.377.835.842zm0-12.119a.838.838 0 0 1-.835.842.839.839 0 0 1-.836-.842v-1.01c0-.464.374-.84.836-.84.461 0 .835.376.835.84zm0 8.753a.839.839 0 0 1-.835.841.839.839 0 0 1-.836-.842v-1.01c0-.464.374-.84.836-.84.461 0 .835.376.835.84zm0-13.129a.839.839 0 0 1-.835.842.839.839 0 0 1-.836-.842v-1.01c0-.464.374-.841.836-.841.461 0 .835.377.835.842zm0 7.743v1.01a.838.838 0 0 1-.835.84.838.838 0 0 1-.836-.84v-1.01c0-.465.374-.842.836-.842.461 0 .835.377.835.842z" clip-path="url(&quot;#m48fa&quot;)"/></g></g></svg>