<svg xmlns="http://www.w3.org/2000/svg" width="45" height="50" viewBox="0 0 45 50"><g><g><path d="M27.707 21.892v3.353l.592-.197a.865.865 0 0 1 1.094.546.86.86 0 0 1-.546 1.09l-1.139.378v3.354l.592-.197a.865.865 0 0 1 1.094.545.86.86 0 0 1-.546 1.09l-1.139.378v3.354l.592-.196a.865.865 0 0 1 1.094.544.86.86 0 0 1-.547 1.09l-1.138.379V43.1h-1.73v2.872l-3.028 4.022h-2.595l-3.027-4.022v-2.872H15.6v-1.955l-.603.191a.864.864 0 0 1-1.087-.56.862.862 0 0 1 .563-1.083l1.127-.356v-3.363l-.603.191a.864.864 0 0 1-1.087-.56.86.86 0 0 1 .563-1.082l1.127-.357v-3.363l-.603.191a.867.867 0 0 1-1.087-.56.862.862 0 0 1 .563-1.083l1.127-.356v-3.363l-.603.19a.867.867 0 0 1-1.087-.56.862.862 0 0 1 .563-1.082l1.127-.356v-8.66l3.102-3.089h5.906l3.102 3.09v4.907l.592-.197a.865.865 0 0 1 1.094.545.86.86 0 0 1-.547 1.09zM17.331 18.97h8.65v-3.09l-2.088-2.08h-4.474l-2.088 2.08zm8.65 3.493l-1.457.484a.867.867 0 0 1-1.094-.545.86.86 0 0 1 .547-1.09l1.865-.615H17.33v2.583l3.198-1.011a.861.861 0 1 1 .524 1.642L17.33 25.09v3.36l3.198-1.01a.861.861 0 1 1 .524 1.642l-3.722 1.177v3.361l3.198-1.011a.86.86 0 1 1 .524 1.642l-3.722 1.177v3.362l3.198-1.012a.862.862 0 1 1 .524 1.643l-3.722 1.177v.778h1.73v4.022l2.162 2.872h.865l2.163-2.872v-4.022h1.73v-3.4l-1.457.483a.863.863 0 0 1-1.094-.544.86.86 0 0 1 .547-1.091l2.004-.664v-3.355l-1.457.483a.863.863 0 0 1-1.094-.544.86.86 0 0 1 .547-1.09l2.004-.665v-3.354l-1.457.483a.86.86 0 0 1-1.094-.545.86.86 0 0 1 .547-1.09l2.004-.665zm17.24 6.559a4.364 4.364 0 0 1-1.99 2.782 4.437 4.437 0 0 1-3.43.52c-1.951-.488-4.142-.825-6.698-1.029a.863.863 0 0 1-.794-.928.854.854 0 0 1 .932-.79c2.652.213 4.936.564 6.98 1.075.73.181 1.475.07 2.103-.315a2.659 2.659 0 0 0 1.208-1.692c1.431-6.326 2.545-12.98 1.017-18.8-.608-2.312-2.446-4.56-5.177-6.326-3.34-2.166-8.115-2.384-12.461-.574l-.143.062a5.93 5.93 0 0 1-.37.15c-.382.132-.676.248-.915.34-1.252.49-1.527.488-3.271-.031-3.272-.972-8.002-2.13-11.278-.958-4.356 1.553-8.199 6.81-6.967 15.05.162 1.087.32 2.185.48 3.284.375 2.596.764 5.283 1.217 7.925.132.763.582 1.44 1.238 1.854a2.575 2.575 0 0 0 2.09.319c1.5-.413 3.147-.74 5.03-1a.862.862 0 1 1 .236 1.707c-1.806.25-3.379.562-4.805.955a4.303 4.303 0 0 1-1.139.153 4.376 4.376 0 0 1-2.34-.68 4.475 4.475 0 0 1-2.015-3.018c-.457-2.664-.847-5.36-1.224-7.969-.16-1.099-.317-2.19-.48-3.275C-1.12 8.606 3.33 2.677 8.353.886c3.713-1.325 8.553-.2 12.355.93 1.333.395 1.333.397 2.144.08.255-.1.568-.223.976-.365.082-.03.163-.065.245-.101l.172-.074c4.866-2.027 10.258-1.751 14.071.717 3.093 2.004 5.19 4.609 5.907 7.337 1.623 6.175.478 13.076-1 19.613z"/></g></g></svg>