<svg xmlns="http://www.w3.org/2000/svg" width="44" height="44" viewBox="0 0 44 44"><g><g><path fill="#ff314e" d="M43.346 29.067l-3.332 2.84a5.681 5.681 0 0 1 .557 4.833.648.648 0 1 1-1.229-.414 4.39 4.39 0 0 0-.33-3.566l-4.235 3.611c.602 1.022.068 2.347-1.035 2.699a4.4 4.4 0 0 0 4.368-.882.649.649 0 0 1 .864.966 5.705 5.705 0 0 1-7.533.06l-3.33 2.84a1.84 1.84 0 0 1-1.112.446c-3.357 3.08-8.806 1.145-9.48-3.341h-4.38c-1.642 0-2.48-1.97-1.341-3.145 1.391-1.436 2.339-3.2 2.983-4.915H2.454C1.101 31.1 0 29.861 0 28.338v-16.81a.648.648 0 1 1 1.297 0v16.81c0 .794.53 1.465 1.157 1.465h12.763c.854-2.845.929-5.268.932-5.392.003-2.487 1.754-4.588 3.944-5.625v-.234a3.06 3.06 0 0 1 3.058-3.056 3.063 3.063 0 0 1 2.976 2.35c2.014-.182 4.034.416 5.35 1.953.087.097 1.988 2.19 4.838 3.888-.056-21.855.136-21.003-.152-21.64L19.897 13.465a1.89 1.89 0 0 1-1.091.345c-.956 0-1.324-.6-2.93-1.635a.648.648 0 1 1 .746-1.061l1.838 1.29a.61.61 0 0 0 .692 0L34.976 1.296H2.636L14.5 9.623c.52.365.255 1.178-.373 1.178a.648.648 0 0 1-.373-.117C1.087 1.765 1.702 2.288 1.473 1.994c-.31.62-.117.634-.176 6.942a.649.649 0 0 1-1.297 0V2.76C0 1.294 1.048.02 2.424 0h32.71a2.298 2.298 0 0 1 1.635.68l.568.54-.102.073c.243.435.377.942.377 1.467v21.632c1.425.704 3.023 1.25 4.712 1.412 1.636.158 2.265 2.203 1.022 3.262zm-21.94-10.763a6.692 6.692 0 0 1 3.019-.107c.138-.045.278-.085.42-.123a1.761 1.761 0 0 0-3.438.23zm6.06 20.855h-8.63c.713 3.626 5.365 4.812 7.723 1.925a4.372 4.372 0 0 0 .907-1.925zm2.043 0h-.726c-.039.26-.096.515-.17.763zm4.219-1.894c-.014-.296-.163-.301-.778-1.04-1.553-1.854-2.58-4.114-3.231-6.422-.552-1.968-.842-4.088-.863-5.373-.006-.016.186-2.606-2.878-4.29-4.147-2.273-8.532 1.06-8.532 4.278 0 .009-.045 3.193-1.273 6.681-.696 1.988-1.775 4.095-3.443 5.818-.34.35-.088.946.408.946h20.025c.365 0 .58-.31.565-.598zm8.472-10.17c-4.423-.42-8.973-3.4-11.705-6.45-1.408-1.65-3.607-1.521-3.676-1.535 1.92 1.13 3.33 3.066 3.334 5.301.1 3.452 1.356 8.06 3.785 10.972l8.566-7.302c.375-.32.187-.938-.304-.985z"/></g></g></svg>