<svg xmlns="http://www.w3.org/2000/svg" width="30" height="40" viewBox="0 0 30 40"><defs><clipPath id="b44la"><path fill="#fff" d="M29.858 31.68a.637.637 0 0 1-.038.043l-.003.004-7.917 8.085-.004.005a.59.59 0 0 1-.041.037l-.014.01c-.011.01-.023.02-.035.027l-.013.008-.04.025-.009.004a.691.691 0 0 1-.046.022l-.007.003a.363.363 0 0 1-.05.018l-.007.002a.425.425 0 0 1-.053.013l-.015.003-.045.007a.518.518 0 0 1-.063.003H.625A.631.631 0 0 1 0 39.361V.638c0-.353.28-.639.625-.639h28.75c.345 0 .625.286.625.639v30.638l-.003.063-.007.047-.002.015a.808.808 0 0 1-.014.054l-.001.007a.761.761 0 0 1-.019.053l-.002.006a.752.752 0 0 1-.022.048l-.004.008-.025.043-.006.01a.746.746 0 0 1-.028.038l-.009.013zM1.25 38.724h19.583v-7.447c0-.353.28-.638.625-.638h7.292V1.276H1.25zm20.833-6.809v5.906l5.783-5.906zM11.768 7.446c0-.353.28-.638.625-.638h11.982c.345 0 .625.285.625.638 0 .353-.28.638-.625.638H12.393a.631.631 0 0 1-.625-.638zM5.6 8.323a.648.648 0 0 1 0-.903c.244-.25.64-.25.883 0l.809.825 2.891-2.953a.616.616 0 0 1 .884 0 .648.648 0 0 1 0 .903L7.733 9.6a.616.616 0 0 1-.883 0zm5.858 4.442h12.917c.345 0 .625.286.625.639 0 .352-.28.638-.625.638H11.458a.632.632 0 0 1-.625-.638c0-.353.28-.639.625-.639zm-1.875-1.064v3.404c0 .353-.28.639-.625.639H5.625A.632.632 0 0 1 5 15.105v-3.404c0-.352.28-.638.625-.638h3.333c.345 0 .625.286.625.638zm-1.25.639H6.25v2.127h2.083zM25 19.36c0 .353-.28.639-.625.639H11.458a.631.631 0 0 1-.625-.638c0-.353.28-.638.625-.638h12.917c.345 0 .625.285.625.638zM9.583 17.66v3.404c0 .352-.28.639-.625.639H5.625a.632.632 0 0 1-.625-.64V17.66c0-.353.28-.639.625-.639h3.333c.345 0 .625.286.625.639zm-1.25.638H6.25v2.128h2.083zM25 25.318c0 .353-.28.638-.625.638H11.458a.632.632 0 0 1-.625-.638c0-.353.28-.638.625-.638h12.917c.345 0 .625.285.625.638zM9.583 23.616v3.405c0 .352-.28.638-.625.638H5.625A.632.632 0 0 1 5 27.02v-3.404c0-.353.28-.638.625-.638h3.333c.345 0 .625.285.625.638zm-1.25.638H6.25v2.128h2.083zm11.25 7.022c0 .352-.28.638-.625.638h-7.5a.632.632 0 0 1-.625-.638c0-.353.28-.638.625-.638h7.5c.345 0 .625.285.625.638zm-10-1.702v3.403c0 .353-.28.64-.625.64H5.625a.632.632 0 0 1-.625-.64v-3.403c0-.353.28-.638.625-.638h3.333c.345 0 .625.285.625.638zm-1.25.638H6.25v2.127h2.083z"/></clipPath></defs><g><g><path fill="#1e9ce5" d="M29.858 31.68a.637.637 0 0 1-.038.043l-.003.004-7.917 8.085-.004.005a.59.59 0 0 1-.041.037l-.014.01c-.011.01-.023.02-.035.027l-.013.008-.04.025-.009.004a.691.691 0 0 1-.046.022l-.007.003a.363.363 0 0 1-.05.018l-.007.002a.425.425 0 0 1-.053.013l-.015.003-.045.007a.518.518 0 0 1-.063.003H.625A.631.631 0 0 1 0 39.361V.638c0-.353.28-.639.625-.639h28.75c.345 0 .625.286.625.639v30.638l-.003.063-.007.047-.002.015a.808.808 0 0 1-.014.054l-.001.007a.761.761 0 0 1-.019.053l-.002.006a.752.752 0 0 1-.022.048l-.004.008-.025.043-.006.01a.746.746 0 0 1-.028.038l-.009.013zM1.25 38.724h19.583v-7.447c0-.353.28-.638.625-.638h7.292V1.276H1.25zm20.833-6.809v5.906l5.783-5.906zM11.768 7.446c0-.353.28-.638.625-.638h11.982c.345 0 .625.285.625.638 0 .353-.28.638-.625.638H12.393a.631.631 0 0 1-.625-.638zM5.6 8.323a.648.648 0 0 1 0-.903c.244-.25.64-.25.883 0l.809.825 2.891-2.953a.616.616 0 0 1 .884 0 .648.648 0 0 1 0 .903L7.733 9.6a.616.616 0 0 1-.883 0zm5.858 4.442h12.917c.345 0 .625.286.625.639 0 .352-.28.638-.625.638H11.458a.632.632 0 0 1-.625-.638c0-.353.28-.639.625-.639zm-1.875-1.064v3.404c0 .353-.28.639-.625.639H5.625A.632.632 0 0 1 5 15.105v-3.404c0-.352.28-.638.625-.638h3.333c.345 0 .625.286.625.638zm-1.25.639H6.25v2.127h2.083zM25 19.36c0 .353-.28.639-.625.639H11.458a.631.631 0 0 1-.625-.638c0-.353.28-.638.625-.638h12.917c.345 0 .625.285.625.638zM9.583 17.66v3.404c0 .352-.28.639-.625.639H5.625a.632.632 0 0 1-.625-.64V17.66c0-.353.28-.639.625-.639h3.333c.345 0 .625.286.625.639zm-1.25.638H6.25v2.128h2.083zM25 25.318c0 .353-.28.638-.625.638H11.458a.632.632 0 0 1-.625-.638c0-.353.28-.638.625-.638h12.917c.345 0 .625.285.625.638zM9.583 23.616v3.405c0 .352-.28.638-.625.638H5.625A.632.632 0 0 1 5 27.02v-3.404c0-.353.28-.638.625-.638h3.333c.345 0 .625.285.625.638zm-1.25.638H6.25v2.128h2.083zm11.25 7.022c0 .352-.28.638-.625.638h-7.5a.632.632 0 0 1-.625-.638c0-.353.28-.638.625-.638h7.5c.345 0 .625.285.625.638zm-10-1.702v3.403c0 .353-.28.64-.625.64H5.625a.632.632 0 0 1-.625-.64v-3.403c0-.353.28-.638.625-.638h3.333c.345 0 .625.285.625.638zm-1.25.638H6.25v2.127h2.083z"/><path fill="none" stroke="#fff" stroke-miterlimit="50" stroke-width=".2" d="M29.858 31.68a.637.637 0 0 1-.038.043l-.003.004-7.917 8.085-.004.005a.59.59 0 0 1-.041.037l-.014.01c-.011.01-.023.02-.035.027l-.013.008-.04.025-.009.004a.691.691 0 0 1-.046.022l-.007.003a.363.363 0 0 1-.05.018l-.007.002a.425.425 0 0 1-.053.013l-.015.003-.045.007a.518.518 0 0 1-.063.003H.625A.631.631 0 0 1 0 39.361V.638c0-.353.28-.639.625-.639h28.75c.345 0 .625.286.625.639v30.638l-.003.063-.007.047-.002.015a.808.808 0 0 1-.014.054l-.001.007a.761.761 0 0 1-.019.053l-.002.006a.752.752 0 0 1-.022.048l-.004.008-.025.043-.006.01a.746.746 0 0 1-.028.038l-.009.013zM1.25 38.724h19.583v-7.447c0-.353.28-.638.625-.638h7.292V1.276H1.25zm20.833-6.809v5.906l5.783-5.906zM11.768 7.446c0-.353.28-.638.625-.638h11.982c.345 0 .625.285.625.638 0 .353-.28.638-.625.638H12.393a.631.631 0 0 1-.625-.638zM5.6 8.323a.648.648 0 0 1 0-.903c.244-.25.64-.25.883 0l.809.825 2.891-2.953a.616.616 0 0 1 .884 0 .648.648 0 0 1 0 .903L7.733 9.6a.616.616 0 0 1-.883 0zm5.858 4.442h12.917c.345 0 .625.286.625.639 0 .352-.28.638-.625.638H11.458a.632.632 0 0 1-.625-.638c0-.353.28-.639.625-.639zm-1.875-1.064v3.404c0 .353-.28.639-.625.639H5.625A.632.632 0 0 1 5 15.105v-3.404c0-.352.28-.638.625-.638h3.333c.345 0 .625.286.625.638zm-1.25.639H6.25v2.127h2.083zM25 19.36c0 .353-.28.639-.625.639H11.458a.631.631 0 0 1-.625-.638c0-.353.28-.638.625-.638h12.917c.345 0 .625.285.625.638zM9.583 17.66v3.404c0 .352-.28.639-.625.639H5.625a.632.632 0 0 1-.625-.64V17.66c0-.353.28-.639.625-.639h3.333c.345 0 .625.286.625.639zm-1.25.638H6.25v2.128h2.083zM25 25.318c0 .353-.28.638-.625.638H11.458a.632.632 0 0 1-.625-.638c0-.353.28-.638.625-.638h12.917c.345 0 .625.285.625.638zM9.583 23.616v3.405c0 .352-.28.638-.625.638H5.625A.632.632 0 0 1 5 27.02v-3.404c0-.353.28-.638.625-.638h3.333c.345 0 .625.285.625.638zm-1.25.638H6.25v2.128h2.083zm11.25 7.022c0 .352-.28.638-.625.638h-7.5a.632.632 0 0 1-.625-.638c0-.353.28-.638.625-.638h7.5c.345 0 .625.285.625.638zm-10-1.702v3.403c0 .353-.28.64-.625.64H5.625a.632.632 0 0 1-.625-.64v-3.403c0-.353.28-.638.625-.638h3.333c.345 0 .625.285.625.638zm-1.25.638H6.25v2.127h2.083z" clip-path="url(&quot;#b44la&quot;)"/></g></g></svg>