<svg xmlns="http://www.w3.org/2000/svg" width="36" height="37" viewBox="0 0 36 37"><g><g><path fill="#ff314e" d="M13.18 8.155c-.102.493-.26.973-.469 1.43a.603.603 0 0 1-.492.355l-.928.087a5.777 5.777 0 0 1-.196.272l.2.894a.624.624 0 0 1-.236.64l-1.104.809a.593.593 0 0 1-.654.032l-.799-.475a5.266 5.266 0 0 1-.333.106l-.369.887a.603.603 0 0 1-.554.374H5.88a.603.603 0 0 1-.554-.374l-.369-.887a5.237 5.237 0 0 1-.333-.106l-.8.474a.59.59 0 0 1-.596.005 6.743 6.743 0 0 1-1.212-.888.625.625 0 0 1-.185-.597l.2-.895a5.666 5.666 0 0 1-.195-.271L.908 9.94a.603.603 0 0 1-.492-.354 6.762 6.762 0 0 1-.47-1.432.626.626 0 0 1 .197-.593l.712-.628v-.3l-.712-.628a.626.626 0 0 1-.197-.593 6.75 6.75 0 0 1 .47-1.432c.09-.2.278-.335.492-.355l.929-.086c.062-.093.128-.184.195-.272l-.2-.895a.625.625 0 0 1 .185-.597c.371-.34.778-.638 1.212-.888a.595.595 0 0 1 .597.005l.799.474c.108-.038.218-.073.333-.105l.37-.887a.603.603 0 0 1 .553-.375h1.365c.241 0 .46.148.554.375l.37.887c.114.032.225.067.333.105l.799-.474a.592.592 0 0 1 .597-.005c.434.25.84.547 1.211.888.164.15.234.378.186.597l-.2.896c.067.088.132.178.195.27l.928.087c.215.02.402.155.492.355.21.457.367.937.47 1.43a.627.627 0 0 1-.196.595l-.713.627v.301l.713.628a.626.626 0 0 1 .196.594zm-2.113-.94V6.35c0-.18.076-.35.209-.468l.642-.565a5.589 5.589 0 0 0-.166-.497l-.86-.08a.603.603 0 0 1-.458-.29 4.578 4.578 0 0 0-.445-.616.627.627 0 0 1-.135-.545l.185-.826a5.685 5.685 0 0 0-.44-.321l-.74.439a.594.594 0 0 1-.533.036 4.48 4.48 0 0 0-.728-.233.602.602 0 0 1-.42-.36l-.33-.791H6.28l-.33.791a.607.607 0 0 1-.42.36 4.423 4.423 0 0 0-.729.232.593.593 0 0 1-.533-.036l-.74-.438a5.55 5.55 0 0 0-.44.32l.186.827a.627.627 0 0 1-.136.546 4.559 4.559 0 0 0-.444.615.603.603 0 0 1-.458.29l-.86.08a5.615 5.615 0 0 0-.166.497l.642.565c.132.118.209.288.209.468v.866c0 .18-.077.35-.21.467l-.64.565c.045.165.1.331.164.498l.86.08a.604.604 0 0 1 .459.29c.13.218.28.423.445.615a.628.628 0 0 1 .135.546l-.185.826c.143.115.289.222.44.32l.74-.438a.592.592 0 0 1 .532-.036c.236.098.48.176.728.233a.603.603 0 0 1 .42.36l.33.79h.569l.33-.79a.606.606 0 0 1 .42-.36c.249-.057.492-.135.728-.233a.596.596 0 0 1 .534.036l.71.422.461-.338-.177-.792a.626.626 0 0 1 .135-.546c.165-.192.314-.398.445-.615.1-.165.27-.272.458-.29l.86-.08a5.63 5.63 0 0 0 .165-.498l-.641-.565a.625.625 0 0 1-.21-.467zm-1.49-.432c0 1.703-1.349 3.083-3.013 3.083-1.665 0-3.014-1.38-3.014-3.083C3.55 5.08 4.9 3.7 6.564 3.7c1.663.002 3.011 1.38 3.013 3.083zm-1.205 0c0-1.022-.81-1.85-1.808-1.85-.999 0-1.809.828-1.809 1.85 0 1.022.81 1.85 1.809 1.85.998-.001 1.807-.83 1.808-1.85zM7.166 31.45v4.933a.61.61 0 0 1-.602.616H1.742a.61.61 0 0 1-.603-.616v-4.934c0-.34.27-.616.603-.616h4.822a.61.61 0 0 1 .602.617zm-1.205.616H2.345v3.7H5.96zM16.207 29.6v6.784a.61.61 0 0 1-.602.616h-4.822a.61.61 0 0 1-.603-.616v-6.784c0-.34.27-.616.603-.616h4.822a.61.61 0 0 1 .602.616zm-1.205.617h-3.616v5.55h3.616zm10.247-3.083v9.25a.61.61 0 0 1-.603.616h-4.822a.61.61 0 0 1-.603-.616v-9.25c0-.341.27-.617.603-.617h4.822a.61.61 0 0 1 .603.617zm-1.206.616h-3.616v8.017h3.616zm10.247-6.166v14.8a.61.61 0 0 1-.603.616h-4.822a.61.61 0 0 1-.603-.616v-14.8c0-.34.27-.617.603-.617h4.822a.61.61 0 0 1 .603.617zm-1.206.616h-3.616v13.567h3.616zm-12.081-7.835l-1.484 4.933-1.152-.362.992-3.298-17.89 12.011-.66-1.031 18.187-12.21-2.954-.865.331-1.186 4.22 1.234.01.003a.62.62 0 0 1 .4.771zm11.91-7.553L31.016 8.8l.448 2.817a.627.627 0 0 1-.067.398.596.596 0 0 1-.819.24l-2.316-1.309-2.316 1.31a.59.59 0 0 1-.389.069.615.615 0 0 1-.497-.708l.449-2.817-1.897-1.989a.627.627 0 0 1-.14-.626.607.607 0 0 1 .48-.414l2.597-.406 1.168-2.544a.597.597 0 0 1 1.091 0l1.167 2.544 2.597.406c.125.02.24.078.33.168a.627.627 0 0 1 .01.872zM31.23 6.81l-1.756-.275a.603.603 0 0 1-.455-.347l-.758-1.653-.758 1.653a.603.603 0 0 1-.455.347l-1.755.275 1.29 1.353c.134.14.195.337.164.53l-.299 1.87 1.522-.86a.592.592 0 0 1 .583 0l1.521.86-.298-1.87a.625.625 0 0 1 .163-.53zm-1.602 9.102a7.65 7.65 0 0 1-1.357.122c-.456-.013-.91-.054-1.362-.12l.207-1.215c.378.068.762.101 1.145.101h.01c.384 0 .768-.034 1.147-.102zm2.53-14.852l-.6 1.07a6.474 6.474 0 0 0-2.165-.798l.204-1.215a7.66 7.66 0 0 1 2.56.943zm-5.067.278c-.76.14-1.492.414-2.16.812l-.606-1.066a7.673 7.673 0 0 1 2.554-.96zm7.174 11.83a7.903 7.903 0 0 1-2.081 1.79l-.605-1.068a6.7 6.7 0 0 0 1.763-1.515zm1.831-5.169a8.184 8.184 0 0 1-.47 2.76l-1.132-.421c.264-.744.398-1.53.397-2.32l.94-.024zm-.48-2.753l-1.131.427a6.795 6.795 0 0 0-1.159-2.034l.92-.796a8.019 8.019 0 0 1 1.37 2.403zM23.173 3.668a6.796 6.796 0 0 0-1.148 2.041l-1.133-.419a8.04 8.04 0 0 1 1.356-2.413zm1.782 10.228l-.603 1.068a7.88 7.88 0 0 1-2.085-1.786l.922-.795a6.683 6.683 0 0 0 1.765 1.513zm-2.92-3.547l-1.133.423a8.147 8.147 0 0 1-.475-2.74l1.206-.002c0 .79.136 1.575.401 2.319z"/></g></g></svg>