<svg xmlns="http://www.w3.org/2000/svg" width="30" height="30" viewBox="0 0 30 30"><g><path d="M25.781 4.718H9.844a.47.47 0 0 1-.47-.472c0-.26.21-.472.47-.472H25.78a.47.47 0 0 1 .469.472.47.47 0 0 1-.469.472zm0 5.661h-.937a.47.47 0 0 1-.47-.472c0-.26.21-.471.47-.471h.937a.47.47 0 0 1 .469.471.47.47 0 0 1-.469.472zm0 2.831a.47.47 0 0 1-.469-.472.471.471 0 0 1 .469-.472.471.471 0 0 1 0 .944zm0-5.662h-8.437a.47.47 0 0 1-.47-.472c0-.26.21-.471.47-.471h8.437a.47.47 0 0 1 .469.471.47.47 0 0 1-.469.472zm-10.312 0H9.844a.47.47 0 0 1-.47-.472c0-.26.21-.471.47-.471h5.625a.47.47 0 0 1 .468.471.47.47 0 0 1-.468.472zm11.249 13.016a.932.932 0 0 1-.662-.277l-.606-.61a.474.474 0 0 1 0-.667.467.467 0 0 1 .663 0l.605.61v-3.15c0-.23.166-.427.39-.466a2.377 2.377 0 0 0 1.954-2.322V3.302c0-1.3-1.051-2.359-2.343-2.359H8.906a2.354 2.354 0 0 0-2.344 2.36V8.02a.47.47 0 0 1-.468.472.47.47 0 0 1-.47-.472V3.302C5.625 1.482 7.098 0 8.907 0H26.72C28.528 0 30 1.481 30 3.302v10.38a3.29 3.29 0 0 1-2.344 3.162v2.776a.941.941 0 0 1-.938.944zm-6.562-6.41H4.22a.47.47 0 0 1-.47-.472c0-.261.21-.472.47-.472h15.937a.47.47 0 0 1 .469.472.47.47 0 0 1-.469.471zm0 5.661h-6.094a.47.47 0 0 1-.468-.472c0-.26.21-.472.468-.472h6.094a.47.47 0 0 1 .469.472.47.47 0 0 1-.469.472zm-7.969 0H4.22a.47.47 0 0 1-.47-.472c0-.26.21-.472.47-.472h7.968a.47.47 0 0 1 .47.472.47.47 0 0 1-.47.472zm7.97 2.831H4.218a.47.47 0 0 1-.47-.472c0-.26.21-.472.47-.472h15.937a.47.47 0 0 1 .469.472.47.47 0 0 1-.469.472zM7.03 16.984H4.22a.47.47 0 0 1-.47-.472c0-.26.21-.471.47-.471H7.03a.47.47 0 0 1 .469.471.47.47 0 0 1-.469.472zm13.125 0H8.906a.47.47 0 0 1-.469-.472c0-.26.21-.471.47-.471h11.25a.47.47 0 0 1 .468.471.47.47 0 0 1-.469.472zM3.282 30a.94.94 0 0 1-.938-.944V26.28A3.29 3.29 0 0 1 0 23.118v-10.38c0-1.821 1.472-3.303 3.281-3.303h17.813c1.809 0 3.281 1.482 3.281 3.303v10.38c0 1.82-1.472 3.302-3.281 3.302H7.225l-3.281 3.303a.93.93 0 0 1-.662.277zM.937 12.738v10.38c0 1.133.84 2.132 1.954 2.322.225.039.39.236.39.465v3.15l3.419-3.44a.466.466 0 0 1 .331-.139h14.063a2.354 2.354 0 0 0 2.343-2.358v-10.38c0-1.3-1.051-2.359-2.343-2.359H3.28a2.354 2.354 0 0 0-2.344 2.359z"/></g></svg>