<svg xmlns="http://www.w3.org/2000/svg" width="38" height="44" viewBox="0 0 38 44"><defs><clipPath id="qigma"><path fill="#fff" d="M25.68 39.2c0 1.424-1.204 2.582-2.685 2.582s-2.686-1.158-2.686-2.582c0-1.423 1.205-2.581 2.686-2.581 1.48 0 2.685 1.158 2.685 2.581zm-1.534 0c0-.61-.517-1.106-1.151-1.106-.635 0-1.151.497-1.151 1.106 0 .61.516 1.107 1.15 1.107.636 0 1.152-.496 1.152-1.107zM7.065 15.123a2.156 2.156 0 0 0 0-3.129l-.543-.521 5.426-5.215.543.521c.87.836 2.386.836 3.256 0l.542-.521 2.714 2.608c.3.288.3.754 0 1.042a.787.787 0 0 1-1.085 0l-1.682-1.616c-1.246.795-2.99.795-4.233 0l-3.365 3.234a3.58 3.58 0 0 1 0 4.067l1.683 1.617c.3.288.3.754 0 1.042a.781.781 0 0 1-.543.217.781.781 0 0 1-.542-.217l-2.713-2.606zm20.62 4.174a.717.717 0 0 1 0-1.043.79.79 0 0 1 1.086 0l2.712 2.607-.542.521a2.156 2.156 0 0 0 0 3.13l.542.521-5.426 5.215-.542-.521c-.87-.835-2.386-.837-3.256 0l-.543.52-2.713-2.607a.717.717 0 0 1 0-1.043.79.79 0 0 1 1.085 0l1.682 1.617c1.244-.796 2.987-.796 4.233 0l3.364-3.234a3.58 3.58 0 0 1 0-4.067zm4.883 2.91c.424 0 .768.332.768.739 0 .408-.344.738-.768.738-.423 0-.767-.33-.767-.738 0-.407.344-.738.767-.738zm-8.682 8.345c.424 0 .768.33.768.738 0 .407-.344.737-.768.737-.424 0-.767-.33-.767-.737s.343-.738.767-.738zM13.576 5.737c-.299-.287-.017-.754.283-1.043a.789.789 0 0 1 1.085 0c.3.288.018.755-.282 1.043a.79.79 0 0 1-1.085 0zm-8.138 7.085c.424 0 .767.33.767.737s-.343.737-.767.737-.768-.33-.768-.737.344-.737.768-.737zm27.917 19.35v2.235h1.535v9.587H14.938v-9.587h1.535v-1.325L8.22 25.18a1.075 1.075 0 0 1-.174-.178c-.932-.595-1.55-1.61-1.55-2.764 0-.693.223-1.335.602-1.867L.006 13.554 14.41.002l3.844 3.74a4.193 4.193 0 0 1 2.72-1.048c1.837 0 3.17 1.396 3.17 3.32 0 .134-.013.266-.03.397.137-.016.275-.03.414-.03 1.904 0 3.454 1.49 3.454 3.32 0 .134-.014.267-.031.398.137-.017.275-.03.414-.03 1.904 0 3.453 1.49 3.453 3.32 0 .134-.013.266-.03.397.136-.016.274-.03.414-.03 1.904 0 3.453 1.49 3.453 3.32 0 .96-.437 1.853-1.16 2.472l3.495 3.402-2.652 2.547c.208.617.317 1.254.317 1.903 0 1.859-.833 3.578-2.301 4.773zm-23.407-8.09h7.624l.228-.02c.852-.08 1.542-.7 1.704-1.475.023-.114.037-.23.037-.349 0-1.018-.861-1.844-1.919-1.844H9.948a1.941 1.941 0 0 0-1.282.49l-.117.102c-.319.33-.518.767-.518 1.252 0 1.017.86 1.844 1.917 1.844zm2.96-5.163h4.716c1.904 0 3.453 1.49 3.453 3.32a3.211 3.211 0 0 1-.094.74 3.226 3.226 0 0 1-.17.527c-.005.008-.008.019-.012.028a3.285 3.285 0 0 1-.218.413 6.179 6.179 0 0 0 2.76-1.522c1.16-1.115 1.799-2.597 1.799-4.173 0-1.575-.639-3.057-1.798-4.171-2.394-2.3-6.288-2.3-8.682 0-1.333 1.281-1.967 3.055-1.754 4.838zm19.295-3.688c-.574 0-1.104.25-1.463.662l2.676 2.604c.44-.344.706-.863.706-1.422 0-1.017-.86-1.843-1.919-1.844zm-3.837-3.687c-.562 0-1.081.242-1.44.638l2.677 2.605c.423-.344.682-.851.682-1.399 0-1.017-.86-1.844-1.919-1.844zM24.53 7.857a1.94 1.94 0 0 0-1.415.616l2.676 2.603c.408-.343.658-.84.658-1.376 0-1.017-.86-1.843-1.92-1.843zM19.33 4.79l2.648 2.576a1.8 1.8 0 0 0 .633-1.353c0-.917-.506-1.844-1.636-1.844-.6 0-1.227.257-1.645.62zM2.188 13.565l6.04 5.806c.055-.03.113-.053.17-.08a3.297 3.297 0 0 1 .952-.313c.197-.034.396-.058.598-.058h1.418c-.209-2.172.584-4.32 2.21-5.883 2.992-2.874 7.86-2.874 10.852 0 1.45 1.393 2.248 3.246 2.248 5.215 0 1.97-.798 3.822-2.248 5.215-1.444 1.388-3.409 2.154-5.43 2.154-.38 0-.763-.03-1.146-.086-.077.005-.15.022-.23.022h-2.956l9.208 8.85h.025l11.928-11.464-2.705-2.633-.013.006-3.836-3.688-.44-.423-3.397-3.265-.44-.422-3.397-3.265-.44-.423-3.837-3.687.066-.144-2.996-2.915zm15.82 18.837v2.005h3.696l-9.209-8.85h-1.709l6.812 6.522c.068.049.104.074.139.103zm9.206 10.117v-2.527c0-1.806-1.22-3.34-2.909-3.89l-.42.403-.632-.608c-.104-.007-.21-.015-.316-.015h-6.465v6.637zm6.14-6.638H26.86c1.159 1.022 1.891 2.484 1.891 4.111v2.527h4.604zm-1.535-1.474V31.45l.306-.222c1.27-.916 1.997-2.312 1.997-3.828 0-.23-.017-.457-.052-.683l-5.139 4.94-2.861 2.75z"/></clipPath></defs><g><g><path fill="#ff2e4e" d="M25.68 39.2c0 1.424-1.204 2.582-2.685 2.582s-2.686-1.158-2.686-2.582c0-1.423 1.205-2.581 2.686-2.581 1.48 0 2.685 1.158 2.685 2.581zm-1.534 0c0-.61-.517-1.106-1.151-1.106-.635 0-1.151.497-1.151 1.106 0 .61.516 1.107 1.15 1.107.636 0 1.152-.496 1.152-1.107zM7.065 15.123a2.156 2.156 0 0 0 0-3.129l-.543-.521 5.426-5.215.543.521c.87.836 2.386.836 3.256 0l.542-.521 2.714 2.608c.3.288.3.754 0 1.042a.787.787 0 0 1-1.085 0l-1.682-1.616c-1.246.795-2.99.795-4.233 0l-3.365 3.234a3.58 3.58 0 0 1 0 4.067l1.683 1.617c.3.288.3.754 0 1.042a.781.781 0 0 1-.543.217.781.781 0 0 1-.542-.217l-2.713-2.606zm20.62 4.174a.717.717 0 0 1 0-1.043.79.79 0 0 1 1.086 0l2.712 2.607-.542.521a2.156 2.156 0 0 0 0 3.13l.542.521-5.426 5.215-.542-.521c-.87-.835-2.386-.837-3.256 0l-.543.52-2.713-2.607a.717.717 0 0 1 0-1.043.79.79 0 0 1 1.085 0l1.682 1.617c1.244-.796 2.987-.796 4.233 0l3.364-3.234a3.58 3.58 0 0 1 0-4.067zm4.883 2.91c.424 0 .768.332.768.739 0 .408-.344.738-.768.738-.423 0-.767-.33-.767-.738 0-.407.344-.738.767-.738zm-8.682 8.345c.424 0 .768.33.768.738 0 .407-.344.737-.768.737-.424 0-.767-.33-.767-.737s.343-.738.767-.738zM13.576 5.737c-.299-.287-.017-.754.283-1.043a.789.789 0 0 1 1.085 0c.3.288.018.755-.282 1.043a.79.79 0 0 1-1.085 0zm-8.138 7.085c.424 0 .767.33.767.737s-.343.737-.767.737-.768-.33-.768-.737.344-.737.768-.737zm27.917 19.35v2.235h1.535v9.587H14.938v-9.587h1.535v-1.325L8.22 25.18a1.075 1.075 0 0 1-.174-.178c-.932-.595-1.55-1.61-1.55-2.764 0-.693.223-1.335.602-1.867L.006 13.554 14.41.002l3.844 3.74a4.193 4.193 0 0 1 2.72-1.048c1.837 0 3.17 1.396 3.17 3.32 0 .134-.013.266-.03.397.137-.016.275-.03.414-.03 1.904 0 3.454 1.49 3.454 3.32 0 .134-.014.267-.031.398.137-.017.275-.03.414-.03 1.904 0 3.453 1.49 3.453 3.32 0 .134-.013.266-.03.397.136-.016.274-.03.414-.03 1.904 0 3.453 1.49 3.453 3.32 0 .96-.437 1.853-1.16 2.472l3.495 3.402-2.652 2.547c.208.617.317 1.254.317 1.903 0 1.859-.833 3.578-2.301 4.773zm-23.407-8.09h7.624l.228-.02c.852-.08 1.542-.7 1.704-1.475.023-.114.037-.23.037-.349 0-1.018-.861-1.844-1.919-1.844H9.948a1.941 1.941 0 0 0-1.282.49l-.117.102c-.319.33-.518.767-.518 1.252 0 1.017.86 1.844 1.917 1.844zm2.96-5.163h4.716c1.904 0 3.453 1.49 3.453 3.32a3.211 3.211 0 0 1-.094.74 3.226 3.226 0 0 1-.17.527c-.005.008-.008.019-.012.028a3.285 3.285 0 0 1-.218.413 6.179 6.179 0 0 0 2.76-1.522c1.16-1.115 1.799-2.597 1.799-4.173 0-1.575-.639-3.057-1.798-4.171-2.394-2.3-6.288-2.3-8.682 0-1.333 1.281-1.967 3.055-1.754 4.838zm19.295-3.688c-.574 0-1.104.25-1.463.662l2.676 2.604c.44-.344.706-.863.706-1.422 0-1.017-.86-1.843-1.919-1.844zm-3.837-3.687c-.562 0-1.081.242-1.44.638l2.677 2.605c.423-.344.682-.851.682-1.399 0-1.017-.86-1.844-1.919-1.844zM24.53 7.857a1.94 1.94 0 0 0-1.415.616l2.676 2.603c.408-.343.658-.84.658-1.376 0-1.017-.86-1.843-1.92-1.843zM19.33 4.79l2.648 2.576a1.8 1.8 0 0 0 .633-1.353c0-.917-.506-1.844-1.636-1.844-.6 0-1.227.257-1.645.62zM2.188 13.565l6.04 5.806c.055-.03.113-.053.17-.08a3.297 3.297 0 0 1 .952-.313c.197-.034.396-.058.598-.058h1.418c-.209-2.172.584-4.32 2.21-5.883 2.992-2.874 7.86-2.874 10.852 0 1.45 1.393 2.248 3.246 2.248 5.215 0 1.97-.798 3.822-2.248 5.215-1.444 1.388-3.409 2.154-5.43 2.154-.38 0-.763-.03-1.146-.086-.077.005-.15.022-.23.022h-2.956l9.208 8.85h.025l11.928-11.464-2.705-2.633-.013.006-3.836-3.688-.44-.423-3.397-3.265-.44-.422-3.397-3.265-.44-.423-3.837-3.687.066-.144-2.996-2.915zm15.82 18.837v2.005h3.696l-9.209-8.85h-1.709l6.812 6.522c.068.049.104.074.139.103zm9.206 10.117v-2.527c0-1.806-1.22-3.34-2.909-3.89l-.42.403-.632-.608c-.104-.007-.21-.015-.316-.015h-6.465v6.637zm6.14-6.638H26.86c1.159 1.022 1.891 2.484 1.891 4.111v2.527h4.604zm-1.535-1.474V31.45l.306-.222c1.27-.916 1.997-2.312 1.997-3.828 0-.23-.017-.457-.052-.683l-5.139 4.94-2.861 2.75z"/><path fill="none" stroke="#fff" stroke-miterlimit="50" stroke-width=".5" d="M25.68 39.2c0 1.424-1.204 2.582-2.685 2.582s-2.686-1.158-2.686-2.582c0-1.423 1.205-2.581 2.686-2.581 1.48 0 2.685 1.158 2.685 2.581zm-1.534 0c0-.61-.517-1.106-1.151-1.106-.635 0-1.151.497-1.151 1.106 0 .61.516 1.107 1.15 1.107.636 0 1.152-.496 1.152-1.107zM7.065 15.123a2.156 2.156 0 0 0 0-3.129l-.543-.521 5.426-5.215.543.521c.87.836 2.386.836 3.256 0l.542-.521 2.714 2.608c.3.288.3.754 0 1.042a.787.787 0 0 1-1.085 0l-1.682-1.616c-1.246.795-2.99.795-4.233 0l-3.365 3.234a3.58 3.58 0 0 1 0 4.067l1.683 1.617c.3.288.3.754 0 1.042a.781.781 0 0 1-.543.217.781.781 0 0 1-.542-.217l-2.713-2.606zm20.62 4.174a.717.717 0 0 1 0-1.043.79.79 0 0 1 1.086 0l2.712 2.607-.542.521a2.156 2.156 0 0 0 0 3.13l.542.521-5.426 5.215-.542-.521c-.87-.835-2.386-.837-3.256 0l-.543.52-2.713-2.607a.717.717 0 0 1 0-1.043.79.79 0 0 1 1.085 0l1.682 1.617c1.244-.796 2.987-.796 4.233 0l3.364-3.234a3.58 3.58 0 0 1 0-4.067zm4.883 2.91c.424 0 .768.332.768.739 0 .408-.344.738-.768.738-.423 0-.767-.33-.767-.738 0-.407.344-.738.767-.738zm-8.682 8.345c.424 0 .768.33.768.738 0 .407-.344.737-.768.737-.424 0-.767-.33-.767-.737s.343-.738.767-.738zM13.576 5.737c-.299-.287-.017-.754.283-1.043a.789.789 0 0 1 1.085 0c.3.288.018.755-.282 1.043a.79.79 0 0 1-1.085 0zm-8.138 7.085c.424 0 .767.33.767.737s-.343.737-.767.737-.768-.33-.768-.737.344-.737.768-.737zm27.917 19.35v2.235h1.535v9.587H14.938v-9.587h1.535v-1.325L8.22 25.18a1.075 1.075 0 0 1-.174-.178c-.932-.595-1.55-1.61-1.55-2.764 0-.693.223-1.335.602-1.867L.006 13.554 14.41.002l3.844 3.74a4.193 4.193 0 0 1 2.72-1.048c1.837 0 3.17 1.396 3.17 3.32 0 .134-.013.266-.03.397.137-.016.275-.03.414-.03 1.904 0 3.454 1.49 3.454 3.32 0 .134-.014.267-.031.398.137-.017.275-.03.414-.03 1.904 0 3.453 1.49 3.453 3.32 0 .134-.013.266-.03.397.136-.016.274-.03.414-.03 1.904 0 3.453 1.49 3.453 3.32 0 .96-.437 1.853-1.16 2.472l3.495 3.402-2.652 2.547c.208.617.317 1.254.317 1.903 0 1.859-.833 3.578-2.301 4.773zm-23.407-8.09h7.624l.228-.02c.852-.08 1.542-.7 1.704-1.475.023-.114.037-.23.037-.349 0-1.018-.861-1.844-1.919-1.844H9.948a1.941 1.941 0 0 0-1.282.49l-.117.102c-.319.33-.518.767-.518 1.252 0 1.017.86 1.844 1.917 1.844zm2.96-5.163h4.716c1.904 0 3.453 1.49 3.453 3.32a3.211 3.211 0 0 1-.094.74 3.226 3.226 0 0 1-.17.527c-.005.008-.008.019-.012.028a3.285 3.285 0 0 1-.218.413 6.179 6.179 0 0 0 2.76-1.522c1.16-1.115 1.799-2.597 1.799-4.173 0-1.575-.639-3.057-1.798-4.171-2.394-2.3-6.288-2.3-8.682 0-1.333 1.281-1.967 3.055-1.754 4.838zm19.295-3.688c-.574 0-1.104.25-1.463.662l2.676 2.604c.44-.344.706-.863.706-1.422 0-1.017-.86-1.843-1.919-1.844zm-3.837-3.687c-.562 0-1.081.242-1.44.638l2.677 2.605c.423-.344.682-.851.682-1.399 0-1.017-.86-1.844-1.919-1.844zM24.53 7.857a1.94 1.94 0 0 0-1.415.616l2.676 2.603c.408-.343.658-.84.658-1.376 0-1.017-.86-1.843-1.92-1.843zM19.33 4.79l2.648 2.576a1.8 1.8 0 0 0 .633-1.353c0-.917-.506-1.844-1.636-1.844-.6 0-1.227.257-1.645.62zM2.188 13.565l6.04 5.806c.055-.03.113-.053.17-.08a3.297 3.297 0 0 1 .952-.313c.197-.034.396-.058.598-.058h1.418c-.209-2.172.584-4.32 2.21-5.883 2.992-2.874 7.86-2.874 10.852 0 1.45 1.393 2.248 3.246 2.248 5.215 0 1.97-.798 3.822-2.248 5.215-1.444 1.388-3.409 2.154-5.43 2.154-.38 0-.763-.03-1.146-.086-.077.005-.15.022-.23.022h-2.956l9.208 8.85h.025l11.928-11.464-2.705-2.633-.013.006-3.836-3.688-.44-.423-3.397-3.265-.44-.422-3.397-3.265-.44-.423-3.837-3.687.066-.144-2.996-2.915zm15.82 18.837v2.005h3.696l-9.209-8.85h-1.709l6.812 6.522c.068.049.104.074.139.103zm9.206 10.117v-2.527c0-1.806-1.22-3.34-2.909-3.89l-.42.403-.632-.608c-.104-.007-.21-.015-.316-.015h-6.465v6.637zm6.14-6.638H26.86c1.159 1.022 1.891 2.484 1.891 4.111v2.527h4.604zm-1.535-1.474V31.45l.306-.222c1.27-.916 1.997-2.312 1.997-3.828 0-.23-.017-.457-.052-.683l-5.139 4.94-2.861 2.75z" clip-path="url(&quot;#qigma&quot;)"/></g></g></svg>