<svg xmlns="http://www.w3.org/2000/svg" width="30" height="27" viewBox="0 0 30 27"><g><g><path fill="#ff314e" d="M22.938 11.417l.001.012v8.186c0 .234-.12.452-.317.577l-3.53 2.234a.674.674 0 0 1-.69.02.683.683 0 0 1-.35-.597V14.06L7.756 8.18 2 11.822l9.652 5.514 4.68-2.962a.676.676 0 0 1 .936.214c.2.318.105.74-.213.94l-5.024 3.18a.674.674 0 0 1-.697.016l-10.99-6.28a.682.682 0 0 1-.027-1.17l7.06-4.468a.063.063 0 0 0 .005-.003l3.526-2.231.005-.003L17.968.105a.675.675 0 0 1 .697-.016l10.991 6.279a.683.683 0 0 1 .026 1.17l-5.024 3.18a.677.677 0 0 1-.936-.214.684.684 0 0 1 .213-.94L28 6.99l-9.652-5.514L12.59 5.12l9.999 5.713a.652.652 0 0 1 .075.05l.014.01c.018.014.035.03.052.045l.011.011c.02.02.038.04.055.062l.006.009.032.046.006.012.013.022c.01.018.018.035.026.053l.01.021c.01.025.018.05.025.075v.001a.686.686 0 0 1 .017.082l.002.017a.696.696 0 0 1 .004.068zm-1.356 7.821v-6.573l-.765.483a.677.677 0 0 1-.936-.214.684.684 0 0 1 .213-.94l.845-.535-9.652-5.514-2.227 1.41 10.005 5.715a.683.683 0 0 1 .344.593v6.95zm8.313-9.912c.2.319.105.74-.213.94l-5.024 3.18a.677.677 0 0 1-.936-.214.684.684 0 0 1 .213-.94l5.024-3.18a.677.677 0 0 1 .936.214zm-12.627 7.991c.2.319.105.74-.213.941l-5.024 3.18a.678.678 0 0 1-.697.015L.344 15.174a.684.684 0 0 1-.255-.93.677.677 0 0 1 .925-.256l10.638 6.077 4.68-2.962a.677.677 0 0 1 .936.214zm12.627-5.263c.2.32.105.74-.213.941l-5.024 3.18a.674.674 0 0 1-.936-.214.684.684 0 0 1 .213-.94l5.024-3.18a.677.677 0 0 1 .936.213zm-12.627 7.992c.2.319.105.74-.213.94l-5.024 3.18a.676.676 0 0 1-.697.016L.344 17.903a.684.684 0 0 1-.255-.93.677.677 0 0 1 .925-.256l10.638 6.077 4.68-2.962a.677.677 0 0 1 .936.214zm12.627-5.263c.2.319.105.74-.213.94l-5.024 3.18a.673.673 0 0 1-.936-.213.684.684 0 0 1 .213-.941l5.024-3.18a.677.677 0 0 1 .936.214zm-12.627 7.991c.2.32.105.74-.213.941l-5.024 3.18a.677.677 0 0 1-.697.016L.344 20.63a.684.684 0 0 1-.255-.93.677.677 0 0 1 .925-.255l10.638 6.077 4.68-2.962a.677.677 0 0 1 .936.213z"/></g></g></svg>