<svg xmlns="http://www.w3.org/2000/svg" width="40" height="37" viewBox="0 0 40 37"><g><g><path fill="#ff314e" d="M40 31.391v2.42c0 1.304-1.096 2.365-2.442 2.365H22.73c-1.289-.033-2.446-1.014-2.446-2.529H1.276C.573 33.647 0 33.094 0 32.414V29.62c0-1.926.818-3.728 2.196-5.025C-.67 20.626.4 13.958 2.007 9.4c-.045-.252-.017-.009-.026-4.605 0-2.645 2.224-4.797 4.956-4.797h7.497c1.459 0 2.82.632 3.738 1.696 1.564-1.78 4.794-.8 4.794 1.68V5.45c0 .402-.147.784-.4 1.085.234.98.588 2.63.854 4.592h10.267a.58.58 0 0 1 .588.57.58.58 0 0 1-.588.57c-12.168.03-11.31-.063-11.638.067a.92.92 0 0 0-.586.847l-.001 20.466v.137c.023.686.594 1.236 1.303 1.253h.192c.607-.087 1.08-.62 1.08-1.225v-2.42c0-.835.702-1.516 1.565-1.516h11.356V13.18c0-.496-.417-.906-.929-.914a.579.579 0 0 1-.578-.58.58.58 0 0 1 .588-.559h.01c1.15.018 2.085.94 2.085 2.053v16.695h.3c.863 0 1.566.68 1.566 1.515zM3.158 9.108c0 .298.238.55.553.572 4.682.265 11.046-.753 17.737-3.71a.57.57 0 0 0 .342-.52V3.374c0-1.68-2.5-1.997-3.013-.433-.155.48-.832.542-1.079.098a3.722 3.722 0 0 0-3.264-1.902H6.937c-2.084 0-3.78 1.64-3.78 3.658zm15.864 7.177c.456-1.36.325-2.349.34-3.88V8.06c-6.203 2.339-11.238 2.79-14.128 2.799 0 3.412-.094 4.134.34 5.427 1.21 3.639 5.308 5.64 9.065 4.356 2.101-.716 3.716-2.351 4.383-4.356zm-9.426 5.441v1.542l2.423 2.346c.154.15.405.149.558 0L15 23.269v-1.543a8.503 8.503 0 0 1-5.403 0zm-6.172-7.598c0 .474.286.884.7 1.077-.105-.797-.053-1.228-.067-2.788-.866.47-.58 1.39-.633 1.71zm16.862 18.384v-8.02c-1.585-.853-2.814-.725-4.13-.731l-2.747 2.658a1.61 1.61 0 0 1-2.222 0L8.44 23.76c-1.542.004-.048-.011-1.589.012a.583.583 0 0 1-.623-.534.576.576 0 0 1 .553-.602c1.537-.023.07-.01 1.638-.015v-1.395c-1.926-.999-3.397-2.717-4.026-4.78-1.206-.127-2.147-1.119-2.147-2.32v-.666c0-1.086.77-2.002 1.81-2.26v-.363c-.464-.02-.794-.02-1.204-.256-1.266 4.037-2.177 9.81.26 13.285a7.29 7.29 0 0 1 1.193-.648.597.597 0 0 1 .776.29.563.563 0 0 1-.3.751c-2.177.932-3.605 3.03-3.605 5.36v2.794c0 .17-1.118.05 19.109.098zm0-16.076a1.242 1.242 0 0 1-.084.011c-.63 2.064-2.1 3.782-4.027 4.78v1.395c1.19.006 2.524-.097 4.111.594zm.93-4.952a2.14 2.14 0 0 1 1.014-.349 47.611 47.611 0 0 0-.72-3.943c-.332.143-.66.28-.986.412.025.272.01.149.014 3.597.243.06.471.156.678.283zM38.823 31.39a.384.384 0 0 0-.39-.377H25.603a.383.383 0 0 0-.39.377c-.058 2.128.188 2.78-.349 3.646h12.695c.693 0 1.265-.546 1.265-1.225zM27.475 21.006c-2.516.834-5.066-.998-5.066-3.501 0-2.057 1.73-3.702 3.825-3.702 1.633 0 3.086 1.005 3.616 2.5.686 1.937-.38 4.04-2.375 4.703zm1.407-3.501c0-1.395-1.17-2.564-2.648-2.564-1.447 0-2.65 1.136-2.65 2.564 0 2.512 3.33 3.488 4.804 1.49.314-.426.494-.942.494-1.49zm-2.649 1.531c-2.159 0-2.888-2.754-1.669-2.754.325 0 .589.255.589.57 0 .576.485 1.045 1.08 1.045.596 0 1.081-.469 1.081-1.046 0-.314.264-.569.589-.569 1.222 0 .49 2.754-1.67 2.754zm0 10.356c-2.137 0-3.825-1.689-3.825-3.703 0-1.58 1.039-2.987 2.584-3.5 2.01-.668 4.177.375 4.858 2.298.848 2.393-.984 4.905-3.617 4.905zm1.896-1.914c-.387.156-.815-.119-.815-.526 0-.576-.485-1.045-1.08-1.045-.596 0-1.081.469-1.081 1.045 0 .408-.43.682-.815.526.008.006.69.776 1.895.776 1.214 0 1.888-.77 1.896-.776zm.753-1.788c0-1.737-1.768-3.002-3.508-2.425-1.615.538-2.283 2.383-1.39 3.774v.001a.558.558 0 0 1-.008-.088c0-1.204 1.013-2.185 2.258-2.185 1.49 0 2.395 1.363 2.25 2.273.083-.18.398-.607.398-1.35zm6.643-10.184l-2.023 3.184a.907.907 0 0 1-1.471.064l-.946-1.224a.558.558 0 0 1 .12-.798.602.602 0 0 1 .823.116l.693.898 1.802-2.836a.6.6 0 0 1 .81-.187.559.559 0 0 1 .192.783zM7.596 22.622c-.025 0 .11-.002 0 0m.48-11.46c.565 0 1.022.443 1.022.99 0 .546-.457.989-1.022.989-.564 0-1.021-.443-1.021-.99 0-.546.457-.989 1.021-.989zm8.79 0c.564 0 1.021.443 1.021.99 0 .546-.457.989-1.022.989-.564 0-1.021-.443-1.021-.99 0-.546.457-.989 1.021-.989zm-3.075 5.146a.58.58 0 0 1-.588.57h-1.099c-.89 0-1.616-.702-1.616-1.565V11.46a.58.58 0 0 1 .588-.57.58.58 0 0 1 .589.57v3.852c0 .234.197.426.44.426h1.098c.325 0 .588.254.588.569zm-1.493 11.53c.377 0 .682.295.682.66 0 .364-.305.66-.682.66a.672.672 0 0 1-.682-.66c0-.365.306-.66.682-.66zm0 2.414c.377 0 .682.295.682.66 0 .364-.305.66-.682.66a.671.671 0 0 1-.682-.66c0-.365.306-.66.682-.66zm3.114-11.688c-1.24.848-2.352 1.112-3.257 1.112-1.255 0-2.436-.557-3.046-1.175a.487.487 0 0 1 .016-.704.526.526 0 0 1 .725.015c.087.085 2.031 1.95 4.968-.061a.525.525 0 0 1 .717.119.488.488 0 0 1-.123.694z"/></g></g></svg>