<svg xmlns="http://www.w3.org/2000/svg" width="30" height="26" viewBox="0 0 30 26"><g><path d="M29.834 15.648l-1.215.983a.44.44 0 0 1-.624-.08l-.408-.546-.773.559a1.906 1.906 0 0 1-.02 1.768 1.844 1.844 0 0 1-1.959.953c.043.382-.03.767-.214 1.112a1.845 1.845 0 0 1-1.96.952c.041.372-.025.76-.213 1.113a1.845 1.845 0 0 1-1.96.951c.043.383-.03.769-.214 1.113a1.845 1.845 0 0 1-1.626.985c-.305 0-.607-.078-.883-.231l-1.807-1.005c-.13.237-.309.444-.531.608l-1.027.758a1.813 1.813 0 0 1-1.377.334 1.833 1.833 0 0 1-1.206-.756 1.897 1.897 0 0 1-.35-1.076 1.792 1.792 0 0 1-.857.066 1.833 1.833 0 0 1-1.206-.757 1.9 1.9 0 0 1-.35-1.078 1.838 1.838 0 0 1-2.042-.66 1.865 1.865 0 0 1-.363-1.108 1.837 1.837 0 0 1-2.07-.688 1.92 1.92 0 0 1-.144-1.972l-.95-.517-.336.595a.44.44 0 0 1-.602.164L.22 16.818a.454.454 0 0 1-.16-.613.435.435 0 0 1 .6-.165l.478.281L6.922 6.105.22 2.16a.454.454 0 0 1-.16-.614.436.436 0 0 1 .6-.164l8.552 5.035a.458.458 0 0 1 .16.613l-.659 1.165.694.411 2.041-.244a.439.439 0 0 1 .222.032l.734.316.29-1.186c.05-.2.226-.34.428-.34h5.166c.047 0 .094.007.138.022l2.257.76.569-.443-.8-1.07a.459.459 0 0 1 .113-.65l4.392-2.876a.435.435 0 0 1 .608.136.454.454 0 0 1-.132.62l-3.991 2.612 6.981 9.348.864-.699a.434.434 0 0 1 .618.073.455.455 0 0 1-.071.63zM8.39 6.97l-.706-.415L1.901 16.77l.705.415zm1.37 10.345a1.01 1.01 0 0 0 .2-1.402.959.959 0 0 0-.767-.388.957.957 0 0 0-.57.19L5.51 18.011c-.433.32-.53.939-.217 1.38.313.441.92.54 1.353.221zm1.717 2.28a1.01 1.01 0 0 0 .2-1.402.969.969 0 0 0-.714-.387.945.945 0 0 0-.43.077c-.094.041-.173.102-.257.16L7.947 19.76c-.432.32-.557.972-.23 1.414a.961.961 0 0 0 1.34.206zm1.717 2.28a1.01 1.01 0 0 0 .2-1.402.952.952 0 0 0-1.336-.198l-.065.047-1.659 1.224c-.432.32-.53.938-.216 1.38a.96.96 0 0 0 .631.396.947.947 0 0 0 .721-.175zm1.917.878a.962.962 0 0 0-1.336-.198l-.065.048-.962.71a1.01 1.01 0 0 0-.217 1.38.966.966 0 0 0 1.352.22l1.028-.758a.984.984 0 0 0 .39-.657.995.995 0 0 0-.19-.745zm10.523-6.191l-9.174-5.1-.08.131v3.703c0 1.304-1.04 2.365-2.319 2.365s-2.319-1.06-2.319-2.365v-3.832c0-.037.004-.073.013-.109l.433-1.764-.753-.323-2.072.247a.437.437 0 0 1-.272-.057l-.818-.485-4.347 7.678 1.109.603 3.073-2.267a1.816 1.816 0 0 1 2.55.38 1.897 1.897 0 0 1 .342 1.54c.523.026 1.03.28 1.375.739a1.9 1.9 0 0 1 .342 1.542c.523.025 1.03.279 1.376.738a1.9 1.9 0 0 1 .341 1.542 1.83 1.83 0 0 1 1.376.738c.257.343.389.753.382 1.176l1.995 1.11a.967.967 0 0 0 1.314-.395 1.007 1.007 0 0 0-.387-1.34l-2.844-1.581a.454.454 0 0 1-.176-.61.436.436 0 0 1 .597-.179l3.67 2.04a.968.968 0 0 0 1.313-.395 1 1 0 0 0-.386-1.34l-3.504-1.948a.453.453 0 0 1-.176-.609.436.436 0 0 1 .597-.18l4.329 2.406a.96.96 0 0 0 1.314-.394 1 1 0 0 0-.387-1.34l-4.266-2.372a.454.454 0 0 1-.176-.609.436.436 0 0 1 .597-.18l5.091 2.83a.968.968 0 0 0 1.314-.394 1.007 1.007 0 0 0-.387-1.34zm1.419-1.272l-5.268-7.053-.751.587a.437.437 0 0 1-.406.07l-2.41-.813h-4.753l-.842 3.438v3.777c0 .809.645 1.467 1.438 1.467.793 0 1.438-.658 1.438-1.467v-3.832c0-.084.024-.166.067-.238l.954-1.555c.128-.21.4-.274.606-.143a.454.454 0 0 1 .14.619l-.338.553 9.128 5.073c.06.034.12.072.175.112zM29.798.826L27.331 2.44a.435.435 0 0 1-.608-.136.454.454 0 0 1 .133-.62L29.323.07a.435.435 0 0 1 .608.135.455.455 0 0 1-.133.62z"/></g></svg>