<svg xmlns="http://www.w3.org/2000/svg" width="20" height="30" viewBox="0 0 20 30"><g><g><path d="M20 24.746v4.132c0 .618-.498 1.122-1.11 1.122H7.28a.437.437 0 0 1-.435-.44c0-.243.195-.44.435-.44h1.738l-1.364-1.517a.794.794 0 0 1-.186-.645l1.3-7.762-.35-.533c-.197.14-.345.273-.623.273a.76.76 0 0 1-.682-.426l-1.37-2.778-3.12 1.223c-.101.044-1.753.79-1.753 2.768v9.155c0 .134.108.243.24.243h2.337v-8.654c0-.243.194-.44.435-.44.24 0 .434.197.434.44v8.654h.935c.24 0 .435.196.435.439S5.49 30 5.25 30H1.11C.497 30 0 29.495 0 28.877v-9.155c0-2.599 2.2-3.543 2.294-3.582.003 0 .005-.002.008-.003l5.191-2.035v-1.167a4.082 4.082 0 0 1-1.63-2.774 1.869 1.869 0 0 1-1.745-1.87c0-.433.158-.843.448-1.175V5.446c0-3.003 2.417-5.447 5.387-5.447 2.97 0 5.387 2.444 5.387 5.447v1.628c.287.336.448.767.448 1.219a1.872 1.872 0 0 1-1.746 1.87 4.128 4.128 0 0 1-1.541 2.708v1.232l5.196 2.035.009.003c.093.04 2.294.983 2.294 3.582v2.972c0 .243-.195.44-.435.44a.437.437 0 0 1-.435-.44v-2.972c0-1.972-1.64-2.719-1.753-2.768l-3.122-1.222-1.37 2.777a.76.76 0 0 1-.682.426c-.28 0-.429-.134-.622-.273l-.35.533 1.3 7.762.001.013a.794.794 0 0 1-.188.632l-1.364 1.518h4.705v-8.654c0-.243.194-.44.434-.44s.435.197.435.44v8.654h2.337c.132 0 .24-.11.24-.243v-4.132c0-.242.194-.439.434-.439s.435.197.435.439zm-7.795-9.816l-1.579 1.97 1.537 1.103 1.278-2.59zm-2.207 2.597l-.873.627.331.504h1.084l.332-.504zm0-1.24l1.634-2.039v-.853a4.043 4.043 0 0 1-1.626.343c-.551 0-1.116-.1-1.644-.316v.823zm4.08-8.975v1.962a.99.99 0 0 0 .84-.98c.001-.48-.34-.9-.84-.982zm-8.25.022c-.455.107-.84.489-.84.959a.99.99 0 0 0 .84.98zm.829-1.484c1.704.124 3.552-.379 5.066-1.379a.767.767 0 0 1 .987.122c1.372 1.491 1.369 1.41 1.369 1.834.134.012.265.037.392.076V5.446c0-2.518-2.027-4.568-4.518-4.568-2.49 0-4.517 2.05-4.517 4.568v1.087c.118-.04.277-.078.415-.094a.774.774 0 0 1 .806-.589zm3.349 7.008c1.765 0 3.203-1.454 3.203-3.238V6.43c-.11-.136-.45-.495-1.08-1.178-1.589 1.03-3.556 1.593-5.432 1.482V9.62c0 1.684 1.327 3.238 3.309 3.238zm-.637 4.043L7.79 14.93l-1.234.483 1.278 2.59L9.369 16.9zm.63 12.004l1.665-1.852-1.258-7.516H9.59l-1.258 7.516z"/></g></g></svg>