<svg xmlns="http://www.w3.org/2000/svg" width="42" height="40" viewBox="0 0 42 40"><defs><clipPath id="n0iea"><path fill="#fff" d="M41.021 30.082l-.194.056c.73.77 1.164 1.81 1.164 2.92v6.143c0 .441-.352.798-.787.798a.793.793 0 0 1-.787-.798v-6.143a2.623 2.623 0 0 0-1.7-2.458l-5.108-1.883-2.126 3.233a1.62 1.62 0 0 1-1.358.736c-.43 0-.842-.172-1.15-.484l-1.298-1.315v8.314c0 .441-.352.798-.787.798a.793.793 0 0 1-.788-.798v-8.314l-1.297 1.315a1.612 1.612 0 0 1-1.313.476 1.62 1.62 0 0 1-1.195-.728l-2.127-3.233-5.108 1.883a2.622 2.622 0 0 0-1.699 2.458V39.2a.793.793 0 0 1-.787.798.793.793 0 0 1-.788-.798v-6.143c0-.805.23-1.573.633-2.229l-.858-.434-.915.881a3.28 3.28 0 0 1-4.565 0l-.916-.882-2.631 1.334c-.593.3-.961.905-.961 1.576v5.897c0 .44-.353.798-.788.798A.793.793 0 0 1 0 39.2v-5.897c0-1.28.702-2.43 1.831-3.004l2.114-1.07c-2.27-1.001-2.986-2.403-3.02-2.473a.808.808 0 0 1 0-.714c.568-1.15.637-3.26.692-4.955.018-.564.036-1.097.069-1.572.268-3.829 3.14-6.715 6.68-6.715 3.539 0 6.41 2.886 6.679 6.715.033.475.05 1.008.07 1.572.054 1.695.123 3.804.69 4.955.112.225.112.49 0 .714-.034.07-.751 1.475-3.016 2.474l.76.386c.297-.213.623-.388.974-.517l4.846-1.786a.802.802 0 0 1 .214-.61l1.467-1.563v-2.684c-2.059-1.772-3.368-4.46-3.368-7.444v-1.801a9.331 9.331 0 0 1-.842-3.88V7.625C16.84 3.42 20.215 0 24.364 0h11.788c.435 0 .787.358.787.799V9.33a9.332 9.332 0 0 1-.841 3.88v2.094a9.427 9.427 0 0 1-2.912 6.81c-.149.14-.301.274-.457.403v2.623l1.467 1.562a.803.803 0 0 1 .215.61l4.59 1.693s2.217 1.019 2.02 1.076zm-35.97-3.08a5.936 5.936 0 0 1-2.078-2.598c-.094.688-.233 1.34-.448 1.91.315.392 1.054 1.108 2.527 1.645zm5.244 2.412a1.67 1.67 0 0 1-.191-.78v-.85a5.777 5.777 0 0 1-3.477 0v.85c0 .28-.068.545-.192.78l.733.705a1.721 1.721 0 0 0 2.395 0zm2.283-6.61c-1.274-2.843-4.55-3.23-5.568-3.28l-1.182 1.243a.78.78 0 0 1-1.114.02.806.806 0 0 1-.02-1.128l1.42-1.494a.782.782 0 0 1 .546-.243 9.74 9.74 0 0 1 2.995.48c1.71.557 3.033 1.543 3.89 2.881l-.005-.142a43.308 43.308 0 0 0-.066-1.512c-.1-1.434-.666-2.755-1.592-3.721a4.837 4.837 0 0 0-3.516-1.511 4.836 4.836 0 0 0-3.517 1.511c-.926.966-1.491 2.287-1.592 3.721-.031.445-.048.963-.066 1.512l-.006.205a.793.793 0 0 1 .917.787c0 2.383 1.912 4.322 4.264 4.322 2.115 0 3.891-1.556 4.212-3.651zm1.628 3.51c-.214-.568-.353-1.219-.448-1.906a5.89 5.89 0 0 1-2.079 2.602v.952c1.472-.537 2.214-1.26 2.527-1.647zm12.174-3.29a7.5 7.5 0 0 0 5.11-1.544l.014-.01c.208-.161.41-.335.604-.519a7.712 7.712 0 0 0 2.414-5.645v-2.273c0-.12.027-.239.079-.347a7.74 7.74 0 0 0 .764-3.354V1.596H24.364c-3.28 0-5.949 2.705-5.949 6.03v1.706c0 1.162.257 2.29.764 3.354a.804.804 0 0 1 .078.347v1.98c0 4.23 3.129 7.75 7.123 8.012zm-.718 6.052l-3.716-2.574-.788.84 2.45 3.723c.004.006.014.022.04.024.025.003.038-.01.043-.016zm5.492-4.037V23.58a9.022 9.022 0 0 1-4.876 1.037 8.774 8.774 0 0 1-3.653-1.07v1.49l4.265 2.955zm1.468 2.302l-.789-.839-3.715 2.574 1.97 1.997c.006.005.019.02.044.016a.05.05 0 0 0 .04-.024zm-27.68 7.795V39.2c0 .44-.352.798-.787.798a.793.793 0 0 1-.787-.798v-4.065c0-.441.353-.798.787-.798.435 0 .788.357.788.798zM33.342 10.75a.78.78 0 0 1-1.114 0c-1.052-1.067-2.83-1.692-5.286-1.858-2.087-.14-4.102.099-5.117.254-.023.003-.04.026-.04.054v1.839c0 .44-.353.798-.788.798a.793.793 0 0 1-.788-.798v-1.84c0-.823.581-1.51 1.381-1.632 2.542-.388 8.773-.965 11.752 2.054a.806.806 0 0 1 0 1.128zM18.415 35.787v3.414c0 .44-.352.798-.787.798a.793.793 0 0 1-.788-.798v-3.414c0-.44.353-.798.788-.798.435 0 .787.358.787.798zm18.524 0v3.414c0 .44-.352.798-.787.798a.793.793 0 0 1-.787-.798v-3.414c0-.44.352-.798.787-.798.435 0 .787.358.787.798z"/></clipPath></defs><g><g><path fill="#ff314e" d="M41.021 30.082l-.194.056c.73.77 1.164 1.81 1.164 2.92v6.143c0 .441-.352.798-.787.798a.793.793 0 0 1-.787-.798v-6.143a2.623 2.623 0 0 0-1.7-2.458l-5.108-1.883-2.126 3.233a1.62 1.62 0 0 1-1.358.736c-.43 0-.842-.172-1.15-.484l-1.298-1.315v8.314c0 .441-.352.798-.787.798a.793.793 0 0 1-.788-.798v-8.314l-1.297 1.315a1.612 1.612 0 0 1-1.313.476 1.62 1.62 0 0 1-1.195-.728l-2.127-3.233-5.108 1.883a2.622 2.622 0 0 0-1.699 2.458V39.2a.793.793 0 0 1-.787.798.793.793 0 0 1-.788-.798v-6.143c0-.805.23-1.573.633-2.229l-.858-.434-.915.881a3.28 3.28 0 0 1-4.565 0l-.916-.882-2.631 1.334c-.593.3-.961.905-.961 1.576v5.897c0 .44-.353.798-.788.798A.793.793 0 0 1 0 39.2v-5.897c0-1.28.702-2.43 1.831-3.004l2.114-1.07c-2.27-1.001-2.986-2.403-3.02-2.473a.808.808 0 0 1 0-.714c.568-1.15.637-3.26.692-4.955.018-.564.036-1.097.069-1.572.268-3.829 3.14-6.715 6.68-6.715 3.539 0 6.41 2.886 6.679 6.715.033.475.05 1.008.07 1.572.054 1.695.123 3.804.69 4.955.112.225.112.49 0 .714-.034.07-.751 1.475-3.016 2.474l.76.386c.297-.213.623-.388.974-.517l4.846-1.786a.802.802 0 0 1 .214-.61l1.467-1.563v-2.684c-2.059-1.772-3.368-4.46-3.368-7.444v-1.801a9.331 9.331 0 0 1-.842-3.88V7.625C16.84 3.42 20.215 0 24.364 0h11.788c.435 0 .787.358.787.799V9.33a9.332 9.332 0 0 1-.841 3.88v2.094a9.427 9.427 0 0 1-2.912 6.81c-.149.14-.301.274-.457.403v2.623l1.467 1.562a.803.803 0 0 1 .215.61l4.59 1.693s2.217 1.019 2.02 1.076zm-35.97-3.08a5.936 5.936 0 0 1-2.078-2.598c-.094.688-.233 1.34-.448 1.91.315.392 1.054 1.108 2.527 1.645zm5.244 2.412a1.67 1.67 0 0 1-.191-.78v-.85a5.777 5.777 0 0 1-3.477 0v.85c0 .28-.068.545-.192.78l.733.705a1.721 1.721 0 0 0 2.395 0zm2.283-6.61c-1.274-2.843-4.55-3.23-5.568-3.28l-1.182 1.243a.78.78 0 0 1-1.114.02.806.806 0 0 1-.02-1.128l1.42-1.494a.782.782 0 0 1 .546-.243 9.74 9.74 0 0 1 2.995.48c1.71.557 3.033 1.543 3.89 2.881l-.005-.142a43.308 43.308 0 0 0-.066-1.512c-.1-1.434-.666-2.755-1.592-3.721a4.837 4.837 0 0 0-3.516-1.511 4.836 4.836 0 0 0-3.517 1.511c-.926.966-1.491 2.287-1.592 3.721-.031.445-.048.963-.066 1.512l-.006.205a.793.793 0 0 1 .917.787c0 2.383 1.912 4.322 4.264 4.322 2.115 0 3.891-1.556 4.212-3.651zm1.628 3.51c-.214-.568-.353-1.219-.448-1.906a5.89 5.89 0 0 1-2.079 2.602v.952c1.472-.537 2.214-1.26 2.527-1.647zm12.174-3.29a7.5 7.5 0 0 0 5.11-1.544l.014-.01c.208-.161.41-.335.604-.519a7.712 7.712 0 0 0 2.414-5.645v-2.273c0-.12.027-.239.079-.347a7.74 7.74 0 0 0 .764-3.354V1.596H24.364c-3.28 0-5.949 2.705-5.949 6.03v1.706c0 1.162.257 2.29.764 3.354a.804.804 0 0 1 .078.347v1.98c0 4.23 3.129 7.75 7.123 8.012zm-.718 6.052l-3.716-2.574-.788.84 2.45 3.723c.004.006.014.022.04.024.025.003.038-.01.043-.016zm5.492-4.037V23.58a9.022 9.022 0 0 1-4.876 1.037 8.774 8.774 0 0 1-3.653-1.07v1.49l4.265 2.955zm1.468 2.302l-.789-.839-3.715 2.574 1.97 1.997c.006.005.019.02.044.016a.05.05 0 0 0 .04-.024zm-27.68 7.795V39.2c0 .44-.352.798-.787.798a.793.793 0 0 1-.787-.798v-4.065c0-.441.353-.798.787-.798.435 0 .788.357.788.798zM33.342 10.75a.78.78 0 0 1-1.114 0c-1.052-1.067-2.83-1.692-5.286-1.858-2.087-.14-4.102.099-5.117.254-.023.003-.04.026-.04.054v1.839c0 .44-.353.798-.788.798a.793.793 0 0 1-.788-.798v-1.84c0-.823.581-1.51 1.381-1.632 2.542-.388 8.773-.965 11.752 2.054a.806.806 0 0 1 0 1.128zM18.415 35.787v3.414c0 .44-.352.798-.787.798a.793.793 0 0 1-.788-.798v-3.414c0-.44.353-.798.788-.798.435 0 .787.358.787.798zm18.524 0v3.414c0 .44-.352.798-.787.798a.793.793 0 0 1-.787-.798v-3.414c0-.44.352-.798.787-.798.435 0 .787.358.787.798z"/><path fill="none" stroke="#fff" stroke-miterlimit="50" stroke-width=".3" d="M41.021 30.082l-.194.056c.73.77 1.164 1.81 1.164 2.92v6.143c0 .441-.352.798-.787.798a.793.793 0 0 1-.787-.798v-6.143a2.623 2.623 0 0 0-1.7-2.458l-5.108-1.883-2.126 3.233a1.62 1.62 0 0 1-1.358.736c-.43 0-.842-.172-1.15-.484l-1.298-1.315v8.314c0 .441-.352.798-.787.798a.793.793 0 0 1-.788-.798v-8.314l-1.297 1.315a1.612 1.612 0 0 1-1.313.476 1.62 1.62 0 0 1-1.195-.728l-2.127-3.233-5.108 1.883a2.622 2.622 0 0 0-1.699 2.458V39.2a.793.793 0 0 1-.787.798.793.793 0 0 1-.788-.798v-6.143c0-.805.23-1.573.633-2.229l-.858-.434-.915.881a3.28 3.28 0 0 1-4.565 0l-.916-.882-2.631 1.334c-.593.3-.961.905-.961 1.576v5.897c0 .44-.353.798-.788.798A.793.793 0 0 1 0 39.2v-5.897c0-1.28.702-2.43 1.831-3.004l2.114-1.07c-2.27-1.001-2.986-2.403-3.02-2.473a.808.808 0 0 1 0-.714c.568-1.15.637-3.26.692-4.955.018-.564.036-1.097.069-1.572.268-3.829 3.14-6.715 6.68-6.715 3.539 0 6.41 2.886 6.679 6.715.033.475.05 1.008.07 1.572.054 1.695.123 3.804.69 4.955.112.225.112.49 0 .714-.034.07-.751 1.475-3.016 2.474l.76.386c.297-.213.623-.388.974-.517l4.846-1.786a.802.802 0 0 1 .214-.61l1.467-1.563v-2.684c-2.059-1.772-3.368-4.46-3.368-7.444v-1.801a9.331 9.331 0 0 1-.842-3.88V7.625C16.84 3.42 20.215 0 24.364 0h11.788c.435 0 .787.358.787.799V9.33a9.332 9.332 0 0 1-.841 3.88v2.094a9.427 9.427 0 0 1-2.912 6.81c-.149.14-.301.274-.457.403v2.623l1.467 1.562a.803.803 0 0 1 .215.61l4.59 1.693s2.217 1.019 2.02 1.076zm-35.97-3.08a5.936 5.936 0 0 1-2.078-2.598c-.094.688-.233 1.34-.448 1.91.315.392 1.054 1.108 2.527 1.645zm5.244 2.412a1.67 1.67 0 0 1-.191-.78v-.85a5.777 5.777 0 0 1-3.477 0v.85c0 .28-.068.545-.192.78l.733.705a1.721 1.721 0 0 0 2.395 0zm2.283-6.61c-1.274-2.843-4.55-3.23-5.568-3.28l-1.182 1.243a.78.78 0 0 1-1.114.02.806.806 0 0 1-.02-1.128l1.42-1.494a.782.782 0 0 1 .546-.243 9.74 9.74 0 0 1 2.995.48c1.71.557 3.033 1.543 3.89 2.881l-.005-.142a43.308 43.308 0 0 0-.066-1.512c-.1-1.434-.666-2.755-1.592-3.721a4.837 4.837 0 0 0-3.516-1.511 4.836 4.836 0 0 0-3.517 1.511c-.926.966-1.491 2.287-1.592 3.721-.031.445-.048.963-.066 1.512l-.006.205a.793.793 0 0 1 .917.787c0 2.383 1.912 4.322 4.264 4.322 2.115 0 3.891-1.556 4.212-3.651zm1.628 3.51c-.214-.568-.353-1.219-.448-1.906a5.89 5.89 0 0 1-2.079 2.602v.952c1.472-.537 2.214-1.26 2.527-1.647zm12.174-3.29a7.5 7.5 0 0 0 5.11-1.544l.014-.01c.208-.161.41-.335.604-.519a7.712 7.712 0 0 0 2.414-5.645v-2.273c0-.12.027-.239.079-.347a7.74 7.74 0 0 0 .764-3.354V1.596H24.364c-3.28 0-5.949 2.705-5.949 6.03v1.706c0 1.162.257 2.29.764 3.354a.804.804 0 0 1 .078.347v1.98c0 4.23 3.129 7.75 7.123 8.012zm-.718 6.052l-3.716-2.574-.788.84 2.45 3.723c.004.006.014.022.04.024.025.003.038-.01.043-.016zm5.492-4.037V23.58a9.022 9.022 0 0 1-4.876 1.037 8.774 8.774 0 0 1-3.653-1.07v1.49l4.265 2.955zm1.468 2.302l-.789-.839-3.715 2.574 1.97 1.997c.006.005.019.02.044.016a.05.05 0 0 0 .04-.024zm-27.68 7.795V39.2c0 .44-.352.798-.787.798a.793.793 0 0 1-.787-.798v-4.065c0-.441.353-.798.787-.798.435 0 .788.357.788.798zM33.342 10.75a.78.78 0 0 1-1.114 0c-1.052-1.067-2.83-1.692-5.286-1.858-2.087-.14-4.102.099-5.117.254-.023.003-.04.026-.04.054v1.839c0 .44-.353.798-.788.798a.793.793 0 0 1-.788-.798v-1.84c0-.823.581-1.51 1.381-1.632 2.542-.388 8.773-.965 11.752 2.054a.806.806 0 0 1 0 1.128zM18.415 35.787v3.414c0 .44-.352.798-.787.798a.793.793 0 0 1-.788-.798v-3.414c0-.44.353-.798.788-.798.435 0 .787.358.787.798zm18.524 0v3.414c0 .44-.352.798-.787.798a.793.793 0 0 1-.787-.798v-3.414c0-.44.352-.798.787-.798.435 0 .787.358.787.798z" clip-path="url(&quot;#n0iea&quot;)"/></g></g></svg>