<svg xmlns="http://www.w3.org/2000/svg" width="18" height="18" viewBox="0 0 18 18"><g><path d="M17.594 14.244l-2.78-2.787c-.553-.552-1.47-.535-2.042.039l-1.4 1.403-.277-.154c-.883-.49-2.094-1.164-3.367-2.442-1.277-1.28-1.95-2.494-2.44-3.381l-.151-.271.94-.94.461-.464c.574-.575.59-1.494.037-2.048L3.797.412c-.553-.553-1.47-.537-2.043.039l-.784.79.022.02a4.54 4.54 0 0 0-.645 1.142A4.74 4.74 0 0 0 .059 3.56c-.366 3.05 1.023 5.837 4.796 9.62 5.215 5.227 9.418 4.832 9.599 4.813a4.678 4.678 0 0 0 2.292-.936l.017.015.794-.779c.572-.575.589-1.494.037-2.05z"/></g></svg>