<svg xmlns="http://www.w3.org/2000/svg" width="40" height="39" viewBox="0 0 40 39"><g><g><path fill="#ff314e" d="M40 21.75v3.85c0 1.12-.857 2.07-1.993 2.209l-1.624.198a12.113 12.113 0 0 1-3.492 5.018v3.87c0 1.221-1.016 2.215-2.265 2.215h-4.532c-1.25 0-2.265-.994-2.265-2.215v-.845h-5.002v.845c0 1.221-1.016 2.215-2.265 2.215H12.03c-1.249 0-2.265-.994-2.265-2.215v-2.537c-3.77-2.184-6.093-6.147-6.093-10.452 0-.489.03-.971.088-1.445h-.284C1.56 22.461 0 20.936 0 19.061c0-1.874 1.56-3.398 3.476-3.398.432 0 .782.341.782.763s-.35.764-.782.764c-1.055 0-1.914.84-1.914 1.872s.859 1.871 1.914 1.871h.573c1.36-5.263 6.243-9.17 12.042-9.17h.98c.43 0 .78.342.78.764s-.35.764-.78.764h-.98c-5.986 0-10.857 4.762-10.857 10.615 0 3.897 2.179 7.475 5.685 9.336a.762.762 0 0 1 .409.671v2.982c0 .379.315.687.702.687h4.532a.696.696 0 0 0 .703-.687v-1.61c0-.421.35-.763.781-.763h6.564c.431 0 .781.342.781.764v1.609c0 .379.316.687.703.687h4.532a.696.696 0 0 0 .703-.687v-4.223c0-.227.103-.443.282-.588a10.59 10.59 0 0 0 3.442-5.003.777.777 0 0 1 .649-.53l2.11-.258a.704.704 0 0 0 .626-.692v-3.852a.704.704 0 0 0-.625-.692l-2.279-.278a.78.78 0 0 1-.637-.498 10.597 10.597 0 0 0-2.347-3.708.764.764 0 0 1-.19-.19 10.889 10.889 0 0 0-5.16-2.808.763.763 0 0 1-.581-.919c.099-.41.52-.664.94-.567.582.134 1.153.312 1.708.528.785-1.999 2.781-3.362 4.996-3.362H34.436c.24 0 .465.108.613.29a.75.75 0 0 1 .148.65l-1.335 5.527a12.166 12.166 0 0 1 2.33 3.597l1.815.223C39.143 19.68 40 20.63 40 21.749zm-6.573-10.874c-1.256.282-2.308 1.184-2.74 2.397.656.354 1.28.767 1.863 1.234zm-2.099 9.06c0 .201-.084.398-.229.54a.796.796 0 0 1-1.105 0 .762.762 0 0 1-.228-.54c0-.2.083-.397.228-.54a.796.796 0 0 1 1.105 0 .762.762 0 0 1 .23.54zM23.691 5.22v3.03c0 .422-.35.764-.782.764a.772.772 0 0 1-.78-.764V5.22c0-.422.349-.764.78-.764.432 0 .782.342.782.764zm0-2.772a.76.76 0 0 1-.23.54.796.796 0 0 1-1.104 0 .758.758 0 0 1-.229-.54c0-.2.084-.398.229-.54a.797.797 0 0 1 1.105 0 .762.762 0 0 1 .229.54zM17.344.763v1.298c0 .422-.35.764-.782.764a.773.773 0 0 1-.78-.764V.763c0-.422.349-.764.78-.764.432 0 .782.342.782.764zM8.9 23.937a.773.773 0 0 1-.776.77H8.12a.773.773 0 0 1-.781-.76v-.04c0-.423.35-.764.781-.764.431 0 .781.341.781.763zm3.72 7.03a.794.794 0 0 1-1.074.256 8.668 8.668 0 0 1-3.631-4.255.759.759 0 0 1 .45-.987.786.786 0 0 1 1.009.44 7.125 7.125 0 0 0 2.984 3.496c.369.219.486.69.262 1.05zm7.223-24.09c0 1.77-1.472 3.21-3.282 3.21-1.809 0-3.28-1.44-3.28-3.21 0-1.768 1.471-3.207 3.28-3.207 1.81 0 3.282 1.439 3.282 3.208zm-1.563 0c0-.925-.77-1.68-1.719-1.68-.947 0-1.718.755-1.718 1.68 0 .928.77 1.681 1.718 1.681s1.72-.753 1.72-1.68zm8.906 10.08c0 .422-.35.764-.78.764H16.25a.773.773 0 0 1-.781-.764c0-.422.35-.764.78-.764h3.867a3.136 3.136 0 0 1-.488-1.68c0-1.77 1.472-3.208 3.281-3.208 1.81 0 3.282 1.439 3.282 3.208 0 .616-.18 1.19-.488 1.68h.703c.432 0 .781.342.781.764zm-2.559-2.444c0-.927-.77-1.68-1.719-1.68-.947 0-1.718.753-1.718 1.68 0 .926.77 1.68 1.718 1.68s1.72-.754 1.72-1.68z"/></g></g></svg>