<svg xmlns="http://www.w3.org/2000/svg" width="100" height="100" viewBox="0 0 100 100"><defs><mask id="t5l1b" width="2" height="2" x="-1" y="-1"><path fill="#fff" d="M38 28h100v100H38z"/><path d="M138 78c0 27.57-22.43 50-50 50s-50-22.43-50-50 22.43-50 50-50 50 22.43 50 50zm-23.333 0c0-.552-.274-1.067-.727-1.377l-36.667-25A1.668 1.668 0 0 0 74.667 53v50a1.665 1.665 0 0 0 2.605 1.377l36.666-25c.455-.31.729-.825.729-1.377z"/></mask><filter id="t5l1a" width="220" height="230" x="-22" y="-32" filterUnits="userSpaceOnUse"><feOffset dy="10" in="SourceGraphic" result="FeOffset1023Out"/><feGaussianBlur in="FeOffset1023Out" result="FeGaussianBlur1024Out" stdDeviation="20 20"/></filter></defs><g><g opacity=".9"><g filter="url(#t5l1a)"><path fill="none" d="M138 78c0 27.57-22.43 50-50 50s-50-22.43-50-50 22.43-50 50-50 50 22.43 50 50zm-23.333 0c0-.552-.274-1.067-.727-1.377l-36.667-25A1.668 1.668 0 0 0 74.667 53v50a1.665 1.665 0 0 0 2.605 1.377l36.666-25c.455-.31.729-.825.729-1.377z" mask="url(&quot;#t5l1b&quot;)"/><path fill="#146774" fill-opacity=".15" d="M138 78c0 27.57-22.43 50-50 50s-50-22.43-50-50 22.43-50 50-50 50 22.43 50 50zm-23.333 0c0-.552-.274-1.067-.727-1.377l-36.667-25A1.668 1.668 0 0 0 74.667 53v50a1.665 1.665 0 0 0 2.605 1.377l36.666-25c.455-.31.729-.825.729-1.377z"/></g><path fill="#fff" d="M138 78c0 27.57-22.43 50-50 50s-50-22.43-50-50 22.43-50 50-50 50 22.43 50 50zm-23.333 0c0-.552-.274-1.067-.727-1.377l-36.667-25A1.668 1.668 0 0 0 74.667 53v50a1.665 1.665 0 0 0 2.605 1.377l36.666-25c.455-.31.729-.825.729-1.377z"/></g></g></svg>