<svg xmlns="http://www.w3.org/2000/svg" width="43" height="50" viewBox="0 0 43 50"><g><g><path d="M42.728 16.584c.557 5.715-.828 11.118-2.168 16.344a154.83 154.83 0 0 0-1.112 4.523l-.242 1.087c-.678 3.08-1.38 6.264-3.016 9.123-.895 1.567-1.906 2.301-2.998 2.192-2.077-.213-3.391-3.416-4.402-6.523-.24-.735-.446-1.523-.646-2.284a45.833 45.833 0 0 0-.57-2.047c-.213.425-.43.84-.63 1.212-.198.375-.383.72-.528 1.017l-.057.117c-.69 1.415-1.635 3.353-3.517 3.91-.354.105-.7.153-1.036.153-2.864 0-5.033-3.512-6.094-5.666-.47 1.1-.863 2.246-1.267 3.427-.306.9-.624 1.83-.981 2.742-.528 1.351-1.252 3.202-3.186 4.019l-.156.066h-.17c-2.107 0-3.318-2.941-4.042-4.697l-.1-.241C2.898 38.044 1.765 30.275.668 22.763c-.152-1.043-.303-2.081-.459-3.11l-.052-.346c-.172-1.123-.202-1.375-.097-2.708l.062-.767h4.302v-.833H2.75v-1.667h1.672v-.833H.176l.07-.9c.423-5.323 3.07-8.883 7.87-10.578 3.921-1.388 9.059-.256 11.771.54 1.269.373 1.27.374 2.04.075.244-.094.542-.209.931-.343.079-.028.156-.062.236-.097l.16-.067c4.372-1.803 9.635-1.406 13.41 1.014 2.95 1.89 4.951 4.351 5.635 6.93.096.364.18.613.254.83.15.447.28.831.363 1.682l.089.914h-4.32v.833h1.672v1.666h-1.671v.834h3.97zm-1.632-5.751c-.037-.13-.079-.254-.127-.4a13.204 13.204 0 0 1-.286-.934c-.576-2.174-2.325-4.29-4.923-5.955-3.327-2.132-7.984-2.476-11.866-.875l-.134.057c-.118.051-.234.1-.351.142-.367.127-.647.236-.875.323-1.193.462-1.454.46-3.118-.03-2.028-.596-7.133-1.845-10.741-.57-3.905 1.381-6.092 4.08-6.665 8.242zM6.094 13.332h30.92v-.833H6.094zm0 2.5h30.92v-.833H6.094zM26.72 36.847l-.039-.073a8.338 8.338 0 0 0-.387-.668 7.368 7.368 0 0 0-.194-.276 6.383 6.383 0 0 0-.32-.418 6.075 6.075 0 0 0-.377-.391c-.08-.079-.158-.164-.243-.236a5.3 5.3 0 0 0-.738-.536c-3.45-2.05-6.149 1.125-7.149 2.584-.122.177-.233.358-.345.539-.084.139-.17.281-.258.438l.073.175c.283.669 2.844 6.506 5.624 5.67 1.176-.347 1.904-1.84 2.49-3.04l.057-.117c.153-.313.347-.677.556-1.07.436-.816.923-1.73 1.25-2.581zm14.407-19.349H1.676c-.023.55.02.819.132 1.557l.053.35c.157 1.032.308 2.072.46 3.118C3.404 29.935 4.523 37.6 7.356 44.42l.101.245c.393.954 1.405 3.41 2.353 3.646 1.063-.54 1.563-1.638 2.098-3.006.344-.879.655-1.79.957-2.673.777-2.274 1.581-4.627 3.029-6.738 2.599-3.79 6.194-4.97 9.384-3.075a7.01 7.01 0 0 1 .937.667c2.15 1.806 2.89 4.62 3.55 7.139.201.772.392 1.501.617 2.19 1.542 4.738 2.6 5.341 2.982 5.38.361.061.87-.473 1.377-1.36 1.51-2.638 2.184-5.697 2.836-8.655l.242-1.094c.344-1.53.74-3.075 1.124-4.57 1.243-4.85 2.527-9.86 2.185-15.018z"/></g></g></svg>