<svg xmlns="http://www.w3.org/2000/svg" width="12" height="18" viewBox="0 0 12 18"><g><g><path fill="#ea95ee" d="M5.762-.007c3.148 0 6.247 1.434 6.247 4.867 0 3.165-3.665 4.382-4.452 5.526-.59.85-.393 2.045-2.017 2.045-1.057 0-1.573-.851-1.573-1.63 0-2.898 4.302-3.554 4.302-5.94 0-1.314-.884-2.093-2.36-2.093-3.148 0-1.919 3.212-4.303 3.212-.86 0-1.6-.511-1.6-1.484 0-2.388 2.755-4.503 5.756-4.503zm-.123 14.02c1.106 0 2.017.899 2.017 1.996 0 1.096-.91 1.996-2.017 1.996-1.107 0-2.017-.899-2.017-1.996s.91-1.997 2.017-1.997z"/></g></g></svg>