<svg xmlns="http://www.w3.org/2000/svg" width="12" height="14" viewBox="0 0 12 14"><g><g><path fill="#009de8" d="M.084 11.683a.32.32 0 0 1-.084-.23v-1.272a.32.32 0 0 1 .084-.228.283.283 0 0 1 .216-.09h2.1V8.69H.3a.282.282 0 0 1-.216-.09A.32.32 0 0 1 0 8.372V6.89c0-.086.028-.16.084-.223A.277.277 0 0 1 .3 6.572h2.1V.318c0-.093.028-.17.084-.23A.285.285 0 0 1 2.7 0h5.053c1.25 0 2.27.404 3.061 1.212.79.81 1.186 1.854 1.186 3.133 0 1.28-.395 2.323-1.186 3.132-.79.809-1.811 1.213-3.061 1.213H4.566v1.173H9.3c.087 0 .16.03.216.09a.32.32 0 0 1 .084.228v1.273a.32.32 0 0 1-.084.229.283.283 0 0 1-.216.09H4.566v1.909a.31.31 0 0 1-.09.228c-.059.06-.13.09-.21.09H2.7a.283.283 0 0 1-.215-.09.319.319 0 0 1-.085-.228v-1.91H.3a.283.283 0 0 1-.216-.09zm4.482-5.11h3c.662 0 1.196-.206 1.603-.617.406-.411.609-.948.609-1.611s-.203-1.2-.61-1.611c-.406-.411-.94-.616-1.603-.616h-3z"/></g></g></svg>