<svg xmlns="http://www.w3.org/2000/svg" width="18" height="18" viewBox="0 0 18 18"><g><g><path fill="#ead54b" d="M8.377.403a.695.695 0 0 1 .625-.407c.264 0 .507.158.624.407l2.24 4.756a.7.7 0 0 0 .525.4l5.01.762c.263.04.481.233.563.497a.754.754 0 0 1-.176.748l-3.625 3.702a.753.753 0 0 0-.2.646l.855 5.229a.747.747 0 0 1-.277.714.672.672 0 0 1-.734.055l-4.482-2.468a.668.668 0 0 0-.648 0l-4.481 2.468a.67.67 0 0 1-.734-.055.747.747 0 0 1-.277-.714l.855-5.229a.751.751 0 0 0-.2-.646L.213 7.566a.754.754 0 0 1-.176-.748A.706.706 0 0 1 .6 6.32l5.011-.763a.7.7 0 0 0 .525-.4z"/></g></g></svg>