<svg xmlns="http://www.w3.org/2000/svg" width="48" height="50" viewBox="0 0 48 50"><g><g><path d="M47.389 23.77c.584.81.745 1.818.44 2.771L41 47.855a3.064 3.064 0 0 1-2.923 2.144H9.895a3.064 3.064 0 0 1-2.924-2.145L.142 26.54a3.08 3.08 0 0 1 .44-2.77 3.037 3.037 0 0 1 2.484-1.272c4.126 0 7.94 2.117 10.158 5.581.4-.636.84-1.249 1.358-1.807.777-.838 1.613-2.115 2.498-3.466 1.976-3.02 4.02-6.14 6.5-6.14 2.554 0 4.674 3.01 6.724 5.922.896 1.273 1.743 2.476 2.527 3.272a11.71 11.71 0 0 1 1.517 1.914c1.691-3.198 5.043-5.276 8.7-5.276h1.858c.993 0 1.898.464 2.483 1.272zM13.91 30.304a10.234 10.234 0 0 0-.38 1.008 10.398 10.398 0 0 0-.51 2.756c-.003.055-.01.108-.012.162-.011.365 0 .733.027 1.1a10.645 10.645 0 0 0 .184 1.383c.544 2.653 1.196 4.883 1.992 6.82l.065.158c.62 1.523.987 1.974 1.176 2.097.502-.314.764-.908 1.065-1.686.216-.559.408-1.123.598-1.687.495-1.465 1.008-2.98 1.942-4.357 1.736-2.554 4.154-3.337 6.311-2.043 1.927 1.155 2.477 3.276 2.962 5.146.123.472.243.937.384 1.375.955 2.966 1.554 3.195 1.624 3.212-.004-.003.217-.09.57-.713.93-1.638 1.33-3.475 1.754-5.419l.153-.694c.155-.698.325-1.416.5-2.15.092-.385.153-.773.2-1.162a10.547 10.547 0 0 0 .081-1.413c-.002-.088-.01-.174-.013-.262a10.48 10.48 0 0 0-.074-.899c-.014-.118-.027-.235-.045-.354a10.51 10.51 0 0 0-.216-1.037c-.03-.115-.068-.228-.101-.342a11.078 11.078 0 0 0-.259-.756c-.047-.123-.092-.248-.144-.37a10.158 10.158 0 0 0-2.089-3.142c-.88-.895-1.765-2.152-2.702-3.483-1.722-2.447-3.675-5.22-5.372-5.22-1.59 0-3.547 2.989-5.12 5.391-.924 1.413-1.797 2.746-2.67 3.687a10.338 10.338 0 0 0-1.88 2.894zm32.14-5.552a1.398 1.398 0 0 0-1.144-.587h-1.857c-3.379 0-6.448 2.126-7.656 5.297l-.05.226c.114.28.215.566.308.853l.042.138c.076.242.143.484.203.73.014.059.03.117.042.176.06.261.112.524.155.79.004.029.011.057.015.085.092.597.14 1.202.143 1.809l-.002.188a11.428 11.428 0 0 1-.044.944c-.02.218-.046.437-.076.655-.012.08-.02.159-.033.24-.048.289-.102.578-.17.866a152.43 152.43 0 0 0-.497 2.127l-.15.685c-.432 1.98-.88 4.03-1.933 5.888-.629 1.11-1.363 1.631-2.18 1.545-1.48-.153-2.36-2.287-3.027-4.355a26 26 0 0 1-.412-1.47c-.443-1.712-.863-3.33-2.206-4.135-1.644-.987-3.011.182-3.75 1.089a6.8 6.8 0 0 0-.347.464c-.807 1.19-1.261 2.532-1.742 3.953a45.14 45.14 0 0 1-.623 1.755c-.332.859-.835 2.155-2.169 2.724l-.155.066h-.168c-1.528 0-2.339-1.985-2.823-3.171l-.063-.154c-.837-2.035-1.52-4.364-2.085-7.12-.09-.437-.147-.873-.188-1.31-.009-.09-.018-.177-.024-.266-.03-.423-.043-.846-.03-1.269.002-.079.01-.156.014-.235.017-.356.051-.71.1-1.063.014-.107.025-.212.042-.318a12.332 12.332 0 0 1 .388-1.62c.062-.2.13-.396.202-.592.06-.167.11-.336.177-.5-.03-.101-.06-.203-.088-.306a10.426 10.426 0 0 0-9.123-5.41 1.4 1.4 0 0 0-1.145.588 1.42 1.42 0 0 0-.203 1.278l6.828 21.313c.19.592.731.99 1.349.99h28.182c.617 0 1.159-.398 1.348-.99l6.83-21.313c.14-.44.065-.906-.204-1.278zm1.946-15.386v5.001a.83.83 0 0 1-.827.834h-13.57a22.035 22.035 0 0 1-14.57-5.538v1.169a5.825 5.825 0 0 1-4.966 5.767v2.798a1.664 1.664 0 0 1-.828 3.101 1.663 1.663 0 0 1-.828-3.101v-2.798a5.825 5.825 0 0 1-4.965-5.767v-10a.83.83 0 0 1 .827-.834h9.932c.015 0 .028.009.044.008.079.004.155.02.23.047.024.009.048.015.072.026a.852.852 0 0 1 .235.16c.002.001.003.001.004.004l2.258 2.273c3.854 3.88 8.978 6.017 14.43 6.017h11.695a.83.83 0 0 1 .827.833zm-4.752 4.167L41.31 10.2h-2.734l1.655 3.333zm-7.77-3.333c-.64 0-1.276-.033-1.907-.086l1.698 3.42h3.116L36.725 10.2zM9.096 1.665v.833h1.655a.83.83 0 0 1 .828.834.83.83 0 0 1-.828.833H9.097v5h8.276v-5h-1.655a.83.83 0 0 1-.828-.833.83.83 0 0 1 .828-.834h1.655v-.833zm8.276 9.167H9.097c0 2.297 1.856 4.166 4.138 4.166s4.138-1.87 4.138-4.166zm1.655-7.989v4.53c3.742 3.871 8.97 6.104 14.384 6.155l-1.826-3.676c-4.413-.786-8.478-2.9-11.712-6.158l-.845-.85zM46.34 10.2h-3.114l1.934 3.333h1.18z"/></g></g></svg>