<svg xmlns="http://www.w3.org/2000/svg" width="24" height="30" viewBox="0 0 24 30"><g><path d="M24 4.667V27.68C24 28.96 22.934 30 21.624 30H2.376C1.066 30 0 28.959 0 27.68V4.667c0-1.279 1.066-2.32 2.376-2.32h3.88v-.029c0-.501.418-.91.932-.91h2.436V1.38c0-.76.634-1.38 1.414-1.38h1.924c.78 0 1.414.62 1.414 1.38v.03h2.436c.514 0 .932.408.932.91v.029h3.88c1.31 0 2.376 1.04 2.376 2.319zm-6.723.44c-.433.57-1.127.94-1.909.94H8.632c-.782 0-1.476-.37-1.91-.94H2.858a.03.03 0 0 0-.03.03V27.21c0 .016.013.03.03.03h18.286a.03.03 0 0 0 .03-.03V5.136a.03.03 0 0 0-.03-.029h-3.866zm-6.75-3.698h2.947v-.03c0-.275-.23-.499-.512-.499h-1.924a.506.506 0 0 0-.512.5zm-3.37 2.319c0 .792.662 1.438 1.475 1.438h6.736c.813 0 1.474-.646 1.474-1.438v-.936-.004V2.318a.03.03 0 0 0-.03-.029H7.188a.03.03 0 0 0-.03.03zm15.94.939c0-.793-.66-1.438-1.473-1.438h-3.88v.499c0 .17-.02.338-.056.499h3.455c.514 0 .932.408.932.91V27.21c0 .502-.418.91-.932.91H2.857a.923.923 0 0 1-.932-.91V5.136c0-.501.418-.91.932-.91h3.455a2.267 2.267 0 0 1-.056-.498v-.5h-3.88c-.813 0-1.474.646-1.474 1.439V27.68c0 .794.661 1.439 1.474 1.439h19.248c.813 0 1.474-.645 1.474-1.439zM4.813 12.123v-3.64c0-.275.23-.5.511-.5h3.73c.281 0 .51.225.51.5v3.64c0 .275-.229.499-.51.499h-3.73a.506.506 0 0 1-.511-.5zm.902-.382h2.948V8.865H5.714zm3.85 8.953v3.64c0 .276-.23.5-.511.5h-3.73a.506.506 0 0 1-.511-.5v-3.64c0-.275.23-.499.511-.499h3.73c.281 0 .51.224.51.499zm-.902.382H5.714v2.877h2.948zm1.732-6.857a.433.433 0 0 1 0 .622l-.962.94-1.444 1.409a.456.456 0 0 1-.638 0l-.962-.94a.433.433 0 0 1 0-.622.46.46 0 0 1 .638 0l.643.628.993-.97V15a.03.03 0 0 0-.03-.03H5.744a.03.03 0 0 0-.03.03v2.818a.03.03 0 0 0 .03.029h2.888a.03.03 0 0 0 .03-.03v-.47c0-.242.202-.44.45-.44.25 0 .452.198.452.44v.47c0 .502-.418.91-.932.91H5.744a.922.922 0 0 1-.932-.91V15c0-.502.418-.91.932-.91h2.888c.34 0 .637.179.8.445l.324-.316a.458.458 0 0 1 .638 0zm.192-5.325c0-.243.202-.44.452-.44h1.443c.25 0 .451.197.451.44s-.202.44-.45.44h-1.444a.446.446 0 0 1-.452-.44zm.452 1.438h7.218c.249 0 .45.197.45.44s-.201.441-.45.441h-7.218a.446.446 0 0 1-.452-.44c0-.244.202-.44.452-.44zm-.452 5.137c0-.243.202-.44.452-.44h4.812c.249 0 .45.197.45.44s-.201.44-.45.44h-4.812a.446.446 0 0 1-.452-.44zm8.12 1.879c0 .243-.201.44-.45.44h-7.218a.446.446 0 0 1-.452-.44c0-.243.202-.44.452-.44h7.218c.249 0 .45.197.45.44zm-8.12 4.227c0-.243.202-.44.452-.44h1.924c.25 0 .451.197.451.44s-.202.44-.45.44h-1.925a.446.446 0 0 1-.452-.44zm8.12 1.879c0 .243-.201.44-.45.44h-7.218a.446.446 0 0 1-.452-.44c0-.244.202-.44.452-.44h7.218c.249 0 .45.196.45.44z"/></g></svg>