<svg xmlns="http://www.w3.org/2000/svg" width="44" height="44" viewBox="0 0 44 44"><defs><clipPath id="6ze4a"><path fill="#fff" d="M8.25 31.166h3.666v1.833H8.25zm0 3.666h5.5v1.833h-5.5zm34.927 8.342a2.81 2.81 0 0 1-3.978 0l-6.2-6.2v4.274a2.75 2.75 0 0 1-2.75 2.75H2.75A2.75 2.75 0 0 1 0 41.249V6.416a2.75 2.75 0 0 1 2.75-2.75h.093a4.585 4.585 0 0 1 8.983 0H30.25A2.75 2.75 0 0 1 33 6.416v22.606l10.174 10.176a2.811 2.811 0 0 1 .003 3.976zM4.74 3.666h5.186a2.75 2.75 0 0 0-5.186 0zm26.426 31.476l-2.75-2.75v7.023c0 .506-.41.917-.917.917h-22a.917.917 0 0 1-.916-.917v-19.25c0-.505.41-.916.917-.916h6.954l2.48-2.481a.916.916 0 0 1 1.53.397l1.467 5.133 2.602-1.949.001.002a.92.92 0 0 1 .958-.086l5.09 2.54V9.166H13.75V7.333H27.5c.506 0 .916.41.916.917v16.188l2.75 2.75V6.417a.916.916 0 0 0-.916-.916H11.916v10.082a2.75 2.75 0 1 1-5.5 0v-8.25H8.25v8.25a.917.917 0 1 0 1.833 0V5.5H2.75a.916.916 0 0 0-.917.916v34.832c0 .507.41.917.917.917h27.5c.506 0 .916-.41.916-.917zm-6.27-11.128l-1.765-.883.883 1.766zm-1.781 3.078a.915.915 0 0 1-.17-.236l-.002.001-2.19-4.38-2.787 2.089a.917.917 0 0 1-1.431-.482l-1.405-4.918-1.65 1.65a.917.917 0 0 1-.647.266H6.416V38.5h20.167v-7.94zm14.054 11.46l1.385-1.384-12.11-12.11-1.385 1.386zm4.71 1.942l-2.029-2.03-1.385 1.385 2.03 2.03a.98.98 0 0 0 1.385-1.385z"/></clipPath></defs><g><g><path fill="#ff314e" d="M8.25 31.166h3.666v1.833H8.25zm0 3.666h5.5v1.833h-5.5zm34.927 8.342a2.81 2.81 0 0 1-3.978 0l-6.2-6.2v4.274a2.75 2.75 0 0 1-2.75 2.75H2.75A2.75 2.75 0 0 1 0 41.249V6.416a2.75 2.75 0 0 1 2.75-2.75h.093a4.585 4.585 0 0 1 8.983 0H30.25A2.75 2.75 0 0 1 33 6.416v22.606l10.174 10.176a2.811 2.811 0 0 1 .003 3.976zM4.74 3.666h5.186a2.75 2.75 0 0 0-5.186 0zm26.426 31.476l-2.75-2.75v7.023c0 .506-.41.917-.917.917h-22a.917.917 0 0 1-.916-.917v-19.25c0-.505.41-.916.917-.916h6.954l2.48-2.481a.916.916 0 0 1 1.53.397l1.467 5.133 2.602-1.949.001.002a.92.92 0 0 1 .958-.086l5.09 2.54V9.166H13.75V7.333H27.5c.506 0 .916.41.916.917v16.188l2.75 2.75V6.417a.916.916 0 0 0-.916-.916H11.916v10.082a2.75 2.75 0 1 1-5.5 0v-8.25H8.25v8.25a.917.917 0 1 0 1.833 0V5.5H2.75a.916.916 0 0 0-.917.916v34.832c0 .507.41.917.917.917h27.5c.506 0 .916-.41.916-.917zm-6.27-11.128l-1.765-.883.883 1.766zm-1.781 3.078a.915.915 0 0 1-.17-.236l-.002.001-2.19-4.38-2.787 2.089a.917.917 0 0 1-1.431-.482l-1.405-4.918-1.65 1.65a.917.917 0 0 1-.647.266H6.416V38.5h20.167v-7.94zm14.054 11.46l1.385-1.384-12.11-12.11-1.385 1.386zm4.71 1.942l-2.029-2.03-1.385 1.385 2.03 2.03a.98.98 0 0 0 1.385-1.385z"/><path fill="none" stroke="#fff" stroke-miterlimit="50" stroke-width=".4" d="M8.25 31.166h3.666v1.833H8.25zm0 3.666h5.5v1.833h-5.5zm34.927 8.342a2.81 2.81 0 0 1-3.978 0l-6.2-6.2v4.274a2.75 2.75 0 0 1-2.75 2.75H2.75A2.75 2.75 0 0 1 0 41.249V6.416a2.75 2.75 0 0 1 2.75-2.75h.093a4.585 4.585 0 0 1 8.983 0H30.25A2.75 2.75 0 0 1 33 6.416v22.606l10.174 10.176a2.811 2.811 0 0 1 .003 3.976zM4.74 3.666h5.186a2.75 2.75 0 0 0-5.186 0zm26.426 31.476l-2.75-2.75v7.023c0 .506-.41.917-.917.917h-22a.917.917 0 0 1-.916-.917v-19.25c0-.505.41-.916.917-.916h6.954l2.48-2.481a.916.916 0 0 1 1.53.397l1.467 5.133 2.602-1.949.001.002a.92.92 0 0 1 .958-.086l5.09 2.54V9.166H13.75V7.333H27.5c.506 0 .916.41.916.917v16.188l2.75 2.75V6.417a.916.916 0 0 0-.916-.916H11.916v10.082a2.75 2.75 0 1 1-5.5 0v-8.25H8.25v8.25a.917.917 0 1 0 1.833 0V5.5H2.75a.916.916 0 0 0-.917.916v34.832c0 .507.41.917.917.917h27.5c.506 0 .916-.41.916-.917zm-6.27-11.128l-1.765-.883.883 1.766zm-1.781 3.078a.915.915 0 0 1-.17-.236l-.002.001-2.19-4.38-2.787 2.089a.917.917 0 0 1-1.431-.482l-1.405-4.918-1.65 1.65a.917.917 0 0 1-.647.266H6.416V38.5h20.167v-7.94zm14.054 11.46l1.385-1.384-12.11-12.11-1.385 1.386zm4.71 1.942l-2.029-2.03-1.385 1.385 2.03 2.03a.98.98 0 0 0 1.385-1.385z" clip-path="url(&quot;#6ze4a&quot;)"/></g></g></svg>