<svg xmlns="http://www.w3.org/2000/svg" width="16" height="18" viewBox="0 0 16 18"><g><g><path fill="#72d7dd" d="M15.68 3.178C15.2 1.745 14.22.69 12.99.284c-2.336-.77-4.256.22-4.99.694C7.266.504 5.345-.485 3.01.284 1.78.69.798 1.746.318 3.18-.313 5.066.005 7.24 1.168 9a9.287 9.287 0 0 1 1.5 4.066c.176 1.406.435 2.534.77 3.353.403.982.922 1.512 1.543 1.576.659.067 1.206-.496 1.626-1.674.293-.824.525-1.928.652-3.109.07-.66.236-1.194.479-1.545a.316.316 0 0 1 .523 0c.243.351.409.886.48 1.545.126 1.181.358 2.285.652 3.11C9.79 17.435 10.3 18 10.913 18c.035 0 .07-.002.105-.005.621-.064 1.14-.594 1.542-1.576.336-.82.596-1.947.772-3.353l.03-.227a9.32 9.32 0 0 1 1.471-3.843c1.162-1.758 1.48-3.933.848-5.818z"/></g></g></svg>