<svg xmlns="http://www.w3.org/2000/svg" width="50" height="50" viewBox="0 0 50 50"><g><g><path d="M46.173 4.704l.002.002C48.64 7.594 50 11.396 50 15.41c0 5.567-1.98 13.662-5.295 21.652-1.478 3.56-3.043 6.638-4.527 8.9-1.775 2.705-3.293 4.02-4.641 4.02-.596 0-1.685-.266-2.29-2.042-.582-1.706-1.1-3.687-1.647-5.785-.828-3.174-1.684-6.45-2.81-8.916-1.135-2.489-2.344-3.698-3.694-3.698h-.192c-3.037 0-4.923 6.964-6.44 12.56-.572 2.113-1.112 4.107-1.713 5.843-.618 1.787-1.719 2.054-2.32 2.054-1.356 0-2.875-1.295-4.646-3.96-1.488-2.238-3.05-5.285-4.517-8.812C1.969 29.3 0 21.145 0 15.41c0-4.015 1.358-7.816 3.825-10.704C6.418 1.67 9.986-.002 13.873-.002c3.06 0 6.331 1.893 8.72 3.275.87.503 2.056 1.19 2.407 1.234.352-.045 1.544-.733 2.416-1.237 2.395-1.381 5.672-3.272 8.71-3.272 3.887 0 7.454 1.671 10.047 4.706zm0 0c-2.429-2.843-.068-.08 0 0zM35.497 8.91c.01.084-.3.17-.3.17-.014.004-1.4.388-3.46.388-2.022 0-3.987-.417-5.84-1.24-.485-.215-.942-.497-1.308-.723a23.067 23.067 0 0 1-2.135-1.51c-.17-.133-.35-.279-.535-.427-.462-.371-.94-.755-1.279-.98-2.312-1.537-4.842-2.454-6.767-2.454-7.406 0-11.832 6.75-11.832 13.277 0 5.375 1.953 13.408 5.098 20.964 1.395 3.352 2.93 6.352 4.322 8.446 2 3.01 2.786 3.073 2.97 3.043.235-.037.274-.277.401-.645.576-1.666 1.107-3.625 1.669-5.7.882-3.255 1.794-6.621 2.994-9.238C21 29 22.77 27.406 24.904 27.406h.192c2.216 0 4.027 1.607 5.537 4.914 1.204 2.638 2.084 6.009 2.935 9.27.538 2.058 1.045 4.002 1.601 5.633.15.44.174.585.368.624.314.065 1.353-.646 2.958-3.093 1.391-2.12 2.932-5.153 4.338-8.541 3.161-7.62 5.126-15.592 5.126-20.803 0-6.527-4.426-13.277-11.832-13.277-2.514 0-5.526 1.738-7.725 3.007-.4.23-2.055 1.238-2.055 1.445 0 .213 1.524.93 2.813 1.286 2.858.792 5.998.95 6.03.951 0 0 .297.003.307.087z"/></g></g></svg>