<svg xmlns="http://www.w3.org/2000/svg" width="20" height="20" viewBox="0 0 20 20"><g><path d="M20 1.063v17.872c0 .588-.476 1.064-1.064 1.064H1.064A1.064 1.064 0 0 1 0 18.935V1.063C0 .476.476-.001 1.064-.001h17.872C19.524 0 20 .476 20 1.063zm-1.735 3.795a.083.083 0 0 0-.096-.022 6.641 6.641 0 0 1-1.554.471 3.443 3.443 0 0 0 1.212-1.703.082.082 0 1 0-.12-.096 6.635 6.635 0 0 1-2.067.798 3.452 3.452 0 0 0-5.867 3.071 9.507 9.507 0 0 1-6.77-3.48.08.08 0 0 0-.07-.03.08.08 0 0 0-.065.04A3.446 3.446 0 0 0 2.4 5.642c0 1.057.48 2.046 1.298 2.698a3.303 3.303 0 0 1-1.203-.389.082.082 0 0 0-.122.07v.044c0 1.518 1 2.851 2.424 3.294-.375.06-.764.056-1.146-.017a.083.083 0 0 0-.078.026.083.083 0 0 0-.017.08 3.447 3.447 0 0 0 2.994 2.383 6.627 6.627 0 0 1-3.95 1.288 6.74 6.74 0 0 1-.794-.047.083.083 0 0 0-.087.054.082.082 0 0 0 .033.097 9.62 9.62 0 0 0 5.204 1.525c6.046 0 9.658-4.91 9.658-9.658a9.86 9.86 0 0 0-.007-.395 6.877 6.877 0 0 0 1.663-1.737.081.081 0 0 0-.006-.099z"/></g></svg>