<svg xmlns="http://www.w3.org/2000/svg" width="20" height="20" viewBox="0 0 20 20"><g><path d="M20 1.063v17.872c0 .588-.476 1.064-1.064 1.064H1.064A1.064 1.064 0 0 1 0 18.935V1.063C0 .476.476-.001 1.064-.001h17.872C19.524 0 20 .476 20 1.063zM15.802 9.95c.431-.604.895-1.185 1.33-1.786.407-.562.823-1.123 1.036-1.796.136-.428.016-.617-.423-.693a1.39 1.39 0 0 0-.231-.013l-2.606-.003c-.32-.005-.498.135-.611.42a16.19 16.19 0 0 1-.494 1.14c-.414.84-.876 1.653-1.525 2.341-.143.152-.301.344-.54.265-.3-.109-.387-.602-.382-.768l-.003-3.007c-.058-.43-.153-.621-.58-.705H8.068c-.36 0-.542.14-.735.366-.111.131-.145.216.084.259.449.085.702.376.77.826.107.72.1 1.442.037 2.165a2 2 0 0 1-.138.618c-.13.31-.342.373-.62.182-.25-.172-.427-.415-.6-.66a14.534 14.534 0 0 1-1.59-2.945c-.122-.3-.332-.483-.65-.488a65.705 65.705 0 0 0-2.345.001c-.47.01-.61.237-.419.664.851 1.894 1.799 3.735 3.036 5.412.635.86 1.364 1.62 2.306 2.159 1.068.61 2.217.794 3.427.737.567-.026.737-.174.764-.739.017-.386.061-.771.252-1.118.187-.34.47-.405.797-.193.163.106.301.24.431.384.32.349.627.708.958 1.046.415.422.907.671 1.526.62l2.394.001c.386-.025.586-.498.365-.929a4.603 4.603 0 0 0-.577-.83c-.49-.588-1.065-1.088-1.61-1.62-.492-.48-.524-.759-.128-1.313z"/></g></svg>