<svg xmlns="http://www.w3.org/2000/svg" width="40" height="39" viewBox="0 0 40 39"><g><g><path fill="#ff314e" d="M40 24.16v5.948c0 .692-.593 1.253-1.323 1.253h-.618v5.272c0 1.366-1.173 2.477-2.615 2.477H2.615C1.173 39.11 0 37.999 0 36.633V17.636c0-.998.626-1.859 1.525-2.25v-.49c0-1.042.895-1.89 1.994-1.89h1.507l.885-8.483c.103-.99 1.038-1.717 2.084-1.62l9.119.855c.323.03.56.302.527.608-.032.307-.32.53-.643.5l-9.12-.853c-.4-.038-.757.24-.796.62L5.984 15.158h.75l.706-6.766c.052-.5.392-.921.887-1.099A3.257 3.257 0 0 0 9.93 6.06c.28-.417.78-.645 1.304-.597l4.513.423c.323.03.56.302.528.608-.032.307-.32.53-.644.5l-4.512-.422a.212.212 0 0 0-.196.087 4.43 4.43 0 0 1-2.182 1.68.2.2 0 0 0-.131.165l-.694 6.656h2.877L21.133.79c.287-.399.72-.668 1.22-.758.5-.09 1.007.011 1.428.282L35.76 8.046c.868.56 1.093 1.685.501 2.508l-1.765 2.453h.461c1.1 0 1.994.847 1.994 1.888v.718c.67.45 1.108 1.188 1.108 2.023v5.271h.618c.73 0 1.323.563 1.323 1.253zm-6.306-10.038l-.746 1.037h2.496c.112 0 .222.007.33.02v-.284c0-.426-.366-.773-.817-.773zm-21.476 1.037h.903L20.517 4.88c.295-.41.818-.63 1.334-.562a3.44 3.44 0 0 0 2.033-.356 1.44 1.44 0 0 1 1.447.068l6.21 4.008c.435.28.663.76.595 1.25-.091.66.049 1.343.394 1.923.26.436.235.966-.064 1.382l-1.846 2.566h.904l3.765-5.233a.668.668 0 0 0-.192-.96L23.118 1.235a.754.754 0 0 0-.546-.108.73.73 0 0 0-.467.29zm14.984 0h1.994l2.298-3.194a.188.188 0 0 0 .011-.206 4.047 4.047 0 0 1-.536-2.615.193.193 0 0 0-.09-.185l-6.21-4.009a.22.22 0 0 0-.216-.012 4.69 4.69 0 0 1-2.792.482.214.214 0 0 0-.172.088l-6.944 9.651h2.983c.17-2.387 2.274-4.28 4.836-4.28 2.563 0 4.666 1.893 4.838 4.28zm-4.838-3.164c-1.913 0-3.488 1.392-3.657 3.164h7.315c-.169-1.772-1.744-3.165-3.658-3.164zM2.702 15.159h2.1l.108-1.037H3.519c-.45 0-.817.347-.817.773zm-1.525 4.023h35.705v-1.546c0-.75-.645-1.362-1.438-1.362H2.615c-.793 0-1.438.611-1.438 1.362zm35.705 15.905H8.117c-.325 0-.588-.25-.588-.557 0-.308.263-.558.588-.558h28.765v-2.61h-5.594c-2.46 0-4.462-1.896-4.462-4.228 0-.436.07-.857.2-1.254v-.001c.062-.185.137-.365.223-.539l.017-.037a.353.353 0 0 0 .008-.013c.725-1.41 2.251-2.383 4.014-2.383h5.594v-2.61H1.177v13.675h3.172c.325 0 .589.25.589.558 0 .308-.264.557-.589.557H1.177v1.546c0 .751.645 1.362 1.438 1.362h32.83c.792 0 1.437-.61 1.437-1.362zm1.941-4.979V24.16c0-.076-.065-.137-.146-.137h-7.389c-1.245 0-2.331.66-2.888 1.63a2.91 2.91 0 0 0-.198.412 2.956 2.956 0 0 0 .198 2.551c.557.97 1.643 1.63 2.888 1.63h7.39c.08 0 .145-.061.145-.138zm-5.01-2.974c0 1.247-1.07 2.261-2.387 2.261-1.316 0-2.387-1.014-2.387-2.26 0-1.247 1.07-2.262 2.387-2.262 1.316 0 2.387 1.015 2.387 2.261zm-1.176 0c0-.632-.543-1.146-1.21-1.146-.668 0-1.211.514-1.211 1.146 0 .633.543 1.147 1.21 1.147.668 0 1.21-.514 1.21-1.147z"/></g></g></svg>